<?xml version="1.0" encoding="utf-8"?>
<!-- Generator: Adobe Illustrator 22.0.1, SVG Export Plug-In . SVG Version: 6.00 Build 0)  -->
<svg version="1.1" id="Layer_1" xmlns="http://www.w3.org/2000/svg" xmlns:xlink="http://www.w3.org/1999/xlink" x="0px" y="0px"
	 viewBox="0 0 300 300" style="enable-background:new 0 0 300 300;" xml:space="preserve">
<style type="text/css">
	.st0{fill:#E99668;}
	.st1{enable-background:new    ;}
	.st2{fill:none;stroke:#231F20;stroke-width:2.5;stroke-miterlimit:10;}
</style>
<rect x="11.7" y="15.3" class="st0" width="276.5" height="268.2"/>
<g>
	<g class="st1">
		<path d="M56.7,56.7c-1.9,0-3.5-0.4-4.9-1.2c-1.4-0.8-2.4-1.9-3.2-3.3c-0.7-1.4-1.1-3.1-1.1-5c0-1.9,0.4-3.6,1.1-5s1.8-2.5,3.2-3.3
			c1.4-0.8,3-1.2,4.9-1.2c1.7,0,3.2,0.4,4.5,1.2c1.3,0.8,2.3,1.8,3,3.1l-3.8,1.4c-0.4-0.7-0.9-1.3-1.6-1.6c-0.7-0.3-1.4-0.5-2.2-0.5
			c-0.8,0-1.6,0.2-2.3,0.7c-0.7,0.5-1.2,1.1-1.6,2c-0.4,0.9-0.6,2-0.6,3.2c0,1.9,0.4,3.4,1.3,4.4s2,1.5,3.3,1.5
			c0.7,0,1.4-0.1,2.2-0.4s1.3-0.8,1.7-1.6l3.8,1.4c-0.7,1.3-1.8,2.3-3.1,3.1C60,56.3,58.4,56.7,56.7,56.7z"/>
		<path d="M70.9,56.3c-1.1,0-2-0.1-2.7-0.3c-0.7-0.2-1.1-0.6-1.4-1.1c-0.3-0.6-0.4-1.4-0.4-2.4V38h4.2v13.4c0,0.6,0.1,1.1,0.4,1.2
			c0.3,0.2,0.7,0.3,1.4,0.3h1.2v3.4H70.9z"/>
		<path d="M76.1,56.3V45.9h-2.6v-3.2h6.8v13.6H76.1z M78.2,40.5c-0.7,0-1.3-0.2-1.7-0.7c-0.5-0.5-0.7-1.1-0.7-1.7
			c0-0.7,0.2-1.3,0.7-1.8c0.5-0.5,1.1-0.7,1.7-0.7c0.7,0,1.3,0.2,1.8,0.7c0.5,0.5,0.7,1.1,0.7,1.8c0,0.7-0.2,1.3-0.7,1.7
			C79.5,40.3,78.9,40.5,78.2,40.5z"/>
		<path d="M82.9,56.3V42.8h3.6l0.5,1.8c0.3-0.5,0.8-1,1.5-1.5c0.7-0.5,1.6-0.7,2.6-0.7c1.1,0,1.9,0.2,2.6,0.6c0.6,0.4,1.1,1,1.4,1.7
			c0.5-0.7,1.2-1.3,2-1.7c0.8-0.4,1.7-0.6,2.6-0.6c1.7,0,2.9,0.5,3.6,1.5c0.7,1,1,2.4,1,4.2v8.3h-4.2v-7.2c0-0.6,0-1.2-0.1-1.8
			c-0.1-0.5-0.3-1-0.5-1.3c-0.3-0.3-0.8-0.5-1.5-0.5c-0.8,0-1.5,0.3-1.8,0.9c-0.4,0.6-0.6,1.5-0.6,2.7v7.2h-4.2v-7.2
			c0-0.6,0-1.2-0.1-1.8s-0.2-1-0.5-1.3c-0.3-0.3-0.8-0.5-1.4-0.5c-0.9,0-1.5,0.3-1.9,0.9c-0.4,0.6-0.6,1.5-0.6,2.7v7.1H82.9z"/>
		<path d="M111.1,56.7c-0.9,0-1.6-0.2-2.4-0.5c-0.7-0.3-1.3-0.8-1.7-1.4c-0.4-0.6-0.6-1.3-0.6-2.1c0-1.1,0.4-2,1.2-2.7
			c0.8-0.7,1.8-1.2,3.2-1.5s2.9-0.6,4.7-0.7c0-1-0.2-1.7-0.5-2.1s-0.9-0.6-1.8-0.6c-0.6,0-1.1,0.1-1.5,0.4c-0.4,0.3-0.7,0.7-0.9,1.2
			l-3.5-1.3c0.5-0.9,1.2-1.7,2.3-2.3s2.4-0.9,3.9-0.9c1.9,0,3.4,0.4,4.5,1.3s1.6,2.3,1.6,4.4v3c0,0.6,0,1.2,0.1,1.9
			c0,0.7,0.1,1.3,0.2,1.9c0.1,0.6,0.2,1.1,0.2,1.5h-3.9l-0.5-1.6c-0.5,0.7-1.2,1.2-1.9,1.5C113,56.5,112.1,56.7,111.1,56.7z
			 M112.7,53.8c0.8,0,1.5-0.2,2.1-0.7s0.8-1.3,0.8-2.5v-0.3c-1.4,0.1-2.6,0.3-3.5,0.6s-1.3,0.8-1.3,1.5c0,0.4,0.2,0.8,0.5,1.1
			C111.6,53.7,112.1,53.8,112.7,53.8z"/>
		<path d="M128,56.3c-1.1,0-2-0.1-2.7-0.3c-0.7-0.2-1.1-0.6-1.4-1.1c-0.3-0.6-0.4-1.4-0.4-2.4v-6.6h-2.2v-3.2h2.2v-3.4h4.2v3.4h3
			v3.2h-3v5.5c0,0.6,0.1,1.1,0.4,1.2s0.7,0.3,1.4,0.3h1.2v3.4H128z"/>
		<path d="M139.4,56.7c-1.5,0-2.8-0.3-3.9-0.9c-1.1-0.6-2-1.4-2.6-2.5c-0.6-1.1-0.9-2.4-0.9-3.9c0-1.4,0.3-2.7,1-3.8
			c0.7-1.1,1.6-1.9,2.7-2.5c1.1-0.6,2.3-0.9,3.6-0.9c1.5,0,2.8,0.4,3.8,1.1s1.9,1.7,2.4,2.9c0.5,1.2,0.8,2.7,0.7,4.3h-10.1
			c0.1,1,0.4,1.7,1.1,2.1c0.6,0.5,1.3,0.7,2.1,0.7c0.6,0,1.2-0.1,1.7-0.3s0.8-0.4,1.1-0.7l3.3,1.2c-0.7,1-1.6,1.8-2.7,2.3
			S140.5,56.7,139.4,56.7z M136.2,48.1h6.2c0-0.9-0.3-1.5-0.9-2c-0.6-0.4-1.3-0.7-2.1-0.7c-0.8,0-1.5,0.2-2.1,0.6
			C136.7,46.5,136.3,47.2,136.2,48.1z"/>
		<path d="M164.2,56.7c-2,0-3.7-0.4-5-1.2c-1.4-0.8-2.3-1.9-2.9-3.4l3.9-1.4c0.3,0.9,0.7,1.5,1.4,1.9s1.6,0.6,2.6,0.6
			c0.5,0,1-0.1,1.5-0.2c0.5-0.1,0.9-0.3,1.2-0.6c0.3-0.3,0.5-0.7,0.5-1.1c0-0.6-0.3-1.1-0.9-1.5c-0.6-0.4-1.4-0.6-2.4-0.8l-2.2-0.4
			c-1-0.2-1.9-0.5-2.8-0.9s-1.5-1-2-1.6s-0.8-1.5-0.8-2.6c0-1,0.2-1.8,0.7-2.5c0.5-0.7,1.1-1.3,1.8-1.8c0.8-0.5,1.6-0.8,2.5-1
			s1.8-0.3,2.7-0.3c1,0,1.9,0.1,2.9,0.4c0.9,0.3,1.7,0.7,2.5,1.3c0.7,0.6,1.3,1.3,1.7,2.3l-3.9,1.4c-0.2-0.6-0.7-1.1-1.3-1.4
			c-0.6-0.3-1.3-0.5-2.2-0.5c-0.8,0-1.5,0.2-2.1,0.5c-0.6,0.3-0.8,0.7-0.8,1.3c0,0.5,0.2,0.8,0.6,1.2c0.4,0.3,0.9,0.6,1.5,0.7
			l2.5,0.5c0.7,0.1,1.5,0.3,2.3,0.6c0.8,0.2,1.5,0.5,2.1,0.9s1.2,0.9,1.6,1.5c0.4,0.6,0.6,1.4,0.6,2.4c0,1-0.2,1.8-0.7,2.6
			s-1,1.4-1.8,1.9c-0.7,0.5-1.6,0.9-2.5,1.2S165.1,56.7,164.2,56.7z"/>
		<path d="M174.3,60.8v-3h0.8c0.6,0,1.1,0,1.4-0.1c0.3-0.1,0.6-0.2,0.7-0.4c0.2-0.2,0.3-0.5,0.5-1l-5.2-13.5h4.5l2.7,8.5l2.6-8.5
			h4.5l-5.2,13.6c-0.4,1.2-0.9,2-1.3,2.7s-1,1.1-1.7,1.3c-0.7,0.3-1.6,0.4-2.8,0.4H174.3z"/>
		<path d="M194,56.7c-1.6,0-3-0.3-4.1-0.9s-2-1.4-2.5-2.6l3.5-1.3c0.2,0.6,0.6,1,1.2,1.3s1.3,0.4,2,0.4c0.7,0,1.3-0.1,1.8-0.3
			s0.8-0.5,0.8-0.9c0-0.3-0.2-0.5-0.5-0.7s-0.9-0.4-1.6-0.5l-2.4-0.4c-1.3-0.2-2.4-0.7-3.2-1.3c-0.8-0.7-1.2-1.6-1.2-2.7
			c0-0.9,0.3-1.7,0.9-2.4s1.3-1.1,2.3-1.4c0.9-0.3,2-0.5,3.1-0.5c1.3,0,2.5,0.2,3.6,0.7c1.1,0.5,1.9,1.2,2.4,2.3l-3.5,1.3
			c-0.1-0.5-0.4-0.8-0.9-1c-0.5-0.2-1-0.3-1.6-0.3c-1.5,0-2.2,0.4-2.2,1.1c0,0.3,0.1,0.5,0.4,0.7c0.3,0.2,0.7,0.3,1.3,0.4l2.5,0.5
			c1.6,0.3,2.9,0.7,3.6,1.3c0.8,0.6,1.2,1.4,1.2,2.5c0,1.1-0.3,1.9-0.9,2.7c-0.6,0.7-1.4,1.2-2.4,1.6
			C196.3,56.5,195.2,56.7,194,56.7z"/>
		<path d="M208.5,56.3c-1.1,0-2-0.1-2.7-0.3c-0.7-0.2-1.1-0.6-1.4-1.1c-0.3-0.6-0.4-1.4-0.4-2.4v-6.6h-2.2v-3.2h2.2v-3.4h4.2v3.4h3
			v3.2h-3v5.5c0,0.6,0.1,1.1,0.4,1.2c0.2,0.2,0.7,0.3,1.4,0.3h1.2v3.4H208.5z"/>
		<path d="M219.8,56.7c-1.5,0-2.8-0.3-3.9-0.9s-2-1.4-2.6-2.5c-0.6-1.1-0.9-2.4-0.9-3.9c0-1.4,0.3-2.7,1-3.8
			c0.7-1.1,1.6-1.9,2.7-2.5c1.1-0.6,2.3-0.9,3.6-0.9c1.5,0,2.8,0.4,3.8,1.1s1.9,1.7,2.4,2.9c0.5,1.2,0.8,2.7,0.7,4.3h-10.1
			c0.1,1,0.4,1.7,1.1,2.1c0.6,0.5,1.3,0.7,2.1,0.7c0.6,0,1.2-0.1,1.7-0.3c0.5-0.2,0.8-0.4,1.1-0.7l3.3,1.2c-0.7,1-1.6,1.8-2.7,2.3
			S221,56.7,219.8,56.7z M216.6,48.1h6.2c0-0.9-0.3-1.5-0.9-2c-0.6-0.4-1.3-0.7-2.1-0.7c-0.8,0-1.5,0.2-2.1,0.6
			C217.1,46.5,216.7,47.2,216.6,48.1z"/>
		<path d="M228.6,56.3V42.8h3.6l0.5,1.8c0.3-0.5,0.8-1,1.5-1.5c0.7-0.5,1.6-0.7,2.6-0.7c1.1,0,1.9,0.2,2.6,0.6
			c0.6,0.4,1.1,1,1.4,1.7c0.5-0.7,1.2-1.3,2-1.7c0.8-0.4,1.7-0.6,2.6-0.6c1.7,0,2.9,0.5,3.6,1.5c0.7,1,1,2.4,1,4.2v8.3H246v-7.2
			c0-0.6,0-1.2-0.1-1.8c-0.1-0.5-0.3-1-0.5-1.3c-0.3-0.3-0.8-0.5-1.5-0.5c-0.8,0-1.5,0.3-1.8,0.9c-0.4,0.6-0.6,1.5-0.6,2.7v7.2h-4.2
			v-7.2c0-0.6,0-1.2-0.1-1.8c-0.1-0.5-0.2-1-0.5-1.3c-0.3-0.3-0.8-0.5-1.4-0.5c-0.9,0-1.5,0.3-1.9,0.9c-0.4,0.6-0.6,1.5-0.6,2.7v7.1
			H228.6z"/>
	</g>
	<g class="st1">
		<path d="M100.1,89.6c-1.9,0-3.5-0.4-4.9-1.2c-1.4-0.8-2.5-1.9-3.3-3.3s-1.2-3.1-1.2-5c0-1.9,0.4-3.6,1.2-5s1.9-2.5,3.3-3.3
			c1.4-0.8,3.1-1.2,4.9-1.2c1.9,0,3.5,0.4,5,1.2c1.4,0.8,2.5,1.9,3.4,3.3c0.8,1.4,1.2,3.1,1.2,5c0,1.9-0.4,3.6-1.2,5
			c-0.8,1.4-1.9,2.5-3.4,3.3C103.6,89.2,102,89.6,100.1,89.6z M100.1,86c0.9,0,1.7-0.2,2.5-0.7c0.7-0.4,1.3-1.1,1.8-2
			c0.4-0.9,0.7-2,0.7-3.3c0-1.3-0.2-2.4-0.7-3.3s-1-1.5-1.8-2c-0.7-0.4-1.6-0.7-2.5-0.7c-0.9,0-1.7,0.2-2.4,0.7
			c-0.7,0.4-1.3,1.1-1.8,2c-0.4,0.9-0.7,2-0.7,3.3c0,1.3,0.2,2.4,0.7,3.3c0.4,0.9,1,1.5,1.8,2C98.4,85.8,99.2,86,100.1,86z"/>
		<path d="M115.5,89.2l-4.8-13.6h4.3l2.9,9.3l2.9-9.3h4.3l-4.9,13.6H115.5z"/>
		<path d="M132.9,89.6c-1.5,0-2.8-0.3-3.9-0.9c-1.1-0.6-2-1.4-2.6-2.5c-0.6-1.1-0.9-2.4-0.9-3.9c0-1.4,0.3-2.7,1-3.8
			c0.7-1.1,1.6-1.9,2.7-2.5c1.1-0.6,2.3-0.9,3.6-0.9c1.5,0,2.8,0.4,3.8,1.1s1.9,1.7,2.4,2.9c0.5,1.2,0.8,2.7,0.7,4.3h-10.1
			c0.1,1,0.4,1.7,1.1,2.1c0.6,0.5,1.3,0.7,2.1,0.7c0.6,0,1.2-0.1,1.7-0.3s0.8-0.4,1.1-0.7l3.3,1.2c-0.7,1-1.6,1.8-2.7,2.3
			S134,89.6,132.9,89.6z M129.6,81h6.2c0-0.9-0.3-1.5-0.9-2c-0.6-0.4-1.3-0.7-2.1-0.7c-0.8,0-1.5,0.2-2.1,0.6
			C130.1,79.4,129.7,80.1,129.6,81z"/>
		<path d="M141.6,89.2V75.7h3.3l0.7,2.5c0.4-1.1,1-1.9,1.7-2.3s1.6-0.6,2.7-0.6v4.2c-0.2,0-0.4-0.1-0.6-0.1c-0.2,0-0.3,0-0.5,0
			c-1,0-1.8,0.2-2.3,0.7c-0.5,0.5-0.8,1.3-0.8,2.3v6.8H141.6z"/>
		<path d="M156,89.2l-4.8-13.6h4.3l2.9,9.3l2.9-9.3h4.3l-4.9,13.6H156z"/>
		<path d="M169.3,89.2V78.8h-2.6v-3.2h6.8v13.6H169.3z M171.4,73.4c-0.7,0-1.3-0.2-1.7-0.7c-0.5-0.5-0.7-1.1-0.7-1.7
			c0-0.7,0.2-1.3,0.7-1.8c0.5-0.5,1.1-0.7,1.7-0.7c0.7,0,1.3,0.2,1.8,0.7c0.5,0.5,0.7,1.1,0.7,1.8c0,0.7-0.2,1.3-0.7,1.7
			C172.6,73.2,172.1,73.4,171.4,73.4z"/>
		<path d="M182.8,89.6c-1.5,0-2.8-0.3-3.9-0.9c-1.1-0.6-2-1.4-2.6-2.5c-0.6-1.1-0.9-2.4-0.9-3.9c0-1.4,0.3-2.7,1-3.8
			c0.7-1.1,1.6-1.9,2.7-2.5c1.1-0.6,2.3-0.9,3.6-0.9c1.5,0,2.8,0.4,3.8,1.1s1.9,1.7,2.4,2.9c0.5,1.2,0.8,2.7,0.7,4.3h-10.1
			c0.1,1,0.4,1.7,1.1,2.1c0.6,0.5,1.3,0.7,2.1,0.7c0.6,0,1.2-0.1,1.7-0.3s0.8-0.4,1.1-0.7l3.3,1.2c-0.7,1-1.6,1.8-2.7,2.3
			S183.9,89.6,182.8,89.6z M179.5,81h6.2c0-0.9-0.3-1.5-0.9-2c-0.6-0.4-1.3-0.7-2.1-0.7c-0.8,0-1.5,0.2-2.1,0.6
			C180,79.4,179.6,80.1,179.5,81z"/>
		<path d="M193.6,89.2l-3.4-13.6h4.1l2.1,9.2l1.8-9.2h3.9l1.8,9.2l2.1-9.2h4.1l-3.4,13.6H202l-2-9.8l-1.9,9.8H193.6z"/>
	</g>
</g>
<path class="st2" d="M76.4,158.3c1.9,1.1,4.7,2.2,7.5,1.6c4.3-1,4.2-5.1,9.4-9.1c5.9-4.6,9.7-2.3,13.6-6.8c3.1-3.6,3.3-8,3.3-9.9
	c0.2-5.9-2.5-10.2-3.6-11.7"/>
<path class="st2" d="M72.9,172.9c1.2-0.2,6.2-0.8,10.7,2.7c3.9,3,5,7.4,5.2,8.4c1,4.4-1,5.5,0,10.3c0.8,4.2,3.1,7.1,3.9,8.1
	c3.7,4.7,6.5,3.9,8.4,7.9c1.2,2.7,1,5.3,0.8,7.9c-0.4,4.6-1.8,4.8-2.3,9.2c-0.6,5.2,1.1,6.6,0,9.8c-0.7,1.9-2.3,4.2-6.5,6.2"/>
<path class="st2" d="M171.5,111.6c-2.2,2.2-4.6,5.3-4.6,9.1c0,4.4,3.2,6.4,2.1,8.6c-1.1,2.2-4.8,1-12.8,3.9
	c-4.2,1.5-5.4,2.6-5.9,3.9c-0.8,2.2,0.8,3.4,0,5.7c-0.7,2-2.1,1.9-5.4,5.2c-2.2,2.2-3.3,3.4-3.1,4.4c0.5,2.8,9.2,3.3,10.8,3.4
	c6.7,0.4,8.4-1.2,14.1,0c4.6,1,6.2,2.6,6.7,3.1c1.9,2.1,3.2,5.9,1.8,8.6c-0.7,1.3-1.9,2.4-4.4,3.1c-6.1,2-10.8-0.7-18.8-2.6
	c-7.9-1.9-12.7-3.1-18-1.6c-5.8,1.7-11.6,6.3-14.1,13c-0.6,1.6-3.5,9.1,0.3,15.9c3.5,6.3,11.1,9.3,17,9.1c4.4-0.1,6.1-2,9.2-0.5
	c3.4,1.5,5.5,5.6,6.2,8.9c0.5,2.4-0.2,2.8,0.3,6c0.5,3.5,1.5,4.4,2.3,7.3c1.7,6.2-1.1,8,0.5,12.5c1.1,3,3.8,6.2,7.2,7
	c7.1,1.8,16.2-7.4,18.2-16.4c1.1-4.6-0.7-4.7,0.5-9.9c1.7-7,6.5-13.9,8.7-17c2.1-3,4.1-5.4,3.3-6.8c-0.6-1-2-0.5-4.4-1
	c-4.3-1-8.4-4.9-9-9.1c-0.1-0.4-0.5-3.9,1.5-5.5c1.7-1.3,4.4-0.7,5.9-0.3c3,0.8,3.5,2,5.4,1.8c1.6-0.2,3.4-1.3,3.9-2.9
	c0.5-1.6-0.8-2.4-1.3-5c-0.4-2.1-0.4-5.8,1.5-7c2.4-1.6,6.6,1.1,7.7,1.8c2.7,1.7,2.5,2.8,4.1,3.1c3.2,0.7,4.9-3.4,9-3.9
	c1.7-0.2,4.2,0.2,7.5,2.9"/>
<path class="st2" d="M114.2,259.4c3.1-1.5,14.1-6.3,28.3-3.9c12.7,2.1,20.4,8.8,23,11.2"/>
<ellipse class="st2" cx="148.7" cy="188.1" rx="78.5" ry="80.5"/>
</svg>
