<?xml version="1.0" encoding="utf-8"?>
<!-- Generator: Adobe Illustrator 22.0.1, SVG Export Plug-In . SVG Version: 6.00 Build 0)  -->
<svg version="1.1" id="Layer_1" xmlns="http://www.w3.org/2000/svg" xmlns:xlink="http://www.w3.org/1999/xlink" x="0px" y="0px"
	 viewBox="0 0 300 300" style="enable-background:new 0 0 300 300;" xml:space="preserve">
<style type="text/css">
	.st0{fill:#E99668;}
	.st1{font-family:'Arial-BoldMT';}
	.st2{font-size:27.3951px;}
	.st3{fill:none;stroke:#231F20;stroke-width:2.5;stroke-miterlimit:10;}
</style>
<rect x="11.7" y="15.3" class="st0" width="276.5" height="268.2"/>
<g>
	<text transform="matrix(1 0 0 1 46.5769 56.3438)" class="st1 st2">Climate System</text>
	<text transform="matrix(1 0 0 1 89.6769 89.2438)" class="st1 st2">Overview</text>
</g>
<path class="st3" d="M76.4,158.3c1.9,1.1,4.7,2.2,7.5,1.6c4.3-1,4.2-5.1,9.4-9.1c5.9-4.6,9.7-2.3,13.6-6.8c3.1-3.6,3.3-8,3.3-9.9
	c0.2-5.9-2.5-10.2-3.6-11.7"/>
<path class="st3" d="M72.9,172.9c1.2-0.2,6.2-0.8,10.7,2.7c3.9,3,5,7.4,5.2,8.4c1,4.4-1,5.5,0,10.3c0.8,4.2,3.1,7.1,3.9,8.1
	c3.7,4.7,6.5,3.9,8.4,7.9c1.2,2.7,1,5.3,0.8,7.9c-0.4,4.6-1.8,4.8-2.3,9.2c-0.6,5.2,1.1,6.6,0,9.8c-0.7,1.9-2.3,4.2-6.5,6.2"/>
<path class="st3" d="M171.5,111.6c-2.2,2.2-4.6,5.3-4.6,9.1c0,4.4,3.2,6.4,2.1,8.6c-1.1,2.2-4.8,1-12.8,3.9
	c-4.2,1.5-5.4,2.6-5.9,3.9c-0.8,2.2,0.8,3.4,0,5.7c-0.7,2-2.1,1.9-5.4,5.2c-2.2,2.2-3.3,3.4-3.1,4.4c0.5,2.8,9.2,3.3,10.8,3.4
	c6.7,0.4,8.4-1.2,14.1,0c4.6,1,6.2,2.6,6.7,3.1c1.9,2.1,3.2,5.9,1.8,8.6c-0.7,1.3-1.9,2.4-4.4,3.1c-6.1,2-10.8-0.7-18.8-2.6
	c-7.9-1.9-12.7-3.1-18-1.6c-5.8,1.7-11.6,6.3-14.1,13c-0.6,1.6-3.5,9.1,0.3,15.9c3.5,6.3,11.1,9.3,17,9.1c4.4-0.1,6.1-2,9.2-0.5
	c3.4,1.5,5.5,5.6,6.2,8.9c0.5,2.4-0.2,2.8,0.3,6c0.5,3.5,1.5,4.4,2.3,7.3c1.7,6.2-1.1,8,0.5,12.5c1.1,3,3.8,6.2,7.2,7
	c7.1,1.8,16.2-7.4,18.2-16.4c1.1-4.6-0.7-4.7,0.5-9.9c1.7-7,6.5-13.9,8.7-17c2.1-3,4.1-5.4,3.3-6.8c-0.6-1-2-0.5-4.4-1
	c-4.3-1-8.4-4.9-9-9.1c-0.1-0.4-0.5-3.9,1.5-5.5c1.7-1.3,4.4-0.7,5.9-0.3c3,0.8,3.5,2,5.4,1.8c1.6-0.2,3.4-1.3,3.9-2.9
	c0.5-1.6-0.8-2.4-1.3-5c-0.4-2.1-0.4-5.8,1.5-7c2.4-1.6,6.6,1.1,7.7,1.8c2.7,1.7,2.5,2.8,4.1,3.1c3.2,0.7,4.9-3.4,9-3.9
	c1.7-0.2,4.2,0.2,7.5,2.9"/>
<path class="st3" d="M114.2,259.4c3.1-1.5,14.1-6.3,28.3-3.9c12.7,2.1,20.4,8.8,23,11.2"/>
<ellipse class="st3" cx="148.7" cy="188.1" rx="78.5" ry="80.5"/>
</svg>
