<?xml version="1.0" encoding="utf-8"?>
<!-- Generator: Adobe Illustrator 22.0.1, SVG Export Plug-In . SVG Version: 6.00 Build 0)  -->
<svg version="1.1" id="Layer_1" xmlns="http://www.w3.org/2000/svg" xmlns:xlink="http://www.w3.org/1999/xlink" x="0px" y="0px"
	 viewBox="0 0 300 300" style="enable-background:new 0 0 300 300;" xml:space="preserve">
<style type="text/css">
	.st0{fill:#F4C690;}
	.st1{font-family:'AtkinsonHyperlegible-Bold';}
	.st2{font-size:27.3951px;}
	.st3{fill:none;stroke:#000000;stroke-width:3;stroke-miterlimit:10;}
</style>
<rect x="11.4" y="15.9" class="st0" width="277.2" height="268.2"/>
<g>
	<text transform="matrix(1 0 0 1 24.3554 56.5874)"><tspan x="0" y="0" class="st1 st2">Ocean-Atmosphere </tspan><tspan x="58.8" y="32.9" class="st1 st2">Reanalysis</tspan></text>
</g>
<g>
	<path class="st3" d="M86.2,211.4c5.7-4.2,11.9-7.1,17.9-6.9c8.7,0.3,11.3,6.9,19.4,6.9c8.2,0,11.2-6.9,19.2-6.9
		c8,0,10.7,6.9,18.8,6.9c8.2,0,11.3-6.9,19.5-6.9c8,0,10.3,6.7,18.9,7c4.3,0.2,10.3-1.2,18.6-7.3"/>
	<path class="st3" d="M85.2,255.8c5.7-4.2,11.9-7.1,17.9-6.9c8.7,0.3,11.3,6.9,19.4,6.9c8.2,0,11.2-6.9,19.2-6.9
		c8,0,10.7,6.9,18.8,6.9c8.2,0,11.3-6.9,19.5-6.9c8,0,10.3,6.7,18.9,7c4.3,0.2,10.3-1.2,18.6-7.3"/>
	<path class="st3" d="M85.2,233.6c5.7-4.2,11.9-7.1,17.9-6.9c8.7,0.3,11.3,6.9,19.4,6.9c8.2,0,11.2-6.9,19.2-6.9
		c8,0,10.7,6.9,18.8,6.9c8.2,0,11.3-6.9,19.5-6.9c8,0,10.3,6.7,18.9,7c4.3,0.2,10.3-1.2,18.6-7.3"/>
	<path class="st3" d="M147.4,134.3c0.5-1.3,1.2-3.1,2.4-5c0.9-1.5,4.5-7.1,11.7-9.9c1.5-0.6,9.1-3.4,17.7,0
		c10.8,4.3,14.1,14.9,14.5,16.3l1.1,5.7c1.3,0.1,3.2,0.3,5.3,1.1c7.3,3,10,10.6,10.4,12.2c2.1,6.6,0.1,12.2-0.6,14.3
		c-0.7,2-1.6,4.4-3.9,6.7c-4,4.1-9.2,4.6-11.1,4.7c-2.3,0.1-4.2-0.3-5.5-0.7l-2.9-1.2c-0.4,0.8-1.1,1.8-2.1,2.9
		c-5.2,5.9-12.6,6.3-13.7,6.3c-1,0-5.6,0.2-10.4-2.5c-1.5-0.8-2.7-1.7-3.5-2.4l-0.7-0.5c-0.8,0.7-1.9,1.6-3.4,2.5
		c-7.6,4.5-15.6,3-17.8,2.6c-5.9-1.2-10.2-4.1-12.5-5.9c-1,0.6-2.5,1.4-4.5,1.8c-6.3,1.5-14-1-18.2-6.8c-2.7-3.7-3.1-7.6-3.1-9
		c-0.1-1.9,0-5.1,1.7-8.5c0.6-1.2,3-5.8,8.5-8.1c4.4-1.8,8.3-1.3,9.8-0.9l1.8,0.5c0.2-1.2,0.6-2.9,1.4-4.8c2.4-5.6,6.8-8.5,8.1-9.3
		c1.4-0.9,4.7-3,9.5-3.3c3.3-0.2,6,0.5,7.6,1L147.4,134.3z"/>
	<path class="st3" d="M96.6,170.4c-1.1,0.1-2.7,0.2-4.7-0.2c-0.9-0.2-6-1.3-9.2-6.3c-0.6-1-2.3-3.7-2.1-7.6c0.2-4.8,3.1-7.9,4.1-8.9
		c4.5-4.4,10.5-3.8,11.3-3.7l1.5,0.2c0.1-0.9,0.4-2.1,0.9-3.6c2.1-5.4,7.5-9.9,13.8-10.7c3.9-0.5,7,0.6,8.9,1.4
		c0.5-1.4,1.4-3.3,2.9-5.3c1.2-1.6,4.7-6.2,10.9-7.9c0.5-0.1,8.3-2.2,15.5,2.5c1.7,1.1,2.9,2.2,3.7,3.1"/>
</g>
</svg>
