<?xml version="1.0" encoding="utf-8"?>
<!-- Generator: Adobe Illustrator 22.0.1, SVG Export Plug-In . SVG Version: 6.00 Build 0)  -->
<svg version="1.1" id="Layer_1" xmlns="http://www.w3.org/2000/svg" xmlns:xlink="http://www.w3.org/1999/xlink" x="0px" y="0px"
	 viewBox="0 0 300 300" style="enable-background:new 0 0 300 300;" xml:space="preserve">
<style type="text/css">
	.st0{fill:#F4C690;}
	.st1{enable-background:new    ;}
	.st2{fill:none;stroke:#231F20;stroke-width:2.5;stroke-miterlimit:10;}
</style>
<rect x="11.4" y="13" class="st0" width="277.2" height="268.2"/>
<g>
	<g class="st1">
		<path d="M46.8,64.8V46.5h7c1.6,0,3,0.2,4.3,0.5s2.2,0.9,3,1.7s1.1,2,1.1,3.5c0,0.7-0.1,1.4-0.4,2.1c-0.3,0.7-0.7,1.3-1.3,1.9
			c-0.6,0.6-1.5,1-2.7,1.3l5.3,7.4h-5l-5-6.9h-1.9v6.9H46.8z M51.2,54.3H54c1,0,1.9-0.1,2.6-0.4s1-0.8,1-1.7c0-0.9-0.3-1.4-1-1.7
			S55,50.2,54,50.2h-2.8V54.3z"/>
		<path d="M71.7,65.1c-1.5,0-2.8-0.3-3.9-0.9c-1.1-0.6-2-1.4-2.6-2.5c-0.6-1.1-0.9-2.4-0.9-3.9c0-1.4,0.3-2.7,1-3.8
			c0.7-1.1,1.6-1.9,2.7-2.5c1.1-0.6,2.3-0.9,3.6-0.9c1.5,0,2.8,0.4,3.8,1.1s1.9,1.7,2.4,2.9c0.5,1.2,0.8,2.7,0.7,4.3H68.4
			c0.1,1,0.4,1.7,1.1,2.1c0.6,0.5,1.3,0.7,2.1,0.7c0.6,0,1.2-0.1,1.7-0.3s0.8-0.4,1.1-0.7l3.3,1.2c-0.7,1-1.6,1.8-2.7,2.3
			S72.8,65.1,71.7,65.1z M68.4,56.6h6.2c0-0.9-0.3-1.5-0.9-2c-0.6-0.4-1.3-0.7-2.1-0.7c-0.8,0-1.5,0.2-2.1,0.6
			C68.9,55,68.5,55.7,68.4,56.6z"/>
		<path d="M80.4,64.8V51.2h3.6l0.5,1.8c0.3-0.5,0.8-1,1.5-1.5c0.7-0.5,1.6-0.7,2.6-0.7c1.1,0,1.9,0.2,2.6,0.6c0.6,0.4,1.1,1,1.4,1.7
			c0.5-0.7,1.2-1.3,2-1.7c0.8-0.4,1.7-0.6,2.6-0.6c1.7,0,2.9,0.5,3.6,1.5c0.7,1,1,2.4,1,4.2v8.3h-4.2v-7.2c0-0.6,0-1.2-0.1-1.8
			c-0.1-0.5-0.3-1-0.5-1.3c-0.3-0.3-0.8-0.5-1.5-0.5c-0.8,0-1.5,0.3-1.8,0.9c-0.4,0.6-0.6,1.5-0.6,2.7v7.2h-4.2v-7.2
			c0-0.6,0-1.2-0.1-1.8s-0.2-1-0.5-1.3c-0.3-0.3-0.8-0.5-1.4-0.5c-0.9,0-1.5,0.3-1.9,0.9c-0.4,0.6-0.6,1.5-0.6,2.7v7.1H80.4z"/>
		<path d="M111,65.1c-1.3,0-2.4-0.3-3.5-0.8c-1.1-0.5-2-1.3-2.7-2.4s-1-2.4-1-4c0-1.6,0.3-3,1-4c0.7-1,1.6-1.8,2.7-2.3
			c1.1-0.5,2.3-0.8,3.5-0.8c1.2,0,2.4,0.3,3.5,0.8c1.1,0.5,2,1.3,2.7,2.3c0.7,1.1,1,2.4,1,4c0,1.6-0.3,3-1,4
			c-0.7,1.1-1.6,1.9-2.7,2.4C113.4,64.9,112.2,65.1,111,65.1z M111,61.9c0.8,0,1.5-0.3,2.1-0.9s0.8-1.6,0.8-3c0-1.4-0.3-2.5-0.9-3
			s-1.3-0.9-2.1-0.9c-0.8,0-1.5,0.3-2.1,0.9s-0.9,1.6-0.9,3c0,1.4,0.3,2.4,0.8,3C109.4,61.6,110.1,61.9,111,61.9z"/>
		<path d="M125.9,64.8c-1.1,0-2-0.1-2.7-0.3c-0.7-0.2-1.1-0.6-1.4-1.1c-0.3-0.6-0.4-1.4-0.4-2.4v-6.6h-2.2v-3.2h2.2v-3.4h4.2v3.4h3
			v3.2h-3v5.5c0,0.6,0.1,1.1,0.4,1.2s0.7,0.3,1.4,0.3h1.2v3.4H125.9z"/>
		<path d="M137.3,65.1c-1.5,0-2.8-0.3-3.9-0.9c-1.1-0.6-2-1.4-2.6-2.5c-0.6-1.1-0.9-2.4-0.9-3.9c0-1.4,0.3-2.7,1-3.8
			c0.7-1.1,1.6-1.9,2.7-2.5c1.1-0.6,2.3-0.9,3.6-0.9c1.5,0,2.8,0.4,3.8,1.1s1.9,1.7,2.4,2.9c0.5,1.2,0.8,2.7,0.7,4.3H134
			c0.1,1,0.4,1.7,1.1,2.1c0.6,0.5,1.3,0.7,2.1,0.7c0.6,0,1.2-0.1,1.7-0.3s0.8-0.4,1.1-0.7l3.3,1.2c-0.7,1-1.6,1.8-2.7,2.3
			S138.4,65.1,137.3,65.1z M134,56.6h6.2c0-0.9-0.3-1.5-0.9-2c-0.6-0.4-1.3-0.7-2.1-0.7c-0.8,0-1.5,0.2-2.1,0.6
			C134.5,55,134.2,55.7,134,56.6z"/>
		<path d="M162.1,65.1c-2,0-3.7-0.4-5-1.2c-1.4-0.8-2.3-1.9-2.9-3.4l3.9-1.4c0.3,0.9,0.7,1.5,1.4,1.9s1.6,0.6,2.6,0.6
			c0.5,0,1-0.1,1.5-0.2c0.5-0.1,0.9-0.3,1.2-0.6c0.3-0.3,0.5-0.7,0.5-1.1c0-0.6-0.3-1.1-0.9-1.5c-0.6-0.4-1.4-0.6-2.4-0.8l-2.2-0.4
			c-1-0.2-1.9-0.5-2.8-0.9c-0.8-0.4-1.5-1-2-1.6c-0.5-0.7-0.8-1.5-0.8-2.6c0-1,0.2-1.8,0.7-2.5c0.5-0.7,1.1-1.3,1.8-1.8
			c0.8-0.5,1.6-0.8,2.5-1c0.9-0.2,1.8-0.3,2.7-0.3c1,0,1.9,0.1,2.9,0.4c0.9,0.3,1.7,0.7,2.5,1.3c0.7,0.6,1.3,1.3,1.7,2.3l-3.9,1.4
			c-0.2-0.6-0.7-1.1-1.3-1.4c-0.6-0.3-1.3-0.5-2.2-0.5c-0.8,0-1.5,0.2-2.1,0.5c-0.6,0.3-0.8,0.7-0.8,1.3c0,0.5,0.2,0.8,0.6,1.2
			c0.4,0.3,0.9,0.6,1.5,0.7l2.5,0.5c0.7,0.1,1.5,0.3,2.3,0.6c0.8,0.2,1.5,0.5,2.1,0.9s1.2,0.9,1.6,1.5c0.4,0.6,0.6,1.4,0.6,2.4
			c0,1-0.2,1.8-0.7,2.6c-0.4,0.8-1,1.4-1.8,1.9c-0.7,0.5-1.6,0.9-2.5,1.2C163.9,65,163,65.1,162.1,65.1z"/>
		<path d="M178.5,65.1c-1.5,0-2.8-0.3-3.9-0.9c-1.1-0.6-2-1.4-2.6-2.5c-0.6-1.1-0.9-2.4-0.9-3.9c0-1.4,0.3-2.7,1-3.8
			c0.7-1.1,1.6-1.9,2.7-2.5c1.1-0.6,2.3-0.9,3.6-0.9c1.5,0,2.8,0.4,3.8,1.1s1.9,1.7,2.4,2.9c0.5,1.2,0.8,2.7,0.7,4.3h-10.1
			c0.1,1,0.4,1.7,1.1,2.1c0.6,0.5,1.3,0.7,2.1,0.7c0.6,0,1.2-0.1,1.7-0.3s0.8-0.4,1.1-0.7l3.3,1.2c-0.7,1-1.6,1.8-2.7,2.3
			S179.6,65.1,178.5,65.1z M175.3,56.6h6.2c0-0.9-0.3-1.5-0.9-2c-0.6-0.4-1.3-0.7-2.1-0.7c-0.8,0-1.5,0.2-2.1,0.6
			C175.8,55,175.4,55.7,175.3,56.6z"/>
		<path d="M187.3,64.8V51.2h3.6l0.5,1.8c0.3-0.5,0.8-1,1.5-1.5c0.7-0.5,1.6-0.7,2.6-0.7c1.8,0,3,0.5,3.6,1.5c0.6,1,1,2.4,1,4.2v8.3
			h-4.2v-7.2c0-0.6,0-1.2-0.1-1.8c-0.1-0.5-0.2-1-0.5-1.3c-0.3-0.3-0.8-0.5-1.4-0.5c-0.9,0-1.5,0.3-1.9,0.9
			c-0.4,0.6-0.6,1.6-0.6,2.8v7H187.3z"/>
		<path d="M208.8,65.1c-1.6,0-3-0.3-4.1-0.9c-1.2-0.6-2-1.4-2.5-2.6l3.5-1.3c0.2,0.6,0.6,1,1.2,1.3s1.3,0.4,2,0.4
			c0.7,0,1.3-0.1,1.8-0.3s0.8-0.5,0.8-0.9c0-0.3-0.2-0.5-0.5-0.7s-0.9-0.4-1.6-0.5l-2.4-0.4c-1.3-0.2-2.4-0.7-3.2-1.3
			c-0.8-0.7-1.2-1.6-1.2-2.7c0-0.9,0.3-1.7,0.9-2.4s1.3-1.1,2.3-1.4c0.9-0.3,2-0.5,3.1-0.5c1.3,0,2.5,0.2,3.6,0.7
			c1.1,0.5,1.9,1.2,2.4,2.3l-3.5,1.3c-0.1-0.5-0.4-0.8-0.9-1c-0.5-0.2-1-0.3-1.6-0.3c-1.5,0-2.2,0.4-2.2,1.1c0,0.3,0.1,0.5,0.4,0.7
			c0.3,0.2,0.7,0.3,1.3,0.4l2.5,0.5c1.6,0.3,2.9,0.7,3.6,1.3c0.8,0.6,1.2,1.4,1.2,2.5c0,1.1-0.3,1.9-0.9,2.7
			c-0.6,0.7-1.4,1.2-2.4,1.6C211.2,65,210.1,65.1,208.8,65.1z"/>
		<path d="M219.1,64.8V54.4h-2.6v-3.2h6.8v13.6H219.1z M221.2,49c-0.7,0-1.3-0.2-1.7-0.7c-0.5-0.5-0.7-1.1-0.7-1.7
			c0-0.7,0.2-1.3,0.7-1.8c0.5-0.5,1.1-0.7,1.7-0.7c0.7,0,1.3,0.2,1.8,0.7c0.5,0.5,0.7,1.1,0.7,1.8c0,0.7-0.2,1.3-0.7,1.7
			C222.5,48.7,221.9,49,221.2,49z"/>
		<path d="M225.9,64.8V51.2h3.6l0.5,1.8c0.3-0.5,0.8-1,1.5-1.5c0.7-0.5,1.6-0.7,2.6-0.7c1.8,0,3,0.5,3.6,1.5c0.6,1,1,2.4,1,4.2v8.3
			h-4.2v-7.2c0-0.6,0-1.2-0.1-1.8s-0.3-1-0.5-1.3c-0.3-0.3-0.8-0.5-1.4-0.5c-0.9,0-1.5,0.3-1.9,0.9c-0.4,0.6-0.6,1.6-0.6,2.8v7
			H225.9z"/>
		<path d="M248.2,70.4c-0.7,0-1.5-0.1-2.3-0.3c-0.8-0.2-1.5-0.5-2.1-1s-1.2-1.1-1.6-1.9l3.4-1.2c0.3,0.5,0.6,0.8,1.1,1
			c0.5,0.2,1,0.3,1.4,0.3c0.9,0,1.6-0.2,2.1-0.6c0.5-0.4,0.8-1.1,0.8-2v-2.4c-0.6,0.7-1.3,1.3-2,1.6c-0.8,0.3-1.5,0.5-2.3,0.5
			c-1,0-1.9-0.3-2.8-0.8c-0.9-0.5-1.6-1.3-2.2-2.3c-0.6-1-0.8-2.2-0.8-3.5c0-1.6,0.3-2.9,0.8-3.9c0.6-1,1.3-1.8,2.2-2.3
			c0.9-0.5,1.8-0.7,2.7-0.7c0.9,0,1.7,0.2,2.5,0.6s1.4,1,2,1.7l0.5-1.9h3.6v12.6c0,2.3-0.6,3.9-1.8,5
			C252.1,69.8,250.4,70.4,248.2,70.4z M248.2,61.1c0.5,0,1-0.1,1.5-0.3s0.8-0.6,1.1-1.1c0.3-0.5,0.4-1.2,0.4-2.1
			c0-1.3-0.3-2.3-0.9-2.8c-0.6-0.5-1.3-0.8-2.1-0.8c-0.8,0-1.5,0.3-2.1,0.8s-0.9,1.4-0.9,2.6c0,1.2,0.3,2.1,0.9,2.7
			C246.7,60.8,247.4,61.1,248.2,61.1z"/>
	</g>
</g>
<g>
	<path class="st2" d="M203.8,111.6c-1.1-1.3-3-3.1-5.8-4.2c-5.9-2.2-11.3,0.6-12.3,1.2c-1.1,0.6-2,1.2-2.6,1.7L160,133.4"/>
	
		<rect x="167.3" y="111.6" transform="matrix(0.7071 -0.7071 0.7071 0.7071 -32.0066 154.8626)" class="st2" width="7.3" height="9"/>
	<path class="st2" d="M173.1,107.2l-11.7,11.7c-1.1,1.1-2.8,1.1-3.9,0l-13.8-13.8c-1.1-1.1-1.1-2.8,0-3.9l11.7-11.7
		c1.1-1.1,2.8-1.1,3.9,0l13.8,13.8C174.2,104.4,174.2,106.1,173.1,107.2z"/>
	<line class="st2" x1="149.7" y1="95.3" x2="167.6" y2="112.7"/>
	<line class="st2" x1="165.5" y1="95.7" x2="150" y2="111.8"/>
	<path class="st2" d="M156.1,160l-19.2-19.2c2-1.9,6.2-5.3,12.4-6.8c3.3-0.8,6.2-0.9,8.4-0.7"/>
</g>
<g>
	<path class="st2" d="M201.6,109.1c1.3,1.1,3.1,3,4.2,5.8c2.2,5.9-0.6,11.3-1.2,12.3c-0.6,1.1-1.2,2-1.7,2.6l-23.1,23.1"/>
	
		<rect x="193.3" y="137.4" transform="matrix(0.7071 -0.7071 0.7071 0.7071 -42.6432 180.8587)" class="st2" width="7.3" height="9"/>
	<path class="st2" d="M205.9,139.7l-11.7,11.7c-1.1,1.1-1.1,2.8,0,3.9l13.8,13.8c1.1,1.1,2.8,1.1,3.9,0l11.7-11.7
		c1.1-1.1,1.1-2.8,0-3.9l-13.8-13.8C208.7,138.7,207,138.7,205.9,139.7z"/>
	<line class="st2" x1="217.8" y1="163.2" x2="200.4" y2="145.2"/>
	<line class="st2" x1="217.5" y1="147.4" x2="201.3" y2="162.9"/>
	<path class="st2" d="M153.2,156.8l19.2,19.2c2-2.1,5.3-6.3,6.8-12.4c0.6-2.2,2.8-10.8-1.8-18.8c-4.3-7.6-13.3-12-23-11.7"/>
</g>
<path class="st2" d="M146.6,125.4c-5.2-1.4-13.9-3-24.2-1.2c-19,3.4-30.3,16-34.4,20.7c-2.9,3.4-9.3,10.9-12.9,22.7
	c-5.5,18.5,0,34.1,1.5,38c10.5,27.5,38,35.9,40.1,36.5c22.7,6.5,47.7-0.8,62.9-18c15.4-17.4,15.1-38.5,15-41.6
	c-0.3-8.6-2.4-15.5-4.2-20.1"/>
<line class="st2" x1="156.1" y1="160" x2="151.5" y2="164.7"/>
<circle class="st2" cx="147.3" cy="169" r="5.8"/>
<path class="st2" d="M134.9,165.7c0.1-0.8,0.5-3.3,2.7-5.4c1.8-1.8,3.9-2.2,4.7-2.4"/>
<path class="st2" d="M157.8,172.7c-0.1,0.8-0.5,3.3-2.7,5.4c-1.8,1.8-3.9,2.2-4.7,2.4"/>
<path class="st2" d="M95.7,231.1c1.2-1.5,3.4-4.6,3.6-8.7c0.1-1.4,0-4.2-3.2-9.6c-5.4-9.3-9.8-9.2-11.6-15.6
	c-0.3-1-1.8-6.5,1.3-10.8c2.7-3.8,7.2-4.2,7.8-4.3c3.7-0.3,5.7,1.7,10.7,4.5c6.5,3.7,11.3,6.3,16.4,6c6.7-0.4,6.8-5.7,14.7-7.5
	c6.5-1.4,15.2,0.1,18.2,5.7c1.4,2.7,1.8,7,0,10c-0.7,1.1-1.5,1.7-2.7,2.5c-8.1,5.7-11.3,6.2-13.7,10c-0.6,0.9-2.4,3.8-1.4,5.7
	c1.2,2.4,6.1,2.7,9.8,1.5c6.9-2.3,6.4-9.1,13.9-12.7c1.7-0.8,7.5-3.2,11.7-0.3c4.4,3.1,4.8,10.7,2.7,15.7c-1.8,4.4-5.5,6.5-6.5,7.1
	c-4.1,2.3-5.5,0.5-11.6,2.8c-2.6,1-6.3,2.5-8.8,6.3c-1.1,1.7-1.6,3.4-1.9,4.5"/>
<path class="st2" d="M98.7,133.4c3,2,5.6,2.7,7.5,2.9c3.8,0.4,5.9-0.8,9.5,0.6c1.4,0.5,3.1,1.2,4,2.9c0.9,1.9-0.1,3.3-1.6,8.4
	c-1.3,4.8-2,7.2-1.7,10.1c0.4,3.2,1.4,3.3,1.8,6.8c0.2,2,0.7,6.3-1.4,8.4c-2.1,2.1-5-1.1-12-1.3c-6.5-0.2-7.7,2.3-11.3,0.9
	c-3.6-1.5-5.3-5.2-7.6-10.3c-2.2-4.7-3.1-8.9-3.5-11.7"/>
<line class="st2" x1="207.9" y1="107.3" x2="203.4" y2="112"/>
</svg>
