<?xml version="1.0" encoding="utf-8"?>
<!-- Generator: Adobe Illustrator 22.0.1, SVG Export Plug-In . SVG Version: 6.00 Build 0)  -->
<svg version="1.1" id="Layer_1" xmlns="http://www.w3.org/2000/svg" xmlns:xlink="http://www.w3.org/1999/xlink" x="0px" y="0px"
	 viewBox="0 0 300 300" style="enable-background:new 0 0 300 300;" xml:space="preserve">
<style type="text/css">
	.st0{fill:#F4C690;}
	.st1{enable-background:new    ;}
	.st2{fill:none;stroke:#000000;stroke-width:2;stroke-miterlimit:10;}
	.st3{fill:none;stroke:#000000;stroke-width:0.75;stroke-miterlimit:10;}
	.st4{fill:none;stroke:#000000;stroke-width:0.25;stroke-miterlimit:10;}
	.st5{fill:none;stroke:#000000;stroke-width:0.5;stroke-miterlimit:10;}
	.st6{fill:none;stroke:#000000;stroke-miterlimit:10;}
</style>
<rect x="9.9" y="15.9" class="st0" width="277.2" height="268.2"/>
<g>
	<g class="st1">
		<path d="M64.9,67.8V49.5h7c1.6,0,3,0.2,4.3,0.5c1.3,0.3,2.2,0.9,3,1.8c0.7,0.9,1.1,2.1,1.1,3.7c0,1.6-0.4,2.8-1.1,3.7
			c-0.7,0.9-1.7,1.5-3,1.8c-1.3,0.3-2.7,0.5-4.3,0.5h-2.7v6.4H64.9z M69.2,57.8h2.8c0.7,0,1.3-0.1,1.8-0.2c0.5-0.1,1-0.4,1.3-0.7
			c0.3-0.3,0.5-0.8,0.5-1.5c0-0.6-0.2-1.1-0.5-1.5c-0.3-0.3-0.7-0.6-1.3-0.7c-0.5-0.1-1.1-0.2-1.8-0.2h-2.8V57.8z"/>
		<path d="M85.4,68.1c-0.9,0-1.6-0.2-2.4-0.5c-0.7-0.3-1.3-0.8-1.7-1.4c-0.4-0.6-0.6-1.3-0.6-2.1c0-1.1,0.4-2,1.2-2.7
			c0.8-0.7,1.8-1.2,3.2-1.5s2.9-0.6,4.7-0.7c0-1-0.2-1.7-0.5-2.1s-0.9-0.6-1.8-0.6c-0.6,0-1.1,0.1-1.5,0.4c-0.4,0.3-0.7,0.7-0.9,1.2
			L81.6,57c0.5-0.9,1.2-1.7,2.3-2.3s2.4-0.9,3.9-0.9c1.9,0,3.4,0.4,4.5,1.3s1.6,2.3,1.6,4.4v3c0,0.6,0,1.2,0.1,1.9
			c0,0.7,0.1,1.3,0.2,1.9c0.1,0.6,0.2,1.1,0.2,1.5h-3.9L90,66.1c-0.5,0.7-1.2,1.2-1.9,1.5C87.3,67.9,86.4,68.1,85.4,68.1z M87,65.2
			c0.8,0,1.5-0.2,2.1-0.7s0.8-1.3,0.8-2.5v-0.3c-1.4,0.1-2.6,0.3-3.5,0.6s-1.3,0.8-1.3,1.5c0,0.4,0.2,0.8,0.5,1.1
			C86,65.1,86.4,65.2,87,65.2z"/>
		<path d="M101.1,67.8c-1.1,0-2-0.1-2.7-0.3c-0.7-0.2-1.1-0.6-1.4-1.1c-0.3-0.6-0.4-1.4-0.4-2.4V49.5h4.2v13.4
			c0,0.6,0.1,1.1,0.4,1.2c0.3,0.2,0.7,0.3,1.4,0.3h1.2v3.4H101.1z"/>
		<path d="M112,68.1c-1.5,0-2.8-0.3-3.9-0.9c-1.1-0.6-2-1.4-2.6-2.5c-0.6-1.1-0.9-2.4-0.9-3.9c0-1.4,0.3-2.7,1-3.8
			c0.7-1.1,1.6-1.9,2.7-2.5c1.1-0.6,2.3-0.9,3.6-0.9c1.5,0,2.8,0.4,3.8,1.1s1.9,1.7,2.4,2.9c0.5,1.2,0.8,2.7,0.7,4.3h-10.1
			c0.1,1,0.4,1.7,1.1,2.1c0.6,0.5,1.3,0.7,2.1,0.7c0.6,0,1.2-0.1,1.7-0.3s0.8-0.4,1.1-0.7l3.3,1.2c-0.7,1-1.6,1.8-2.7,2.3
			S113.1,68.1,112,68.1z M108.7,59.5h6.2c0-0.9-0.3-1.5-0.9-2c-0.6-0.4-1.3-0.7-2.1-0.7c-0.8,0-1.5,0.2-2.1,0.6
			C109.2,57.9,108.8,58.6,108.7,59.5z"/>
		<path d="M127.2,68.1c-1.3,0-2.4-0.3-3.5-0.8c-1.1-0.5-2-1.3-2.7-2.4s-1-2.4-1-4c0-1.6,0.3-3,1-4c0.7-1,1.6-1.8,2.7-2.3
			c1.1-0.5,2.3-0.8,3.5-0.8c1.2,0,2.4,0.3,3.5,0.8c1.1,0.5,2,1.3,2.7,2.3c0.7,1.1,1,2.4,1,4c0,1.6-0.3,3-1,4
			c-0.7,1.1-1.6,1.9-2.7,2.4C129.6,67.8,128.5,68.1,127.2,68.1z M127.2,64.9c0.8,0,1.5-0.3,2.1-0.9s0.8-1.6,0.8-3
			c0-1.4-0.3-2.5-0.9-3S128,57,127.2,57c-0.8,0-1.5,0.3-2.1,0.9s-0.9,1.6-0.9,3c0,1.4,0.3,2.4,0.8,3
			C125.7,64.6,126.4,64.9,127.2,64.9z"/>
		<path d="M142.7,68.1c-1.5,0-2.8-0.3-3.8-0.9c-1-0.6-1.8-1.4-2.4-2.5c-0.5-1.1-0.8-2.3-0.8-3.8s0.3-2.7,0.9-3.7
			c0.6-1.1,1.4-1.9,2.5-2.5c1.1-0.6,2.3-0.9,3.6-0.9c0.8,0,1.6,0.1,2.3,0.3c0.8,0.2,1.5,0.6,2.2,1.1c0.7,0.5,1.2,1.2,1.6,2.1
			l-3.5,1.3c-0.2-0.6-0.5-1-1-1.2c-0.4-0.2-0.9-0.4-1.4-0.4c-0.5,0-1,0.1-1.4,0.4c-0.5,0.2-0.8,0.7-1.1,1.2
			c-0.3,0.6-0.4,1.3-0.4,2.3c0,1,0.1,1.8,0.4,2.3c0.3,0.6,0.7,1,1.1,1.2c0.4,0.2,0.9,0.4,1.4,0.4c0.6,0,1.1-0.1,1.5-0.3
			c0.4-0.2,0.7-0.5,1-0.9l3.4,1.2c-0.5,0.8-1,1.5-1.7,2c-0.7,0.5-1.4,0.8-2.2,1C144.1,68,143.4,68.1,142.7,68.1z"/>
		<path d="M155.2,67.8c-1.1,0-2-0.1-2.7-0.3c-0.7-0.2-1.1-0.6-1.4-1.1c-0.3-0.6-0.4-1.4-0.4-2.4V49.5h4.2v13.4
			c0,0.6,0.1,1.1,0.4,1.2c0.3,0.2,0.7,0.3,1.4,0.3h1.2v3.4H155.2z"/>
		<path d="M160.4,67.8V57.4h-2.6v-3.2h6.8v13.6H160.4z M162.5,51.9c-0.7,0-1.3-0.2-1.7-0.7c-0.5-0.5-0.7-1.1-0.7-1.7
			c0-0.7,0.2-1.3,0.7-1.8c0.5-0.5,1.1-0.7,1.7-0.7c0.7,0,1.3,0.2,1.8,0.7c0.5,0.5,0.7,1.1,0.7,1.8c0,0.7-0.2,1.3-0.7,1.7
			C163.8,51.7,163.2,51.9,162.5,51.9z"/>
		<path d="M167.2,67.8V54.2h3.6l0.5,1.8c0.3-0.5,0.8-1,1.5-1.5c0.7-0.5,1.6-0.7,2.6-0.7c1.1,0,1.9,0.2,2.6,0.6
			c0.6,0.4,1.1,1,1.4,1.7c0.5-0.7,1.2-1.3,2-1.7c0.8-0.4,1.7-0.6,2.6-0.6c1.7,0,2.9,0.5,3.6,1.5c0.7,1,1,2.4,1,4.2v8.3h-4.2v-7.2
			c0-0.6,0-1.2-0.1-1.8c-0.1-0.5-0.3-1-0.5-1.3c-0.3-0.3-0.8-0.5-1.5-0.5c-0.8,0-1.5,0.3-1.8,0.9c-0.4,0.6-0.6,1.5-0.6,2.7v7.2h-4.2
			v-7.2c0-0.6,0-1.2-0.1-1.8c-0.1-0.5-0.2-1-0.5-1.3c-0.3-0.3-0.8-0.5-1.4-0.5c-0.9,0-1.5,0.3-1.9,0.9c-0.4,0.6-0.6,1.5-0.6,2.7v7.1
			H167.2z"/>
		<path d="M195.4,68.1c-0.9,0-1.6-0.2-2.4-0.5c-0.7-0.3-1.3-0.8-1.7-1.4c-0.4-0.6-0.6-1.3-0.6-2.1c0-1.1,0.4-2,1.2-2.7
			s1.8-1.2,3.2-1.5s2.9-0.6,4.7-0.7c0-1-0.2-1.7-0.5-2.1s-0.9-0.6-1.8-0.6c-0.6,0-1.1,0.1-1.5,0.4c-0.4,0.3-0.7,0.7-0.9,1.2
			l-3.5-1.3c0.5-0.9,1.2-1.7,2.3-2.3s2.4-0.9,3.9-0.9c1.9,0,3.4,0.4,4.5,1.3s1.6,2.3,1.6,4.4v3c0,0.6,0,1.2,0.1,1.9
			c0,0.7,0.1,1.3,0.2,1.9c0.1,0.6,0.2,1.1,0.2,1.5h-3.9l-0.5-1.6c-0.5,0.7-1.2,1.2-1.9,1.5C197.2,67.9,196.4,68.1,195.4,68.1z
			 M196.9,65.2c0.8,0,1.5-0.2,2.1-0.7s0.8-1.3,0.8-2.5v-0.3c-1.4,0.1-2.6,0.3-3.5,0.6c-0.9,0.3-1.3,0.8-1.3,1.5
			c0,0.4,0.2,0.8,0.5,1.1C195.9,65.1,196.4,65.2,196.9,65.2z"/>
		<path d="M212.3,67.8c-1.1,0-2-0.1-2.7-0.3c-0.7-0.2-1.1-0.6-1.4-1.1c-0.3-0.6-0.4-1.4-0.4-2.4v-6.6h-2.2v-3.2h2.2v-3.4h4.2v3.4h3
			v3.2h-3v5.5c0,0.6,0.1,1.1,0.4,1.2c0.2,0.2,0.7,0.3,1.4,0.3h1.2v3.4H212.3z"/>
		<path d="M223.7,68.1c-1.5,0-2.8-0.3-3.9-0.9s-2-1.4-2.6-2.5c-0.6-1.1-0.9-2.4-0.9-3.9c0-1.4,0.3-2.7,1-3.8
			c0.7-1.1,1.6-1.9,2.7-2.5c1.1-0.6,2.3-0.9,3.6-0.9c1.5,0,2.8,0.4,3.8,1.1s1.9,1.7,2.4,2.9c0.5,1.2,0.8,2.7,0.7,4.3h-10.1
			c0.1,1,0.4,1.7,1.1,2.1c0.6,0.5,1.3,0.7,2.1,0.7c0.6,0,1.2-0.1,1.7-0.3c0.5-0.2,0.8-0.4,1.1-0.7l3.3,1.2c-0.7,1-1.6,1.8-2.7,2.3
			S224.8,68.1,223.7,68.1z M220.4,59.5h6.2c0-0.9-0.3-1.5-0.9-2c-0.6-0.4-1.3-0.7-2.1-0.7c-0.8,0-1.5,0.2-2.1,0.6
			C220.9,57.9,220.6,58.6,220.4,59.5z"/>
	</g>
</g>
<g>
	<ellipse class="st2" cx="233.6" cy="110.3" rx="19.9" ry="13.9"/>
	<polyline class="st2" points="213.7,110.3 213.7,252.2 213.7,254.5 	"/>
	<polyline class="st2" points="253.5,110.3 253.5,252.2 253.5,254.5 	"/>
	<path class="st2" d="M213.7,254.5c0,1,0.3,1.9,0.6,2.7c3.2,8.1,18.8,7.5,19.5,7.5"/>
	<path class="st2" d="M253.5,254.5c0,1-0.3,1.9-0.6,2.7c-3.2,8.1-18.8,7.5-19.5,7.5"/>
	<g>
		<path class="st2" d="M213.7,230.9c0,1,0.3,1.9,0.6,2.7c3.2,8.1,18.8,7.6,19.5,7.6"/>
		<path class="st2" d="M253.5,230.9c0,1-0.3,1.9-0.6,2.7c-3.2,8.1-18.8,7.6-19.5,7.6"/>
	</g>
	<g>
		<path class="st2" d="M213.7,225.8c0,1,0.3,1.9,0.6,2.7c3.2,8.1,18.8,7.6,19.5,7.6"/>
		<path class="st2" d="M253.5,225.8c0,1-0.3,1.9-0.6,2.7c-3.2,8.1-18.8,7.6-19.5,7.6"/>
	</g>
	<g>
		<path class="st2" d="M213.7,206c0,1,0.3,1.9,0.6,2.7c3.2,8.1,18.8,7.6,19.5,7.6"/>
		<path class="st2" d="M253.5,206c0,1-0.3,1.9-0.6,2.7c-3.2,8.1-18.8,7.6-19.5,7.6"/>
	</g>
	<g>
		<path class="st2" d="M213.7,178.1c0,1,0.3,1.9,0.6,2.7c3.2,8.1,18.8,7.6,19.5,7.6"/>
		<path class="st2" d="M253.5,178.1c0,1-0.3,1.9-0.6,2.7c-3.2,8.1-18.8,7.6-19.5,7.6"/>
	</g>
	<g>
		<path class="st2" d="M213.7,173c0,1,0.3,1.9,0.6,2.7c3.2,8.1,18.8,7.6,19.5,7.6"/>
		<path class="st2" d="M253.5,173c0,1-0.3,1.9-0.6,2.7c-3.2,8.1-18.8,7.6-19.5,7.6"/>
	</g>
	<g>
		<path class="st2" d="M213.7,166.9c0,1,0.3,1.9,0.6,2.7c3.2,8.1,18.8,7.6,19.5,7.6"/>
		<path class="st2" d="M253.5,166.9c0,1-0.3,1.9-0.6,2.7c-3.2,8.1-18.8,7.6-19.5,7.6"/>
	</g>
	<g>
		<path class="st2" d="M213.7,192.1c0,1,0.3,1.9,0.6,2.7c3.2,8.1,18.8,7.6,19.5,7.6"/>
		<path class="st2" d="M253.5,192.1c0,1-0.3,1.9-0.6,2.7c-3.2,8.1-18.8,7.6-19.5,7.6"/>
	</g>
	<g>
		<path class="st2" d="M213.7,129.3c0,1,0.3,1.9,0.6,2.7c3.2,8.1,18.8,7.6,19.5,7.6"/>
		<path class="st2" d="M253.5,129.3c0,1-0.3,1.9-0.6,2.7c-3.2,8.1-18.8,7.6-19.5,7.6"/>
	</g>
</g>
<g>
	<path class="st2" d="M144.6,255.3c-0.6-9.2-0.1-16.4,0.4-21.4c1.1-10.9,3.1-15.1,3.6-27.2c0.4-8.1-0.5-7.6,0-13.3
		c1.1-14.1,6-15.1,7.9-28c1.8-12-1.9-14.5,0-30.2c1.4-12,4.6-18.8,5.4-20.6c2-4.1,4.9-10.1,8.7-9.6c5.4,0.7,8.4,14.9,9,17.7
		c0.6,2.7,0.8,7,1.4,15.5c0.6,8.7,0.4,9.7,1.1,15.2c0.9,7.5,1.5,7.9,1.6,12.7c0.2,6.3-0.9,7.2-0.5,12.2c0.3,4.2,1.2,5.6,2.9,11.5
		c1.4,4.8,2.6,9.3,3.3,14.6c1.3,10.9-1.6,13.8,0,24.9c0.5,3.2,1,5.1,1.7,10.7c0.5,4.3,0.7,7.9,0.8,10.3"/>
	<path class="st2" d="M156.3,136c1.2-5.1,3-8.9,4.3-11.5c2.6-5,4.7-9,8.2-9.3c3.1-0.3,5.6,2.6,6,3c0.9,1.1,0.7,1.4,3.1,8.8
		c1.1,3.2,1.7,4.9,2.4,8c0.3,1.4,0.6,2.5,0.7,3.3"/>
	<path class="st2" d="M155.9,143.2c2.8-1.1,4.4-3.2,5.4-5.3c1.8-3.8,1.1-7,3.1-10.5c2.1-3.8,4.9-4,5.4-4c0.3,0,3.2-0.1,5.6,3.4
		c1.1,1.7,1.3,3.1,3,7.7c1.2,3.4,2.3,6.1,3,7.7"/>
	<path class="st2" d="M156.6,164.1c1.4-5.1,3.3-8.9,4.8-11.5c2.9-5,5.2-9,9-9.3c3.4-0.3,6.2,2.6,6.6,3c1,1.1,0.8,1.4,3.4,8.8
		c1.2,3.2,1.8,4.9,2.6,8c0.4,1.4,0.6,2.5,0.8,3.3"/>
	<path class="st2" d="M154.4,173.8c3.2-1.1,5-3.2,6.1-5.3c2-3.8,1.3-7,3.5-10.5c2.4-3.8,5.6-4,6.1-4c0.4,0,3.6-0.1,6.3,3.4
		c1.3,1.7,1.5,3.1,3.3,7.7c1.3,3.4,2.5,6.1,3.3,7.7"/>
	<path class="st2" d="M156.6,155.1c1.3-5.3,3.1-9.3,4.5-12c2.7-5.2,4.9-9.4,8.6-9.7c3.3-0.3,5.9,2.7,6.3,3.2c1,1.2,0.7,1.5,3.3,9.2
		c1.1,3.4,1.7,5.1,2.5,8.3c0.3,1.4,0.6,2.6,0.8,3.4"/>
	<path class="st2" d="M148.8,206.8c0.1-3.3,0.5-8.4,2.1-13.8c1.4-5,3.2-8,5.3-11.7c4.6-7.9,5.4-5.7,11.1-14.6
		c1.6-2.4,2.4-3.9,3.8-4.2c3.6-0.7,6.7,6.8,6.9,7.3c0.6,1.4,0.8,2.3,2.5,14.6c1.1,7.8,1.5,10.8,2.8,14.8c0.7,2.2,1.1,4.5,2.4,6.2
		c1.3,1.7,2.8,2,3.7,2"/>
	<path class="st2" d="M148.4,210.8c2.7-7.4,5.5-12.8,7.8-16.4c4.3-6.9,7.8-12.4,12.1-11.7c3.5,0.6,5.9,5.1,7.6,8.2
		c4.1,7.6,3.3,13.3,7.1,19.6c2.3,3.8,4.9,5.6,6.6,6.5"/>
	<path class="st2" d="M145.6,229.4c1.3-5.9,3-10.3,4.3-13.2c2.8-6.4,3.5-4.9,8.5-14.3c2.1-3.9,3.6-7.2,6.7-9.7
		c1.4-1.1,2.8-2.2,4.1-1.5c1.9,0.9,2.3,4.2,4.4,11c1.6,5.2,3,8.7,4.4,12.3c0.5,1.3,2.6,6.5,5.8,12.6c1.8,3.5,4.1,7.4,7,11.5"/>
	<path class="st2" d="M144.3,237.7c1.5-0.8,3.7-2.3,5.4-5.6c1.6-3.2,1.1-5,2.8-8.9s2.6-3.1,5.7-8.2c3-4.9,2.9-6.9,4.8-8
		c2.4-1.4,4.9,0.5,6.2,1.5c1.8,1.3,3.6,3.4,7,10.6c4.8,10.1,5,14,8.4,17.6c2.3,2.4,4.7,3.2,6.3,3.5"/>
	<path class="st2" d="M144.3,247.5c4.3-4.9,7.3-9.7,9.3-13.3c2.2-4,4.9-10,9.9-16.3c2.5-3.2,3.3-3.6,4.2-3.6
		c2.9,0.2,3.7,6.3,8.9,16.3c4.5,8.7,7.8,11.6,8.6,12.3c2.6,2.2,5.1,3.1,6.7,3.6"/>
	<path class="st2" d="M144.3,251.5c5.1-4.6,10.9-9.6,17.3-14.8c2.9-2.4,5.6-4.5,9-3.7c3.2,0.8,4.7,4,7.7,7.4c2.8,3.1,7,6.7,13.5,8.4
		"/>
	<path class="st2" d="M144.9,253.6c7.1-1.3,10.9-4,13.1-6.3c2.5-2.6,3.5-5.4,7.1-6.6c3.2-1,6.3-0.1,6.8,0.1c5.1,1.7,5.1,6,9.6,8.1
		c1.9,0.9,5,1.5,10,0.1"/>
</g>
<g>
	<path class="st2" d="M33.1,157.9c-0.2-6.6,1.5-9.2,3.2-10.3c1.6-1.1,3.5-1.1,4.9-3.2c0.8-1.2,0.5-1.8,1.4-3.7
		c0.8-1.7,1.7-2.7,2.9-4c2.1-2.4,4.2-3.8,6-5.2c3-2.1,4.5-3.2,6.9-4c3.2-1.1,6.1-1.2,7.2-1.1c2.4,0,2.5,0.4,4.6,0.3
		c3-0.2,6-1.1,6-1.1c1.2-0.4,2-0.7,3.2-0.6s1.5,0.5,2.6,0.7c2.1,0.4,3.1-0.6,5.1-0.9c1-0.1,1.6,0,5.7,1.3c8.9,2.8,9.8,3,10.8,4.2
		c1,1.3,1.3,2.4,2.6,2.8c1.4,0.4,2.4-0.5,4.2-0.1c0.3,0.1,1.5,0.3,2.6,1.3c1.2,1.1,1.1,1.9,2.1,3.4c0.7,1,1.2,1.2,3.3,2.8
		c0,0,1.4,1,4.6,3.6c3.2,2.5,7.9,6.2,7.9,10.9c0,1.4-1.3,2.7-0.8,3.3c0.5,0.5,1.4-0.1,2.1,0.4c0.9,0.6,0.7,2.4,0.6,2.9
		c-0.5,4.3,1.4,4.8,1.4,14.2c0,3.9,0,5.8-0.7,7.9c-0.6,1.7-1.2,2.3-1.7,4.5c-0.7,2.8,0,3.3-0.7,5.2s-1.6,1.9-3.3,4.6
		c-1.1,1.7-1.6,3.1-2.1,4c-2.4,5.4-5.7,7-12.9,16.6c-2.3,3.1-2.9,4.2-4.7,5.1c-2.3,1.1-4.3,0.8-7,2.6c-1.2,0.9-1.9,1.7-2.3,2.1
		c-3.5,3.7-11.7,2.9-28.4,1.7c-3.8-0.3-6.9-0.5-11-1.7c-2.5-0.8-9.2-2.8-9.6-6.4c-0.2-1.4,0.7-2.1,0.2-3.4c-0.7-1.7-2.7-1.6-5.1-3
		c-1.3-0.7-2.7-2.4-5.5-5.9c-4.4-5.3-4.5-6.5-4.5-7.2c-0.1-1.9,0.9-2.5,0.6-4.5c-0.2-1.7-1-2.2-2.5-4.5c-2.1-3.2-4.2-6.5-3.8-10
		c0.2-1.4,0.5-1.3,0.8-3c0.2-2-0.2-2.6-0.6-6.2c-0.3-2.9-0.4-4.4,0.2-5.5c0.4-0.7,0.9-1.2,0.9-2c0-1-0.9-1.3-1.2-2.3
		c-0.5-1.5,0.7-3.1,0.9-3.4c0.6-0.7,1.3-1.1,1.7-1.3L33.1,157.9z"/>
	<path class="st3" d="M38.9,159.3c-0.2-5.9,1.3-8.2,2.8-9.2c1.4-0.9,3.1-1,4.3-2.8c0.7-1.1,0.5-1.6,1.3-3.3c0.7-1.5,1.5-2.4,2.6-3.6
		c1.9-2.1,3.7-3.4,5.4-4.6c2.7-1.9,4-2.9,6.1-3.6c2.8-1,5.4-1,6.4-1c2.2,0,2.2,0.4,4.1,0.3c2.7-0.2,5.4-1,5.4-1
		c1-0.3,1.7-0.6,2.8-0.5c1.1,0.1,1.4,0.4,2.3,0.6c1.8,0.4,2.8-0.5,4.5-0.8c0.9-0.1,1.4,0,5.1,1.2c7.9,2.5,8.7,2.7,9.6,3.8
		s1.2,2.1,2.3,2.5c1.3,0.4,2.1-0.4,3.8-0.1c0.3,0.1,1.4,0.3,2.3,1.2c1.1,1,1,1.7,1.9,3c0.6,0.9,1.1,1.1,2.9,2.5c0,0,1.2,0.9,4.1,3.2
		c2.8,2.2,7,5.5,7,9.7c0,1.2-1.2,2.4-0.7,2.9c0.4,0.4,1.2-0.1,1.9,0.3c0.8,0.5,0.6,2.1,0.6,2.6c-0.4,3.8,1.3,4.3,1.3,12.6
		c0,3.4,0,5.1-0.6,7c-0.5,1.5-1,2.1-1.5,4c-0.6,2.5,0,2.9-0.6,4.6c-0.7,1.7-1.4,1.7-2.9,4c-1,1.5-1.5,2.7-1.8,3.6
		c-2.1,4.8-5.1,6.2-11.4,14.8c-2.1,2.8-2.6,3.8-4.2,4.5c-2,1-3.8,0.7-6.2,2.4c-1.1,0.8-1.7,1.5-2,1.8c-3.1,3.3-10.4,2.5-25.2,1.5
		c-3.4-0.2-6.1-0.4-9.7-1.5c-2.2-0.7-8.2-2.5-8.6-5.7c-0.2-1.3,0.6-1.9,0.2-3c-0.6-1.5-2.4-1.5-4.5-2.7c-1.1-0.6-2.4-2.2-4.9-5.2
		c-3.9-4.7-4-5.8-4-6.4c-0.1-1.7,0.8-2.2,0.5-4c-0.2-1.5-0.9-2-2.2-4c-1.9-2.9-3.7-5.8-3.4-8.9c0.1-1.2,0.5-1.1,0.7-2.7
		c0.2-1.8-0.2-2.3-0.5-5.5c-0.3-2.6-0.4-3.9,0.2-4.9c0.4-0.7,0.8-1.1,0.8-1.8c0-0.9-0.8-1.2-1-2.1c-0.4-1.4,0.6-2.7,0.8-3
		c0.5-0.7,1.1-1,1.5-1.2L38.9,159.3z"/>
	<path class="st4" d="M43.5,161.5c-0.2-5.4,1.2-7.6,2.5-8.5c1.2-0.9,2.8-0.9,3.8-2.6c0.6-1,0.4-1.5,1.1-3.1c0.6-1.4,1.3-2.2,2.3-3.3
		c1.7-2,3.3-3.2,4.7-4.2c2.4-1.8,3.6-2.6,5.4-3.3c2.5-0.9,4.8-1,5.7-0.9c1.9,0,1.9,0.4,3.6,0.2c2.4-0.2,4.7-0.9,4.7-0.9
		c0.9-0.3,1.5-0.6,2.5-0.5s1.2,0.4,2.1,0.6c1.6,0.4,2.4-0.5,4-0.7c0.8-0.1,1.2,0,4.5,1.1c7,2.3,7.7,2.5,8.5,3.5s1,2,2.1,2.3
		s1.9-0.4,3.3-0.1c0.2,0,1.2,0.3,2.1,1.1c1,0.9,0.8,1.6,1.7,2.8c0.5,0.8,0.9,1,2.6,2.3c0,0,1.1,0.9,3.6,2.9c2.5,2.1,6.2,5.1,6.2,9
		c0,1.1-1,2.2-0.6,2.7c0.4,0.4,1.1-0.1,1.7,0.3c0.7,0.5,0.5,2,0.5,2.4c-0.4,3.6,1.1,4,1.1,11.7c0,3.2,0,4.8-0.6,6.5
		c-0.5,1.4-0.9,1.9-1.3,3.7c-0.5,2.3,0,2.7-0.6,4.3c-0.6,1.5-1.3,1.6-2.6,3.7c-0.9,1.4-1.3,2.5-1.6,3.3c-1.9,4.4-4.5,5.8-10.1,13.7
		c-1.8,2.6-2.3,3.5-3.7,4.2c-1.8,0.9-3.4,0.6-5.5,2.2c-1,0.7-1.5,1.4-1.8,1.7c-2.7,3-9.2,2.4-22.3,1.4c-3-0.2-5.4-0.4-8.6-1.4
		c-2-0.6-7.2-2.3-7.6-5.3c-0.1-1.2,0.6-1.7,0.1-2.8c-0.5-1.4-2.1-1.3-4-2.5c-1-0.6-2.1-2-4.3-4.8c-3.4-4.4-3.6-5.4-3.6-5.9
		c-0.1-1.6,0.7-2,0.4-3.7c-0.2-1.4-0.8-1.8-1.9-3.7c-1.6-2.7-3.3-5.4-3-8.2c0.1-1.1,0.4-1,0.6-2.5c0.2-1.7-0.2-2.1-0.4-5.1
		c-0.2-2.4-0.3-3.6,0.1-4.5c0.3-0.6,0.7-1,0.7-1.7c0-0.8-0.7-1.1-0.9-1.9c-0.4-1.3,0.5-2.5,0.7-2.8c0.5-0.6,1-0.9,1.3-1.1
		L43.5,161.5z"/>
	<path class="st3" d="M46.5,162.8c-0.1-5,1.1-6.9,2.3-7.8c1.1-0.8,2.5-0.8,3.5-2.4c0.6-0.9,0.4-1.4,1-2.8c0.6-1.3,1.2-2,2.1-3
		c1.5-1.8,3-2.9,4.3-3.9c2.2-1.6,3.3-2.4,5-3c2.3-0.8,4.4-0.9,5.2-0.9c1.7,0,1.8,0.3,3.3,0.2c2.2-0.2,4.3-0.9,4.3-0.9
		c0.8-0.3,1.4-0.5,2.3-0.5c0.9,0.1,1.1,0.4,1.9,0.5c1.5,0.3,2.2-0.4,3.7-0.7c0.8-0.1,1.1,0,4.1,1c6.4,2.1,7,2.2,7.8,3.2
		c0.8,0.9,0.9,1.8,1.9,2.1s1.7-0.4,3.1-0.1c0.2,0,1.1,0.3,1.9,1c0.9,0.8,0.8,1.5,1.5,2.6c0.5,0.7,0.9,0.9,2.4,2.1c0,0,1,0.8,3.3,2.7
		s5.7,4.7,5.7,8.2c0,1-1,2.1-0.5,2.5c0.3,0.4,1-0.1,1.5,0.3c0.6,0.5,0.5,1.8,0.4,2.2c-0.3,3.3,1,3.6,1,10.7c0,2.9,0,4.4-0.5,5.9
		c-0.4,1.3-0.8,1.8-1.2,3.3c-0.5,2.1,0,2.5-0.5,3.9s-1.2,1.5-2.4,3.4c-0.8,1.3-1.2,2.3-1.5,3c-1.7,4-4.1,5.3-9.3,12.5
		c-1.7,2.4-2.1,3.2-3.4,3.8c-1.6,0.8-3.1,0.6-5,2c-0.9,0.6-1.4,1.3-1.6,1.6c-2.5,2.8-8.4,2.2-20.5,1.3c-2.8-0.2-5-0.4-7.9-1.3
		c-1.8-0.6-6.6-2.1-7-4.8c-0.1-1.1,0.5-1.6,0.1-2.6c-0.5-1.3-1.9-1.2-3.7-2.3c-0.9-0.5-1.9-1.8-4-4.4c-3.1-4-3.3-4.9-3.3-5.4
		c-0.1-1.4,0.6-1.9,0.4-3.4c-0.2-1.2-0.7-1.7-1.8-3.4c-1.5-2.4-3-4.9-2.7-7.5c0.1-1.1,0.4-0.9,0.5-2.3c0.2-1.5-0.1-1.9-0.4-4.7
		c-0.2-2.2-0.3-3.3,0.1-4.1c0.3-0.6,0.7-0.9,0.7-1.5c0-0.8-0.6-1-0.8-1.7c-0.3-1.2,0.5-2.3,0.7-2.5c0.4-0.6,0.9-0.9,1.2-1
		L46.5,162.8z"/>
	<path class="st3" d="M48.9,164.4c-0.1-4.6,1-6.4,2.1-7.2c1-0.7,2.4-0.8,3.3-2.2c0.5-0.8,0.4-1.3,1-2.6c0.5-1.2,1.1-1.9,1.9-2.8
		c1.4-1.7,2.8-2.7,4-3.6c2-1.5,3-2.2,4.6-2.8c2.1-0.8,4.1-0.8,4.8-0.8c1.6,0,1.6,0.3,3.1,0.2c2-0.1,4-0.8,4-0.8
		c0.8-0.3,1.3-0.5,2.1-0.4c0.8,0.1,1,0.3,1.8,0.5c1.4,0.3,2.1-0.4,3.4-0.6c0.7-0.1,1,0,3.8,0.9c6,1.9,6.5,2.1,7.2,2.9
		c0.7,0.9,0.9,1.7,1.8,1.9c0.9,0.3,1.6-0.3,2.8-0.1c0.2,0,1,0.2,1.8,0.9s0.7,1.4,1.4,2.4c0.5,0.7,0.8,0.9,2.2,1.9
		c0,0,0.9,0.7,3.1,2.5c2.1,1.7,5.2,4.3,5.3,7.6c0,1-0.9,1.9-0.5,2.3c0.3,0.3,0.9-0.1,1.4,0.2c0.6,0.4,0.5,1.7,0.4,2
		c-0.3,3,1,3.4,1,9.9c0,2.7,0,4-0.5,5.5c-0.4,1.2-0.8,1.6-1.1,3.1c-0.4,2,0,2.3-0.5,3.6s-1.1,1.3-2.2,3.2c-0.8,1.2-1.1,2.1-1.4,2.8
		c-1.6,3.7-3.8,4.9-8.6,11.6c-1.6,2.2-2,2.9-3.2,3.6c-1.5,0.8-2.9,0.5-4.7,1.8c-0.8,0.6-1.3,1.2-1.5,1.4c-2.3,2.6-7.8,2-18.9,1.2
		c-2.6-0.2-4.6-0.3-7.3-1.2c-1.7-0.5-6.1-1.9-6.4-4.5c-0.1-1,0.5-1.5,0.1-2.4c-0.5-1.2-1.8-1.1-3.4-2.1c-0.8-0.5-1.8-1.7-3.7-4.1
		c-2.9-3.7-3-4.6-3-5c0-1.3,0.6-1.7,0.4-3.2c-0.2-1.2-0.6-1.6-1.6-3.2c-1.4-2.3-2.8-4.5-2.5-7c0.1-1,0.4-0.9,0.5-2.1
		c0.2-1.4-0.1-1.8-0.4-4.3c-0.2-2-0.3-3.1,0.1-3.8c0.3-0.5,0.6-0.8,0.6-1.4c0-0.7-0.6-0.9-0.8-1.6c-0.3-1.1,0.5-2.1,0.6-2.3
		c0.4-0.5,0.8-0.8,1.1-0.9L48.9,164.4z"/>
	<path class="st5" d="M54,167c-0.1-4.1,0.9-5.8,1.8-6.5c0.9-0.7,2-0.7,2.8-2c0.5-0.8,0.3-1.1,0.8-2.3c0.5-1,1-1.7,1.7-2.5
		c1.2-1.5,2.4-2.4,3.5-3.2c1.8-1.3,2.6-2,4-2.5c1.8-0.7,3.5-0.7,4.1-0.7c1.4,0,1.4,0.3,2.7,0.2c1.8-0.1,3.5-0.7,3.5-0.7
		c0.7-0.2,1.1-0.4,1.8-0.4c0.7,0.1,0.9,0.3,1.5,0.5c1.2,0.3,1.8-0.4,2.9-0.5c0.6-0.1,0.9,0,3.3,0.8c5.2,1.7,5.6,1.9,6.2,2.7
		s0.8,1.5,1.5,1.7c0.8,0.3,1.4-0.3,2.4-0.1c0.2,0,0.9,0.2,1.5,0.8c0.7,0.7,0.6,1.2,1.2,2.1c0.4,0.6,0.7,0.8,1.9,1.8
		c0,0,0.8,0.7,2.6,2.2c1.8,1.6,4.5,3.9,4.6,6.9c0,0.9-0.8,1.7-0.4,2.1c0.3,0.3,0.8-0.1,1.2,0.2c0.5,0.4,0.4,1.5,0.4,1.8
		c-0.3,2.7,0.8,3,0.8,8.9c0,2.4,0,3.6-0.4,4.9c-0.3,1.1-0.7,1.5-1,2.8c-0.4,1.8,0,2.1-0.4,3.3s-0.9,1.2-1.9,2.9
		c-0.7,1.1-0.9,1.9-1.2,2.5c-1.4,3.4-3.3,4.4-7.4,10.4c-1.3,2-1.7,2.7-2.7,3.2c-1.3,0.7-2.5,0.5-4,1.7c-0.7,0.5-1.1,1-1.3,1.3
		c-2,2.3-6.8,1.8-16.4,1.1c-2.2-0.2-4-0.3-6.3-1.1c-1.4-0.5-5.3-1.8-5.6-4c-0.1-0.9,0.4-1.3,0.1-2.1c-0.4-1.1-1.5-1-2.9-1.9
		c-0.7-0.4-1.5-1.5-3.2-3.7c-2.5-3.3-2.6-4.1-2.6-4.5c0-1.2,0.5-1.6,0.3-2.9c-0.1-1-0.6-1.4-1.4-2.9c-1.2-2-2.4-4.1-2.2-6.3
		c0.1-0.9,0.3-0.8,0.4-1.9c0.1-1.3-0.1-1.6-0.3-3.9c-0.2-1.8-0.2-2.8,0.1-3.4c0.2-0.5,0.5-0.7,0.5-1.3s-0.5-0.8-0.7-1.5
		c-0.3-1,0.4-1.9,0.5-2.1c0.3-0.5,0.7-0.7,1-0.8L54,167z"/>
	<path class="st5" d="M57.2,168.4c-0.1-3.7,0.8-5.1,1.6-5.8c0.8-0.6,1.8-0.6,2.5-1.8c0.4-0.7,0.3-1,0.7-2.1c0.4-0.9,0.9-1.5,1.5-2.2
		c1.1-1.3,2.1-2.1,3.1-2.9c1.6-1.2,2.3-1.8,3.5-2.2c1.6-0.6,3.1-0.6,3.7-0.6c1.2,0,1.3,0.2,2.4,0.2c1.6-0.1,3.1-0.6,3.1-0.6
		c0.6-0.2,1-0.4,1.6-0.3c0.6,0,0.8,0.3,1.3,0.4c1.1,0.2,1.6-0.3,2.6-0.5c0.5-0.1,0.8,0,2.9,0.7c4.6,1.5,5,1.7,5.5,2.4
		s0.7,1.3,1.3,1.5c0.7,0.2,1.2-0.3,2.2-0.1c0.2,0,0.8,0.2,1.3,0.7c0.6,0.6,0.6,1.1,1.1,1.9c0.3,0.5,0.6,0.7,1.7,1.6
		c0,0,0.7,0.6,2.3,2c1.6,1.4,4,3.5,4,6.1c0,0.8-0.7,1.5-0.4,1.8c0.2,0.3,0.7-0.1,1.1,0.2c0.5,0.3,0.3,1.3,0.3,1.6
		c-0.2,2.4,0.7,2.7,0.7,7.9c0,2.1,0,3.2-0.4,4.4c-0.3,0.9-0.6,1.3-0.8,2.5c-0.3,1.6,0,1.8-0.4,2.9c-0.4,1-0.8,1.1-1.7,2.5
		c-0.6,1-0.8,1.7-1.1,2.2c-1.2,3-2.9,3.9-6.6,9.3c-1.2,1.7-1.5,2.4-2.4,2.8c-1.2,0.6-2.2,0.4-3.6,1.5c-0.6,0.5-1,0.9-1.2,1.2
		c-1.8,2.1-6,1.6-14.5,0.9c-2-0.1-3.5-0.3-5.6-0.9c-1.3-0.4-4.7-1.6-4.9-3.6c-0.1-0.8,0.4-1.2,0.1-1.9c-0.4-0.9-1.4-0.9-2.6-1.7
		c-0.6-0.4-1.4-1.4-2.8-3.3c-2.2-3-2.3-3.6-2.3-4c0-1.1,0.4-1.4,0.3-2.5c-0.1-0.9-0.5-1.2-1.3-2.5c-1.1-1.8-2.1-3.6-1.9-5.6
		c0.1-0.8,0.3-0.7,0.4-1.7c0.1-1.1-0.1-1.4-0.3-3.5c-0.1-1.6-0.2-2.4,0.1-3.1c0.2-0.4,0.5-0.7,0.5-1.1c0-0.6-0.4-0.7-0.6-1.3
		c-0.2-0.9,0.4-1.7,0.5-1.9c0.3-0.4,0.6-0.6,0.8-0.7L57.2,168.4z"/>
	<path class="st3" d="M59.7,169.5c-0.1-3.3,0.7-4.6,1.5-5.2c0.7-0.5,1.6-0.6,2.2-1.6c0.4-0.6,0.2-0.9,0.7-1.9c0.4-0.8,0.8-1.4,1.3-2
		c1-1.2,1.9-1.9,2.8-2.6c1.4-1.1,2.1-1.6,3.2-2c1.5-0.6,2.8-0.6,3.3-0.6c1.1,0,1.1,0.2,2.1,0.1c1.4-0.1,2.8-0.6,2.8-0.6
		c0.5-0.2,0.9-0.4,1.5-0.3c0.6,0,0.7,0.3,1.2,0.4c0.9,0.2,1.4-0.3,2.4-0.4c0.5-0.1,0.7,0,2.6,0.7c4.1,1.4,4.5,1.5,5,2.1
		s0.6,1.2,1.2,1.4s1.1-0.2,1.9-0.1c0.1,0,0.7,0.2,1.2,0.7c0.6,0.5,0.5,1,1,1.7c0.3,0.5,0.6,0.6,1.5,1.4c0,0,0.6,0.5,2.1,1.8
		s3.6,3.1,3.6,5.5c0,0.7-0.6,1.4-0.4,1.7c0.2,0.2,0.6-0.1,1,0.2s0.3,1.2,0.3,1.5c-0.2,2.2,0.7,2.4,0.7,7.1c0,1.9,0,2.9-0.3,3.9
		c-0.3,0.9-0.5,1.2-0.8,2.2c-0.3,1.4,0,1.7-0.3,2.6c-0.3,0.9-0.7,1-1.5,2.3c-0.5,0.9-0.8,1.5-1,2c-1.1,2.7-2.6,3.5-5.9,8.3
		c-1.1,1.6-1.3,2.1-2.2,2.6c-1.1,0.6-2,0.4-3.2,1.3c-0.6,0.4-0.9,0.8-1,1c-1.6,1.9-5.4,1.4-13.1,0.9c-1.8-0.1-3.2-0.2-5.1-0.9
		c-1.2-0.4-4.2-1.4-4.4-3.2c-0.1-0.7,0.3-1.1,0.1-1.7c-0.3-0.8-1.2-0.8-2.4-1.5c-0.6-0.4-1.2-1.2-2.5-2.9c-2-2.7-2.1-3.3-2.1-3.6
		c0-1,0.4-1.2,0.3-2.3c-0.1-0.8-0.4-1.1-1.1-2.3c-1-1.6-1.9-3.3-1.7-5c0.1-0.7,0.3-0.6,0.3-1.5c0.1-1-0.1-1.3-0.3-3.1
		c-0.1-1.5-0.2-2.2,0.1-2.7c0.2-0.4,0.4-0.6,0.4-1c0-0.5-0.4-0.7-0.5-1.2c-0.2-0.8,0.3-1.5,0.4-1.7c0.3-0.4,0.6-0.6,0.8-0.7
		L59.7,169.5z"/>
	<path class="st3" d="M62.7,170.7c-0.1-2.9,0.6-4,1.3-4.5c0.6-0.5,1.4-0.5,1.9-1.4c0.3-0.5,0.2-0.8,0.6-1.6c0.3-0.7,0.7-1.2,1.1-1.8
		c0.9-1.1,1.7-1.7,2.4-2.3c1.2-0.9,1.8-1.4,2.7-1.8c1.3-0.5,2.4-0.5,2.9-0.5c1,0,1,0.2,1.8,0.1c1.2-0.1,2.4-0.5,2.4-0.5
		c0.5-0.2,0.8-0.3,1.3-0.3s0.6,0.2,1,0.3c0.8,0.2,1.2-0.3,2-0.4c0.4-0.1,0.6,0,2.3,0.6c3.6,1.2,3.9,1.3,4.3,1.9c0.4,0.6,0.5,1,1,1.2
		c0.6,0.2,1-0.2,1.7-0.1c0.1,0,0.6,0.2,1,0.6c0.5,0.5,0.4,0.9,0.8,1.5c0.3,0.4,0.5,0.5,1.3,1.2c0,0,0.6,0.5,1.8,1.6
		c1.3,1.1,3.1,2.7,3.1,4.8c0,0.6-0.5,1.2-0.3,1.4s0.6-0.1,0.8,0.2c0.4,0.3,0.3,1,0.2,1.3c-0.2,1.9,0.6,2.1,0.6,6.2
		c0,1.7,0,2.5-0.3,3.5c-0.2,0.7-0.5,1-0.7,2c-0.3,1.2,0,1.5-0.3,2.3s-0.6,0.8-1.3,2c-0.5,0.8-0.7,1.3-0.8,1.8
		c-0.9,2.4-2.3,3.1-5.1,7.3c-0.9,1.4-1.2,1.9-1.9,2.2c-0.9,0.5-1.7,0.3-2.8,1.2c-0.5,0.4-0.8,0.7-0.9,0.9c-1.4,1.6-4.7,1.3-11.3,0.7
		c-1.5-0.1-2.8-0.2-4.4-0.7c-1-0.3-3.7-1.2-3.8-2.8c-0.1-0.6,0.3-0.9,0.1-1.5c-0.3-0.7-1.1-0.7-2-1.3c-0.5-0.3-1.1-1.1-2.2-2.6
		c-1.7-2.3-1.8-2.9-1.8-3.2c0-0.8,0.3-1.1,0.2-2c-0.1-0.7-0.4-1-1-2c-0.8-1.4-1.7-2.9-1.5-4.4c0.1-0.6,0.2-0.6,0.3-1.3
		c0.1-0.9-0.1-1.1-0.2-2.7c-0.1-1.3-0.2-1.9,0.1-2.4c0.2-0.3,0.4-0.5,0.4-0.9s-0.3-0.6-0.5-1c-0.2-0.7,0.3-1.3,0.4-1.5
		c0.2-0.3,0.5-0.5,0.7-0.6L62.7,170.7z"/>
	<path class="st6" d="M69.2,173.1c-0.1-2.1,0.4-3,0.9-3.3s1-0.4,1.4-1c0.2-0.4,0.2-0.6,0.4-1.2c0.2-0.5,0.5-0.9,0.8-1.3
		c0.6-0.8,1.2-1.2,1.8-1.7c0.9-0.7,1.3-1,2-1.3c0.9-0.4,1.8-0.4,2.1-0.4c0.7,0,0.7,0.1,1.3,0.1c0.9-0.1,1.8-0.4,1.8-0.4
		c0.3-0.1,0.6-0.2,0.9-0.2c0.4,0,0.4,0.2,0.8,0.2c0.6,0.1,0.9-0.2,1.5-0.3c0.3,0,0.5,0,1.7,0.4c2.6,0.9,2.9,1,3.2,1.4
		c0.3,0.4,0.4,0.8,0.8,0.9c0.4,0.1,0.7-0.2,1.2,0c0.1,0,0.4,0.1,0.8,0.4c0.4,0.3,0.3,0.6,0.6,1.1c0.2,0.3,0.4,0.4,1,0.9
		c0,0,0.4,0.3,1.3,1.1s2.3,2,2.3,3.5c0,0.4-0.4,0.9-0.2,1.1c0.1,0.1,0.4,0,0.6,0.1c0.3,0.2,0.2,0.8,0.2,0.9
		c-0.1,1.4,0.4,1.6,0.4,4.6c0,1.2,0,1.9-0.2,2.5c-0.2,0.5-0.3,0.7-0.5,1.4c-0.2,0.9,0,1.1-0.2,1.7c-0.2,0.6-0.5,0.6-1,1.5
		c-0.3,0.6-0.5,1-0.6,1.3c-0.7,1.7-1.7,2.3-3.8,5.4c-0.7,1-0.9,1.4-1.4,1.6c-0.7,0.4-1.3,0.2-2,0.9c-0.4,0.3-0.6,0.5-0.7,0.7
		c-1,1.2-3.4,0.9-8.3,0.5c-1.1-0.1-2-0.2-3.2-0.5c-0.7-0.2-2.7-0.9-2.8-2.1c-0.1-0.5,0.2-0.7,0.1-1.1c-0.2-0.5-0.8-0.5-1.5-1
		c-0.4-0.2-0.8-0.8-1.6-1.9c-1.3-1.7-1.3-2.1-1.3-2.3c0-0.6,0.3-0.8,0.2-1.5c-0.1-0.5-0.3-0.7-0.7-1.5c-0.6-1-1.2-2.1-1.1-3.2
		c0-0.5,0.2-0.4,0.2-1c0.1-0.6-0.1-0.8-0.2-2c-0.1-0.9-0.1-1.4,0.1-1.8c0.1-0.2,0.3-0.4,0.3-0.7s-0.3-0.4-0.3-0.7
		c-0.1-0.5,0.2-1,0.3-1.1c0.2-0.2,0.4-0.4,0.5-0.4L69.2,173.1z"/>
	<path class="st5" d="M71.3,174c-0.1-1.8,0.4-2.5,0.8-2.8s0.9-0.3,1.2-0.9c0.2-0.3,0.1-0.5,0.4-1c0.2-0.5,0.4-0.7,0.7-1.1
		c0.5-0.7,1-1.1,1.5-1.4c0.8-0.6,1.1-0.9,1.7-1.1c0.8-0.3,1.5-0.3,1.8-0.3c0.6,0,0.6,0.1,1.1,0.1c0.8-0.1,1.5-0.3,1.5-0.3
		c0.3-0.1,0.5-0.2,0.8-0.2s0.4,0.1,0.7,0.2c0.5,0.1,0.8-0.2,1.3-0.2c0.3,0,0.4,0,1.4,0.4c2.2,0.8,2.4,0.8,2.7,1.2
		c0.3,0.3,0.3,0.7,0.7,0.8c0.3,0.1,0.6-0.1,1.1,0c0.1,0,0.4,0.1,0.7,0.4c0.3,0.3,0.3,0.5,0.5,0.9c0.2,0.3,0.3,0.3,0.8,0.8
		c0,0,0.3,0.3,1.1,1c0.8,0.7,2,1.7,2,3c0,0.4-0.3,0.7-0.2,0.9c0.1,0.1,0.3,0,0.5,0.1c0.2,0.2,0.2,0.6,0.2,0.8
		c-0.1,1.2,0.4,1.3,0.4,3.9c0,1.1,0,1.6-0.2,2.2c-0.1,0.5-0.3,0.6-0.4,1.2c-0.2,0.8,0,0.9-0.2,1.4s-0.4,0.5-0.8,1.2
		c-0.3,0.5-0.4,0.8-0.5,1.1c-0.6,1.5-1.4,1.9-3.2,4.5c-0.6,0.9-0.7,1.2-1.2,1.4c-0.6,0.3-1.1,0.2-1.7,0.7c-0.3,0.2-0.5,0.5-0.6,0.6
		c-0.9,1-2.9,0.8-7,0.5c-1-0.1-1.7-0.1-2.7-0.5c-0.6-0.2-2.3-0.8-2.4-1.8c0-0.4,0.2-0.6,0-0.9c-0.2-0.5-0.7-0.4-1.3-0.8
		c-0.3-0.2-0.7-0.7-1.4-1.6c-1.1-1.5-1.1-1.8-1.1-2c0-0.5,0.2-0.7,0.1-1.2s-0.2-0.6-0.6-1.2c-0.5-0.9-1-1.8-0.9-2.7
		c0-0.4,0.1-0.3,0.2-0.8s-0.1-0.7-0.1-1.7c-0.1-0.8-0.1-1.2,0-1.5c0.1-0.2,0.2-0.3,0.2-0.6s-0.2-0.4-0.3-0.6
		c-0.1-0.4,0.2-0.8,0.2-0.9c0.1-0.2,0.3-0.3,0.4-0.4L71.3,174z"/>
	<path class="st3" d="M74.7,175.9c0-1.4,0.3-1.9,0.6-2.1c0.3-0.2,0.6-0.2,0.9-0.7c0.1-0.2,0.1-0.4,0.3-0.8c0.1-0.3,0.3-0.6,0.5-0.8
		c0.4-0.5,0.7-0.8,1.1-1.1c0.5-0.4,0.8-0.7,1.2-0.8c0.6-0.2,1.1-0.2,1.3-0.2c0.4,0,0.4,0.1,0.8,0.1c0.5,0,1.1-0.2,1.1-0.2
		c0.2-0.1,0.4-0.1,0.6-0.1s0.3,0.1,0.5,0.2c0.4,0.1,0.6-0.1,0.9-0.2c0.2,0,0.3,0,1,0.3c1.6,0.6,1.8,0.6,1.9,0.9
		c0.2,0.3,0.2,0.5,0.5,0.6s0.4-0.1,0.8,0c0.1,0,0.3,0.1,0.5,0.3s0.2,0.4,0.4,0.7c0.1,0.2,0.2,0.3,0.6,0.6c0,0,0.3,0.2,0.8,0.7
		c0.6,0.5,1.4,1.3,1.4,2.3c0,0.3-0.2,0.6-0.1,0.7c0.1,0.1,0.3,0,0.4,0.1c0.2,0.1,0.1,0.5,0.1,0.6c-0.1,0.9,0.3,1,0.3,2.9
		c0,0.8,0,1.2-0.1,1.6c-0.1,0.4-0.2,0.5-0.3,0.9c-0.1,0.6,0,0.7-0.1,1.1c-0.1,0.4-0.3,0.4-0.6,0.9c-0.2,0.4-0.3,0.6-0.4,0.8
		c-0.4,1.1-1,1.4-2.3,3.4c-0.4,0.6-0.5,0.9-0.8,1.1c-0.4,0.2-0.8,0.2-1.3,0.5c-0.2,0.2-0.3,0.3-0.4,0.4c-0.6,0.8-2.1,0.6-5.1,0.4
		c-0.7-0.1-1.2-0.1-2-0.4c-0.4-0.2-1.6-0.6-1.7-1.3c0-0.3,0.1-0.4,0-0.7s-0.5-0.3-0.9-0.6c-0.2-0.1-0.5-0.5-1-1.2
		c-0.8-1.1-0.8-1.3-0.8-1.5c0-0.4,0.2-0.5,0.1-0.9c0-0.3-0.2-0.5-0.4-0.9c-0.4-0.7-0.8-1.3-0.7-2.1c0-0.3,0.1-0.3,0.1-0.6
		c0-0.4,0-0.5-0.1-1.3c-0.1-0.6-0.1-0.9,0-1.1c0.1-0.2,0.2-0.2,0.2-0.4s-0.2-0.3-0.2-0.5c-0.1-0.3,0.1-0.6,0.2-0.7
		c0.1-0.2,0.2-0.2,0.3-0.3L74.7,175.9z"/>
	<path class="st5" d="M76.7,177.4c0-1,0.2-1.5,0.4-1.6c0.2-0.2,0.5-0.2,0.7-0.5c0.1-0.2,0.1-0.3,0.2-0.6s0.2-0.4,0.4-0.6
		c0.3-0.4,0.6-0.6,0.8-0.8c0.4-0.3,0.6-0.5,1-0.6c0.4-0.2,0.8-0.2,1-0.2c0.3,0,0.3,0.1,0.6,0c0.4,0,0.8-0.2,0.8-0.2
		c0.2-0.1,0.3-0.1,0.4-0.1c0.2,0,0.2,0.1,0.4,0.1c0.3,0.1,0.4-0.1,0.7-0.1c0.1,0,0.2,0,0.8,0.2c1.2,0.4,1.4,0.5,1.5,0.7
		s0.2,0.4,0.4,0.4c0.2,0.1,0.3-0.1,0.6,0c0,0,0.2,0.1,0.4,0.2c0.2,0.2,0.1,0.3,0.3,0.5c0.1,0.2,0.2,0.2,0.5,0.4c0,0,0.2,0.2,0.6,0.6
		c0.4,0.4,1.1,1,1.1,1.7c0,0.2-0.2,0.4-0.1,0.5s0.2,0,0.3,0.1c0.1,0.1,0.1,0.4,0.1,0.5c-0.1,0.7,0.2,0.8,0.2,2.3
		c0,0.6,0,0.9-0.1,1.3c-0.1,0.3-0.2,0.4-0.2,0.7c-0.1,0.5,0,0.5-0.1,0.8s-0.2,0.3-0.5,0.7c-0.2,0.3-0.2,0.5-0.3,0.6
		c-0.3,0.9-0.8,1.1-1.8,2.6c-0.3,0.5-0.4,0.7-0.7,0.8c-0.3,0.2-0.6,0.1-1,0.4c-0.2,0.1-0.3,0.3-0.3,0.3c-0.5,0.6-1.6,0.5-3.9,0.3
		c-0.5,0-1-0.1-1.5-0.3c-0.3-0.1-1.3-0.4-1.3-1c0-0.2,0.1-0.3,0-0.5c-0.1-0.3-0.4-0.3-0.7-0.5c-0.2-0.1-0.4-0.4-0.8-0.9
		c-0.6-0.8-0.6-1-0.6-1.1c0-0.3,0.1-0.4,0.1-0.7s-0.1-0.4-0.3-0.7c-0.3-0.5-0.6-1-0.5-1.6c0-0.2,0.1-0.2,0.1-0.5s0-0.4-0.1-1
		c0-0.5-0.1-0.7,0-0.9c0.1-0.1,0.1-0.2,0.1-0.3c0-0.2-0.1-0.2-0.2-0.4s0.1-0.5,0.1-0.5c0.1-0.1,0.2-0.2,0.2-0.2L76.7,177.4z"/>
	<path class="st4" d="M78.8,178.4c0-0.7,0.1-1,0.3-1.1c0.1-0.1,0.3-0.1,0.5-0.3c0.1-0.1,0.1-0.2,0.1-0.4c0.1-0.2,0.2-0.3,0.3-0.4
		c0.2-0.3,0.4-0.4,0.6-0.6c0.3-0.2,0.4-0.3,0.7-0.4c0.3-0.1,0.6-0.1,0.7-0.1c0.2,0,0.2,0,0.4,0c0.3,0,0.6-0.1,0.6-0.1
		c0.1,0,0.2-0.1,0.3-0.1c0.1,0,0.1,0.1,0.2,0.1c0.2,0,0.3-0.1,0.5-0.1c0.1,0,0.1,0,0.5,0.1c0.8,0.3,0.9,0.3,1,0.5
		c0.1,0.1,0.1,0.3,0.2,0.3s0.2-0.1,0.4,0c0,0,0.1,0,0.2,0.1s0.1,0.2,0.2,0.4c0.1,0.1,0.1,0.1,0.3,0.3c0,0,0.1,0.1,0.4,0.4
		c0.3,0.3,0.7,0.7,0.7,1.2c0,0.2-0.1,0.3-0.1,0.4c0,0.1,0.1,0,0.2,0c0.1,0.1,0.1,0.3,0.1,0.3c0,0.5,0.1,0.5,0.1,1.5
		c0,0.4,0,0.6-0.1,0.9c-0.1,0.2-0.1,0.3-0.2,0.5c-0.1,0.3,0,0.4-0.1,0.6c-0.1,0.2-0.2,0.2-0.3,0.5c-0.1,0.2-0.2,0.3-0.2,0.4
		c-0.2,0.6-0.5,0.8-1.2,1.8c-0.2,0.3-0.3,0.5-0.4,0.6c-0.2,0.1-0.4,0.1-0.7,0.3c-0.1,0.1-0.2,0.2-0.2,0.2c-0.3,0.4-1.1,0.3-2.7,0.2
		c-0.4,0-0.7-0.1-1-0.2c-0.2-0.1-0.9-0.3-0.9-0.7c0-0.2,0.1-0.2,0-0.4s-0.3-0.2-0.5-0.3c-0.1-0.1-0.3-0.3-0.5-0.6
		c-0.4-0.6-0.4-0.7-0.4-0.8c0-0.2,0.1-0.3,0.1-0.5s-0.1-0.2-0.2-0.5c-0.2-0.4-0.4-0.7-0.4-1.1c0-0.2,0.1-0.1,0.1-0.3s0-0.3-0.1-0.7
		c0-0.3,0-0.5,0-0.6s0.1-0.1,0.1-0.2c0-0.1-0.1-0.1-0.1-0.3s0.1-0.3,0.1-0.4c0.1-0.1,0.1-0.1,0.2-0.1L78.8,178.4z"/>
	<path class="st3" d="M80.4,180.1c0-0.5,0.1-0.6,0.2-0.7c0.1-0.1,0.2-0.1,0.3-0.2c0-0.1,0-0.1,0.1-0.3c0-0.1,0.1-0.2,0.2-0.3
		c0.1-0.2,0.3-0.3,0.4-0.4c0.2-0.1,0.3-0.2,0.4-0.3c0.2-0.1,0.4-0.1,0.4-0.1c0.1,0,0.1,0,0.3,0c0.2,0,0.4-0.1,0.4-0.1
		c0.1,0,0.1,0,0.2,0s0.1,0,0.2,0.1c0.1,0,0.2,0,0.3-0.1c0.1,0,0.1,0,0.3,0.1c0.5,0.2,0.6,0.2,0.7,0.3s0.1,0.2,0.2,0.2s0.1,0,0.3,0
		c0,0,0.1,0,0.2,0.1s0.1,0.1,0.1,0.2c0,0.1,0.1,0.1,0.2,0.2c0,0,0.1,0.1,0.3,0.2c0.2,0.2,0.5,0.4,0.5,0.8c0,0.1-0.1,0.2,0,0.2h0.1
		c0.1,0,0,0.2,0,0.2c0,0.3,0.1,0.3,0.1,1c0,0.3,0,0.4,0,0.6c0,0.1-0.1,0.2-0.1,0.3c0,0.2,0,0.2,0,0.4c0,0.1-0.1,0.1-0.2,0.3
		c-0.1,0.1-0.1,0.2-0.1,0.3c-0.1,0.4-0.3,0.5-0.8,1.2c-0.1,0.2-0.2,0.3-0.3,0.4c-0.1,0.1-0.3,0.1-0.4,0.2c-0.1,0.1-0.1,0.1-0.1,0.1
		c-0.2,0.3-0.7,0.2-1.7,0.1c-0.2,0-0.4,0-0.7-0.1c-0.2-0.1-0.6-0.2-0.6-0.4c0-0.1,0-0.1,0-0.2c0-0.1-0.2-0.1-0.3-0.2
		c-0.1-0.1-0.2-0.2-0.3-0.4c-0.3-0.4-0.3-0.5-0.3-0.5c0-0.1,0.1-0.2,0-0.3c0-0.1-0.1-0.2-0.1-0.3c-0.1-0.2-0.3-0.5-0.2-0.7
		c0-0.1,0-0.1,0-0.2c0-0.1,0-0.2,0-0.4s0-0.3,0-0.4c0-0.1,0.1-0.1,0.1-0.1c0-0.1-0.1-0.1-0.1-0.2c0-0.1,0-0.2,0.1-0.2
		C80.3,180.2,80.4,180.2,80.4,180.1L80.4,180.1z"/>
</g>
</svg>
