<?xml version="1.0" encoding="utf-8"?>
<!-- Generator: Adobe Illustrator 22.0.1, SVG Export Plug-In . SVG Version: 6.00 Build 0)  -->
<svg version="1.1" id="Layer_1" xmlns="http://www.w3.org/2000/svg" xmlns:xlink="http://www.w3.org/1999/xlink" x="0px" y="0px"
	 viewBox="0 0 300 300" style="enable-background:new 0 0 300 300;" xml:space="preserve">
<style type="text/css">
	.st0{fill:#B0C7DC;}
	.st1{enable-background:new    ;}
	.st2{fill:none;stroke:#000000;stroke-width:2.5;stroke-miterlimit:10;}
</style>
<rect x="11.4" y="15.9" class="st0" width="277.2" height="268.2"/>
<g>
	<g class="st1">
		<path d="M46.2,61.5c-1.9,0-3.5-0.4-4.9-1.2c-1.4-0.8-2.4-1.9-3.2-3.3c-0.7-1.4-1.1-3.1-1.1-5c0-1.9,0.4-3.6,1.1-5s1.8-2.5,3.2-3.3
			c1.4-0.8,3-1.2,4.9-1.2c1.7,0,3.2,0.4,4.5,1.2c1.3,0.8,2.3,1.8,3,3.1l-3.8,1.4c-0.4-0.7-0.9-1.3-1.6-1.6c-0.7-0.3-1.4-0.5-2.2-0.5
			c-0.8,0-1.6,0.2-2.3,0.7c-0.7,0.5-1.2,1.1-1.6,2c-0.4,0.9-0.6,2-0.6,3.2c0,1.9,0.4,3.4,1.3,4.4s2,1.5,3.3,1.5
			c0.7,0,1.4-0.1,2.2-0.4s1.3-0.8,1.7-1.6l3.8,1.4c-0.7,1.3-1.8,2.3-3.1,3.1C49.4,61.1,47.9,61.5,46.2,61.5z"/>
		<path d="M60.3,61.1c-1.1,0-2-0.1-2.7-0.3c-0.7-0.2-1.1-0.6-1.4-1.1c-0.3-0.6-0.4-1.4-0.4-2.4V42.8H60v13.4c0,0.6,0.1,1.1,0.4,1.2
			c0.3,0.2,0.7,0.3,1.4,0.3H63v3.4H60.3z"/>
		<path d="M65.6,61.1V50.7H63v-3.2h6.8v13.6H65.6z M67.7,45.3c-0.7,0-1.3-0.2-1.7-0.7c-0.5-0.5-0.7-1.1-0.7-1.7
			c0-0.7,0.2-1.3,0.7-1.8c0.5-0.5,1.1-0.7,1.7-0.7c0.7,0,1.3,0.2,1.8,0.7c0.5,0.5,0.7,1.1,0.7,1.8c0,0.7-0.2,1.3-0.7,1.7
			C69,45.1,68.4,45.3,67.7,45.3z"/>
		<path d="M72.3,61.1V47.5H76l0.5,1.8c0.3-0.5,0.8-1,1.5-1.5c0.7-0.5,1.6-0.7,2.6-0.7c1.1,0,1.9,0.2,2.6,0.6c0.6,0.4,1.1,1,1.4,1.7
			c0.5-0.7,1.2-1.3,2-1.7c0.8-0.4,1.7-0.6,2.6-0.6c1.7,0,2.9,0.5,3.6,1.5c0.7,1,1,2.4,1,4.2v8.3h-4.2v-7.2c0-0.6,0-1.2-0.1-1.8
			c-0.1-0.5-0.3-1-0.5-1.3c-0.3-0.3-0.8-0.5-1.5-0.5c-0.8,0-1.5,0.3-1.8,0.9c-0.4,0.6-0.6,1.5-0.6,2.7v7.2H81v-7.2
			c0-0.6,0-1.2-0.1-1.8s-0.2-1-0.5-1.3c-0.3-0.3-0.8-0.5-1.4-0.5c-0.9,0-1.5,0.3-1.9,0.9c-0.4,0.6-0.6,1.5-0.6,2.7v7.1H72.3z"/>
		<path d="M100.6,61.5c-0.9,0-1.6-0.2-2.4-0.5c-0.7-0.3-1.3-0.8-1.7-1.4c-0.4-0.6-0.6-1.3-0.6-2.1c0-1.1,0.4-2,1.2-2.7
			c0.8-0.7,1.8-1.2,3.2-1.5s2.9-0.6,4.7-0.7c0-1-0.2-1.7-0.5-2.1s-0.9-0.6-1.8-0.6c-0.6,0-1.1,0.1-1.5,0.4c-0.4,0.3-0.7,0.7-0.9,1.2
			l-3.5-1.3c0.5-0.9,1.2-1.7,2.3-2.3s2.4-0.9,3.9-0.9c1.9,0,3.4,0.4,4.5,1.3s1.6,2.3,1.6,4.4v3c0,0.6,0,1.2,0.1,1.9
			c0,0.7,0.1,1.3,0.2,1.9c0.1,0.6,0.2,1.1,0.2,1.5h-3.9l-0.5-1.6c-0.5,0.7-1.2,1.2-1.9,1.5C102.4,61.3,101.6,61.5,100.6,61.5z
			 M102.1,58.6c0.8,0,1.5-0.2,2.1-0.7s0.8-1.3,0.8-2.5v-0.3c-1.4,0.1-2.6,0.3-3.5,0.6s-1.3,0.8-1.3,1.5c0,0.4,0.2,0.8,0.5,1.1
			C101.1,58.5,101.6,58.6,102.1,58.6z"/>
		<path d="M117.5,61.1c-1.1,0-2-0.1-2.7-0.3c-0.7-0.2-1.1-0.6-1.4-1.1c-0.3-0.6-0.4-1.4-0.4-2.4v-6.6h-2.2v-3.2h2.2v-3.4h4.2v3.4h3
			v3.2h-3v5.5c0,0.6,0.1,1.1,0.4,1.2s0.7,0.3,1.4,0.3h1.2v3.4H117.5z"/>
		<path d="M128.9,61.5c-1.5,0-2.8-0.3-3.9-0.9c-1.1-0.6-2-1.4-2.6-2.5c-0.6-1.1-0.9-2.4-0.9-3.9c0-1.4,0.3-2.7,1-3.8
			c0.7-1.1,1.6-1.9,2.7-2.5c1.1-0.6,2.3-0.9,3.6-0.9c1.5,0,2.8,0.4,3.8,1.1s1.9,1.7,2.4,2.9c0.5,1.2,0.8,2.7,0.7,4.3h-10.1
			c0.1,1,0.4,1.7,1.1,2.1c0.6,0.5,1.3,0.7,2.1,0.7c0.6,0,1.2-0.1,1.7-0.3s0.8-0.4,1.1-0.7l3.3,1.2c-0.7,1-1.6,1.8-2.7,2.3
			S130,61.5,128.9,61.5z M125.6,52.9h6.2c0-0.9-0.3-1.5-0.9-2c-0.6-0.4-1.3-0.7-2.1-0.7c-0.8,0-1.5,0.2-2.1,0.6
			C126.1,51.3,125.8,52,125.6,52.9z"/>
		<path d="M146.3,61.1V42.8h6.5l3.8,13.1l3.9-13.1h6.5v18.3h-4.2V46.8l-4.4,14.4h-3.6l-4.3-14.4v14.4H146.3z"/>
		<path d="M176,61.5c-1.3,0-2.4-0.3-3.5-0.8c-1.1-0.5-2-1.3-2.7-2.4s-1-2.4-1-4c0-1.6,0.3-3,1-4c0.7-1,1.6-1.8,2.7-2.3
			c1.1-0.5,2.3-0.8,3.5-0.8c1.2,0,2.4,0.3,3.5,0.8c1.1,0.5,2,1.3,2.7,2.3c0.7,1.1,1,2.4,1,4c0,1.6-0.3,3-1,4
			c-0.7,1.1-1.6,1.9-2.7,2.4C178.4,61.2,177.2,61.5,176,61.5z M176,58.2c0.8,0,1.5-0.3,2.1-0.9c0.6-0.6,0.8-1.6,0.8-3
			c0-1.4-0.3-2.5-0.9-3s-1.3-0.9-2.1-0.9c-0.8,0-1.5,0.3-2.1,0.9s-0.9,1.6-0.9,3c0,1.4,0.3,2.4,0.8,3
			C174.4,57.9,175.1,58.2,176,58.2z"/>
		<path d="M190.5,61.5c-1.2,0-2.2-0.3-3.1-0.9s-1.6-1.4-2.1-2.5c-0.5-1.1-0.8-2.4-0.8-3.8s0.3-2.7,0.8-3.8c0.5-1,1.2-1.9,2.1-2.4
			s1.9-0.8,3.1-0.8c0.7,0,1.5,0.2,2.3,0.6c0.8,0.4,1.4,0.9,1.8,1.7v-6.6h4.2v13c0,0.7,0,1.5,0.1,2.4c0.1,0.9,0.2,1.9,0.4,2.9h-4
			l-0.5-1.8c-0.6,0.8-1.2,1.3-2,1.7C192,61.3,191.2,61.5,190.5,61.5z M191.8,58.2c0.8,0,1.5-0.3,2.1-0.9s0.9-1.6,0.9-3
			c0-1.4-0.3-2.4-0.9-3c-0.6-0.6-1.3-0.9-2.1-0.9c-0.8,0-1.5,0.3-2.1,1c-0.6,0.7-0.9,1.6-0.9,2.8c0,1.3,0.3,2.2,0.9,2.9
			C190.3,57.9,191,58.2,191.8,58.2z"/>
		<path d="M208.2,61.5c-1.5,0-2.8-0.3-3.9-0.9s-2-1.4-2.6-2.5c-0.6-1.1-0.9-2.4-0.9-3.9c0-1.4,0.3-2.7,1-3.8
			c0.7-1.1,1.6-1.9,2.7-2.5c1.1-0.6,2.3-0.9,3.6-0.9c1.5,0,2.8,0.4,3.8,1.1s1.9,1.7,2.4,2.9c0.5,1.2,0.8,2.7,0.7,4.3H205
			c0.1,1,0.4,1.7,1.1,2.1c0.6,0.5,1.3,0.7,2.1,0.7c0.6,0,1.2-0.1,1.7-0.3c0.5-0.2,0.8-0.4,1.1-0.7l3.3,1.2c-0.7,1-1.6,1.8-2.7,2.3
			S209.4,61.5,208.2,61.5z M205,52.9h6.2c0-0.9-0.3-1.5-0.9-2c-0.6-0.4-1.3-0.7-2.1-0.7c-0.8,0-1.5,0.2-2.1,0.6
			C205.5,51.3,205.1,52,205,52.9z"/>
		<path d="M221.5,61.1c-1.1,0-2-0.1-2.7-0.3c-0.7-0.2-1.1-0.6-1.4-1.1c-0.3-0.6-0.4-1.4-0.4-2.4V42.8h4.2v13.4
			c0,0.6,0.1,1.1,0.4,1.2s0.7,0.3,1.4,0.3h1.2v3.4H221.5z"/>
		<path d="M226.7,61.1V50.7h-2.6v-3.2h6.8v13.6H226.7z M228.8,45.3c-0.7,0-1.3-0.2-1.7-0.7c-0.5-0.5-0.7-1.1-0.7-1.7
			c0-0.7,0.2-1.3,0.7-1.8c0.5-0.5,1.1-0.7,1.7-0.7c0.7,0,1.3,0.2,1.8,0.7c0.5,0.5,0.7,1.1,0.7,1.8c0,0.7-0.2,1.3-0.7,1.7
			C230.1,45.1,229.5,45.3,228.8,45.3z"/>
		<path d="M233.5,61.1V47.5h3.6l0.5,1.8c0.3-0.5,0.8-1,1.5-1.5c0.7-0.5,1.6-0.7,2.6-0.7c1.8,0,3,0.5,3.6,1.5c0.6,1,1,2.4,1,4.2v8.3
			h-4.2v-7.2c0-0.6,0-1.2-0.1-1.8s-0.3-1-0.5-1.3c-0.3-0.3-0.8-0.5-1.4-0.5c-0.9,0-1.5,0.3-1.9,0.9c-0.4,0.6-0.6,1.6-0.6,2.8v7
			H233.5z"/>
		<path d="M255.8,66.7c-0.7,0-1.5-0.1-2.3-0.3c-0.8-0.2-1.5-0.5-2.1-1s-1.2-1.1-1.6-1.9l3.4-1.2c0.3,0.5,0.6,0.8,1.1,1
			c0.5,0.2,1,0.3,1.4,0.3c0.9,0,1.6-0.2,2.1-0.6c0.5-0.4,0.8-1.1,0.8-2v-2.4c-0.6,0.7-1.3,1.3-2,1.6c-0.8,0.3-1.5,0.5-2.3,0.5
			c-1,0-1.9-0.3-2.8-0.8c-0.9-0.5-1.6-1.3-2.2-2.3c-0.6-1-0.8-2.2-0.8-3.5c0-1.6,0.3-2.9,0.8-3.9c0.6-1,1.3-1.8,2.2-2.3
			c0.9-0.5,1.8-0.7,2.7-0.7c0.9,0,1.7,0.2,2.5,0.6s1.4,1,2,1.7l0.5-1.9h3.6v12.6c0,2.3-0.6,3.9-1.8,5
			C259.7,66.2,258,66.7,255.8,66.7z M255.8,57.4c0.5,0,1-0.1,1.5-0.3s0.8-0.6,1.1-1.1c0.3-0.5,0.4-1.2,0.4-2.1
			c0-1.3-0.3-2.3-0.9-2.8c-0.6-0.5-1.3-0.8-2.1-0.8c-0.8,0-1.5,0.3-2.1,0.8s-0.9,1.4-0.9,2.6c0,1.2,0.3,2.1,0.9,2.7
			C254.3,57.1,255,57.4,255.8,57.4z"/>
	</g>
</g>
<g>
	<circle class="st2" cx="150" cy="165.1" r="76"/>
	<line class="st2" x1="150" y1="89.1" x2="150" y2="241.1"/>
	<line class="st2" x1="226" y1="165.1" x2="74" y2="165.1"/>
	<line class="st2" x1="212.6" y1="122" x2="87" y2="122.5"/>
	<line class="st2" x1="212.6" y1="207.7" x2="87" y2="208.2"/>
	<path class="st2" d="M150,89.1c3.8,3,37.2,30.2,37,77.2c-0.1,44.9-30.7,71.4-34.8,74.9"/>
	<path class="st2" d="M149.8,89.1c-3.8,3-36.7,30.2-36.6,77.2c0.1,44.9,30.3,71.4,34.4,74.9"/>
</g>
</svg>
