<?xml version="1.0" encoding="utf-8"?>
<!-- Generator: Adobe Illustrator 22.0.1, SVG Export Plug-In . SVG Version: 6.00 Build 0)  -->
<svg version="1.1" id="Layer_1" xmlns="http://www.w3.org/2000/svg" xmlns:xlink="http://www.w3.org/1999/xlink" x="0px" y="0px"
	 viewBox="0 0 300 300" style="enable-background:new 0 0 300 300;" xml:space="preserve">
<style type="text/css">
	.st0{fill:#B0C7DC;}
	.st1{font-family:'AtkinsonHyperlegible-Bold';}
	.st2{font-size:27.3951px;}
	.st3{fill:none;stroke:#000000;stroke-width:2.5;stroke-miterlimit:10;}
</style>
<rect x="11.7" y="15.3" class="st0" width="276.5" height="261.3"/>
<g>
	<text transform="matrix(1 0 0 1 100.6744 62.9187)"><tspan x="0" y="0" class="st1 st2">IPCC I:</tspan><tspan x="-46.5" y="32.9" class="st1 st2">Physical Basis</tspan></text>
</g>
<g>
	<path class="st3" d="M85,128.7l0.4,120.6l0.1,4.2c0.1,0.4,0.3,0.9,0.6,1.3c1.2,1.7,3.3,1.8,3.7,1.8h4.5"/>
	<g>
		<path class="st3" d="M153,256.6c9.2,0,18.4,0,27.6-0.1c6.7,0,12.8,0.2,11.6-8.8"/>
		<path class="st3" d="M192.3,248c0-4.7,0-9.4,0-14.2"/>
		<line class="st3" x1="153" y1="256.6" x2="89.7" y2="256.6"/>
	</g>
	<g>
		<path class="st3" d="M192.4,157.3c0-8.6,0-17.2-0.1-25.8c0-6.3,0.2-12-8.8-10.9"/>
		<path class="st3" d="M183.8,120.7c-4.7,0-9.4,0-14.2,0"/>
	</g>
	<g>
		<path class="st3" d="M124.4,120.5c-9.2,0-18.4,0-27.6,0.1c-6.7,0-12.8-0.2-11.6,8.8"/>
		<path class="st3" d="M85.2,129.1c0,4.7,0,9.4,0,14.2"/>
		<line class="st3" x1="124.4" y1="120.5" x2="187.7" y2="120.5"/>
	</g>
	<path class="st3" d="M96.6,139.5l0.3,98.5l0,3.4c0.1,0.3,0.2,0.7,0.5,1.1c1,1.4,2.7,1.5,3,1.5h3.6"/>
	<g>
		<path class="st3" d="M152.1,243.9c7.5,0,15,0,22.6-0.1c5.5,0,10.5,0.2,9.5-7.2"/>
		<path class="st3" d="M184.2,236.9c0-1.5,0-3.1,0-4.6"/>
		<line class="st3" x1="152.1" y1="243.9" x2="100.5" y2="243.9"/>
	</g>
	<g>
		<path class="st3" d="M184.3,158.4c0-6,0-11.9-0.1-17.9c0-4.3,0.2-8.3-7.2-7.5"/>
		<path class="st3" d="M177.3,132.9c-3.9,0-7.7,0-11.6,0"/>
	</g>
	<g>
		<path class="st3" d="M128.8,132.8c-7.5,0-15,0-22.6,0.1c-5.5,0-10.5-0.2-9.5,7.2"/>
		<path class="st3" d="M96.7,139.8c0,3.9,0,7.7,0,11.6"/>
		<line class="st3" x1="128.8" y1="132.8" x2="180.5" y2="132.8"/>
	</g>
	<rect x="140.2" y="157.3" class="st3" width="80.4" height="75"/>
	<polyline class="st3" points="109.3,219.9 116.4,227.3 126.7,208.2 	"/>
	<polyline class="st3" points="109.3,190.8 116.4,198.2 126.7,179.1 	"/>
	<polyline class="st3" points="109.3,162.4 116.4,169.9 126.7,150.7 	"/>
	<g>
		<path class="st3" d="M150.4,141.6c-8.6,0-17.2,0-25.8-0.1c-6.3,0-12,0.2-10.9-8.2"/>
		<path class="st3" d="M113.7,133.6c0-4.4,0-8.8,0-13.1"/>
	</g>
	<g>
		<path class="st3" d="M128.8,141.7c8.6,0,17.2,0,25.8-0.1c6.3,0,12,0.2,10.9-8.2"/>
		<path class="st3" d="M165.5,133.8c0-4.4,0-8.8,0-13.1"/>
	</g>
	<path class="st3" d="M173.3,170.9c0.5,0.2,3.5,1.7,4.3,4.9c0.6,2.4-0.3,4.4-0.6,5.1c-1.1,2.5-2.5,2.3-3.7,4.7
		c-0.4,0.8-0.4,1.2-0.8,6.5c-0.4,5.1-0.4,5.7-0.8,6.9c-0.3,0.8-1.1,2.9-3,4.7c-2.8,2.5-6.2,2.9-7.7,3c-1.3,0.1-2.5,0.1-3.3,0"/>
	<path class="st3" d="M190.6,171.5c-0.3,0.1-3.7,1.4-4.7,4.9c-0.1,0.2-0.9,3.6,1,5.7c1.3,1.5,2.5,0.7,5.7,2.2c3,1.4,3.1,2.7,5.3,3.5
		c1.4,0.5,3.6,0.7,6.9-0.6"/>
	<path class="st3" d="M181.5,220.1c0-1.8-0.1-4.4-0.8-7.5c-0.7-3.2-1.3-3.7-1.3-5.7c0-0.7-0.1-5.8,3.4-8.7c2.9-2.3,6.3-1.8,7.4-1.6
		c4.7,0.7,7.7,4.4,9.5,6.7c1.5,1.9,2.5,3.7,3.1,4.9"/>
	<circle class="st3" cx="180.7" cy="195.3" r="25.7"/>
</g>
</svg>
