<?xml version="1.0" encoding="utf-8"?>
<!-- Generator: Adobe Illustrator 22.0.1, SVG Export Plug-In . SVG Version: 6.00 Build 0)  -->
<svg version="1.1" id="Layer_1" xmlns="http://www.w3.org/2000/svg" xmlns:xlink="http://www.w3.org/1999/xlink" x="0px" y="0px"
	 viewBox="0 0 300 300" style="enable-background:new 0 0 300 300;" xml:space="preserve">
<style type="text/css">
	.st0{fill:#E99668;}
	.st1{font-family:'AtkinsonHyperlegible-Bold';}
	.st2{font-size:27.3951px;}
	.st3{fill:none;stroke:#000000;stroke-width:2.5;stroke-miterlimit:10;}
</style>
<rect x="13.6" y="13.7" class="st0" width="277.2" height="261.3"/>
<g>
	<text transform="matrix(1 0 0 1 70.4342 72.9068)" class="st1 st2">Projects Day</text>
</g>
<g>
	<path class="st3" d="M112.5,246.2c2.3,0.2,5.1,0.3,8.2,0c2.4-0.2,4.4-0.6,6.2-1.1l1.9-0.7c0.2,0,0.4-0.1,0.7-0.3
		c0.7-0.5,0.7-1.7,0.7-2.3c-0.1-3.5-0.5-5.7-0.5-5.7c-0.8-4.4-0.7-4.2-0.9-4.9c-0.5-1.6-1-3.2-2.4-4.8c-0.2-0.3-1.4-1.5-3.3-2.4
		c-2.1-1-4-1.1-5-1.1h-5.6"/>
	<path class="st3" d="M113.1,246.2c-2.3,0.2-5.1,0.3-8.2,0c-2.4-0.2-4.4-0.6-6.2-1.1l-1.9-0.7c-0.2,0-0.4-0.1-0.7-0.3
		c-0.7-0.5-0.7-1.7-0.7-2.3c0.1-3.5,0.5-5.7,0.5-5.7c0.8-4.4,0.7-4.2,0.9-4.9c0.5-1.6,1-3.2,2.4-4.8c0.2-0.3,1.4-1.5,3.3-2.4
		c2.1-1,4-1.1,5-1.1h5.6"/>
	<circle class="st3" cx="112.3" cy="212.1" r="10.8"/>
	<path class="st3" d="M156,246.2c2.3,0.2,5.1,0.3,8.2,0c2.4-0.2,4.4-0.6,6.2-1.1l1.9-0.7c0.2,0,0.4-0.1,0.7-0.3
		c0.7-0.5,0.7-1.7,0.7-2.3c-0.1-3.5-0.5-5.7-0.5-5.7c-0.8-4.4-0.7-4.2-0.9-4.9c-0.5-1.6-1-3.2-2.4-4.8c-0.2-0.3-1.4-1.5-3.3-2.4
		c-2.1-1-4-1.1-5-1.1H156"/>
	<path class="st3" d="M156.7,246.2c-2.3,0.2-5.1,0.3-8.2,0c-2.4-0.2-4.4-0.6-6.2-1.1l-1.9-0.7c-0.2,0-0.4-0.1-0.7-0.3
		c-0.7-0.5-0.7-1.7-0.7-2.3c0.1-3.5,0.5-5.7,0.5-5.7c0.8-4.4,0.7-4.2,0.9-4.9c0.5-1.6,1-3.2,2.4-4.8c0.2-0.3,1.4-1.5,3.3-2.4
		c2.1-1,4-1.1,5-1.1h5.6"/>
	<circle class="st3" cx="155.9" cy="212.1" r="10.8"/>
	<path class="st3" d="M199.8,246.2c2.3,0.2,5.1,0.3,8.2,0c2.4-0.2,4.4-0.6,6.2-1.1l1.9-0.7c0.2,0,0.4-0.1,0.7-0.3
		c0.7-0.5,0.7-1.7,0.7-2.3c-0.1-3.5-0.5-5.7-0.5-5.7c-0.8-4.4-0.7-4.2-0.9-4.9c-0.5-1.6-1-3.2-2.4-4.8c-0.2-0.3-1.4-1.5-3.3-2.4
		c-2.1-1-4-1.1-5-1.1h-5.6"/>
	<path class="st3" d="M200.5,246.2c-2.3,0.2-5.1,0.3-8.2,0c-2.4-0.2-4.4-0.6-6.2-1.1l-1.9-0.7c-0.2,0-0.4-0.1-0.7-0.3
		c-0.7-0.5-0.7-1.7-0.7-2.3c0.1-3.5,0.5-5.7,0.5-5.7c0.8-4.4,0.7-4.2,0.9-4.9c0.5-1.6,1-3.2,2.4-4.8c0.2-0.3,1.4-1.5,3.3-2.4
		c2.1-1,4-1.1,5-1.1h5.6"/>
	<circle class="st3" cx="199.7" cy="212.2" r="10.8"/>
	<line class="st3" x1="112.3" y1="179.1" x2="200.5" y2="179.4"/>
	<line class="st3" x1="156.4" y1="190.7" x2="156.4" y2="169"/>
	<line class="st3" x1="200.5" y1="178.2" x2="200.5" y2="190.7"/>
	<line class="st3" x1="112.3" y1="177.9" x2="112.3" y2="190.7"/>
	<path class="st3" d="M156.5,112.8c-1.9-0.1-6.5,0.1-10.9,3.1c-0.9,0.6-7.9,5.7-7.4,13.8c0.3,4.7,3,8,4.1,9.1l1.3,1.4
		c0.5,0.3,1.1,0.7,1.6,1.4c1.3,1.6,1.4,3.4,1.5,4l0.1,9.1c0,0.5,0,0.9,0,1.4s0,0.5,0,0.6c0.2,0.7,2.4,0.6,5,0.6c0.9,0,2.3,0,4,0"/>
	<path class="st3" d="M154.9,112.8c1.9-0.1,6.5,0.1,10.9,3.1c0.9,0.6,7.9,5.7,7.4,13.8c-0.3,4.7-3,8-4.1,9.1l-1.3,1.4
		c-0.5,0.3-1.1,0.7-1.6,1.4c-1.3,1.6-1.4,3.4-1.5,4l-0.1,9.1c0,0.5,0,0.9,0,1.4s0,0.5,0,0.6c-0.2,0.7-2.4,0.6-5,0.6
		c-0.9,0-2.3,0-4,0"/>
	<line class="st3" x1="146.7" y1="147.8" x2="164.7" y2="147.8"/>
	<line class="st3" x1="156.5" y1="94.8" x2="156.5" y2="104.8"/>
	<line class="st3" x1="180.3" y1="104.8" x2="173.2" y2="111.6"/>
	<line class="st3" x1="190.2" y1="128.7" x2="179.7" y2="128.7"/>
	<line class="st3" x1="133" y1="105.9" x2="140.1" y2="112.8"/>
	<line class="st3" x1="123.1" y1="129.9" x2="133.6" y2="129.9"/>
	<polyline class="st3" points="149.7,128.7 154.3,133.5 162.5,124.8 	"/>
	<path class="st3" d="M151.5,157.3c0.6,0.7,2.2,2.3,4.6,2.5c2.7,0.2,4.6-1.7,5.2-2.3"/>
</g>
</svg>
