<?xml version="1.0" encoding="utf-8"?>
<!-- Generator: Adobe Illustrator 22.0.1, SVG Export Plug-In . SVG Version: 6.00 Build 0)  -->
<svg version="1.1" id="Layer_1" xmlns="http://www.w3.org/2000/svg" xmlns:xlink="http://www.w3.org/1999/xlink" x="0px" y="0px"
	 viewBox="0 0 300 300" style="enable-background:new 0 0 300 300;" xml:space="preserve">
<style type="text/css">
	.st0{fill:#79BAB8;}
	.st1{font-family:'AtkinsonHyperlegible-Bold';}
	.st2{font-size:27.3951px;}
	.st3{fill:none;stroke:#000000;stroke-width:2.5;stroke-miterlimit:10;}
</style>
<rect x="11.4" y="19.3" class="st0" width="277.2" height="261.3"/>
<g>
	<text transform="matrix(1 0 0 1 66.601 64.7241)"><tspan x="0" y="0" class="st1 st2">Adaptation &amp;</tspan><tspan x="38.8" y="32.9" class="st1 st2">Impact</tspan></text>
</g>
<g>
	<path class="st3" d="M168.6,202.6c6.1-2.2,12-3.7,16.6-4.7c8.4-1.8,15.5-2.7,17.3-2.9c7.8-0.9,14.7-1.2,19.9-1.3"/>
	<path class="st3" d="M112.6,257.9c12.7-12,25-20.2,34.6-25.7c17.5-10.1,32.3-14.7,36.1-15.8c16.3-4.9,30.7-6.5,41.6-6.9"/>
	<path class="st3" d="M142,257.9c9.3-8.6,18.4-14.5,25.5-18.4c12.9-7.2,23.8-10.5,26.6-11.3c12-3.5,22.7-4.7,30.7-5"/>
	<path class="st3" d="M174.7,257.9c5.7-4.3,11.1-7.2,15.4-9.2c7.8-3.6,14.4-5.3,16.1-5.7c7.3-1.8,13.7-2.3,18.6-2.5"/>
	<path class="st3" d="M82.8,178.6c15.4,1.7,33.2,4.9,52.6,10.8c13.2,4,25.2,8.7,35.7,13.5"/>
	<path class="st3" d="M82.8,194.9c9,0.9,19.4,2.8,30.8,6.1c7.7,2.3,14.7,4.9,20.9,7.6"/>
	<path class="st3" d="M84,209.4c7.4,1,16,2.9,25.4,6.4c6.4,2.4,12.1,5.2,17.2,8"/>
	<path class="st3" d="M84,225.8c4.6,0.6,9.8,1.8,15.6,4.1c3.9,1.5,7.5,3.3,10.6,5.1"/>
	<g>
		<g>
			<g>
				<path class="st3" d="M199.8,136.2c0.9-0.8,2.3-2,3.5-3.9c1.1-1.6,3.5-5.3,3.1-10.2c-0.5-5.9-4.7-9.4-5.5-10l-1.9-1.1"/>
			</g>
			<g>
				<path class="st3" d="M199.8,136.2c-0.9-0.8-2.3-2-3.5-3.9c-1.1-1.6-3.5-5.3-3.1-10.2c0.5-5.9,4.7-9.4,5.5-10l1.9-1.1"/>
			</g>
		</g>
		<g>
			<g>
				<path class="st3" d="M198.9,155.4c0.2-1.3,0.3-3.1-0.1-5.3c-0.3-1.9-1-6.4-4.5-9.6c-4.2-3.8-9.5-3.2-10.5-3l-2.1,0.6"/>
			</g>
			<g>
				<path class="st3" d="M198.9,155.4c-1.2,0.1-3,0.2-5-0.2c-1.8-0.3-6-1.1-9-5c-3.5-4.5-2.8-10.2-2.7-11.2l0.6-2.2"/>
			</g>
		</g>
		<g>
			<g>
				<path class="st3" d="M198.9,182.9c0.2-1.3,0.3-3.1-0.1-5.3c-0.3-1.9-1-6.4-4.5-9.6c-4.2-3.8-9.5-3.2-10.5-3l-2.1,0.6"/>
			</g>
			<g>
				<path class="st3" d="M198.9,182.9c-1.2,0.1-3,0.2-5-0.2c-1.8-0.3-6-1.1-9-5c-3.5-4.5-2.8-10.2-2.7-11.2l0.6-2.2"/>
			</g>
		</g>
		<g>
			<g>
				<path class="st3" d="M199.1,163c-0.2-1.3-0.3-3.1,0.1-5.3c0.3-1.9,1-6.4,4.5-9.6c4.2-3.8,9.5-3.2,10.5-3l2.1,0.6"/>
			</g>
			<g>
				<path class="st3" d="M199.1,163c1.2,0.1,3,0.2,5-0.2c1.8-0.3,6-1.1,9-5c3.5-4.5,2.8-10.2,2.7-11.2l-0.6-2.2"/>
			</g>
		</g>
		<g>
			<g>
				<path class="st3" d="M199,190.6c-0.2-1.3-0.3-3.1,0.1-5.3c0.3-1.9,1-6.4,4.5-9.6c4.2-3.8,9.5-3.2,10.5-3l2.1,0.6"/>
			</g>
			<g>
				<path class="st3" d="M199,190.6c1.2,0.1,3,0.2,5-0.2c1.8-0.3,6-1.1,9-5c3.5-4.5,2.8-10.2,2.7-11.2l-0.6-2.2"/>
			</g>
		</g>
		<line class="st3" x1="198.8" y1="135" x2="198.8" y2="196.1"/>
	</g>
	<g>
		<g>
			<g>
				<path class="st3" d="M106.5,138c0.7-0.6,1.6-1.5,2.5-2.8c0.8-1.2,2.6-3.8,2.3-7.4c-0.3-4.3-3.4-6.8-4-7.2l-1.4-0.8"/>
			</g>
			<g>
				<path class="st3" d="M106.5,138c-0.7-0.6-1.6-1.5-2.5-2.8c-0.8-1.2-2.6-3.8-2.3-7.4c0.3-4.3,3.4-6.8,4-7.2l1.4-0.8"/>
			</g>
		</g>
		<g>
			<g>
				<path class="st3" d="M105.9,151.9c0.1-0.9,0.2-2.3-0.1-3.9c-0.2-1.4-0.7-4.6-3.3-7c-3.1-2.8-6.9-2.3-7.6-2.2l-1.5,0.4"/>
			</g>
			<g>
				<path class="st3" d="M105.9,151.9c-0.9,0.1-2.1,0.2-3.7-0.1c-1.3-0.2-4.4-0.8-6.5-3.6c-2.6-3.3-2.1-7.4-2-8.1l0.4-1.6"/>
			</g>
		</g>
		<g>
			<g>
				<path class="st3" d="M105.9,171.9c0.1-0.9,0.2-2.3-0.1-3.9c-0.2-1.4-0.7-4.6-3.3-7c-3.1-2.8-6.9-2.3-7.6-2.2l-1.5,0.4"/>
			</g>
			<g>
				<path class="st3" d="M105.9,171.9c-0.9,0.1-2.1,0.2-3.7-0.1c-1.3-0.2-4.4-0.8-6.5-3.6c-2.6-3.3-2.1-7.4-2-8.1l0.4-1.6"/>
			</g>
		</g>
		<g>
			<g>
				<path class="st3" d="M106,157.5c-0.1-0.9-0.2-2.3,0.1-3.9c0.2-1.4,0.7-4.6,3.3-7c3.1-2.8,6.9-2.3,7.6-2.2l1.5,0.4"/>
			</g>
			<g>
				<path class="st3" d="M106,157.5c0.9,0.1,2.1,0.2,3.7-0.1c1.3-0.2,4.4-0.8,6.5-3.6c2.6-3.3,2.1-7.4,2-8.1l-0.4-1.6"/>
			</g>
		</g>
		<g>
			<g>
				<path class="st3" d="M106,177.5c-0.1-0.9-0.2-2.3,0.1-3.9c0.2-1.4,0.7-4.6,3.3-7c3.1-2.8,6.9-2.3,7.6-2.2l1.5,0.4"/>
			</g>
			<g>
				<path class="st3" d="M106,177.4c0.9,0.1,2.1,0.2,3.7-0.1c1.3-0.2,4.4-0.8,6.5-3.6c2.6-3.3,2.1-7.4,2-8.1l-0.4-1.6"/>
			</g>
		</g>
		<line class="st3" x1="105.8" y1="137.1" x2="105.8" y2="181.4"/>
	</g>
	<g>
		<g>
			<g>
				<path class="st3" d="M151.8,160c1.1-0.9,2.6-2.4,4.1-4.5c1.2-1.9,4.1-6.2,3.7-12c-0.6-6.9-5.5-10.9-6.4-11.7l-2.2-1.3"/>
			</g>
			<g>
				<path class="st3" d="M151.8,160c-1.1-0.9-2.6-2.4-4.1-4.5c-1.2-1.9-4.1-6.2-3.7-12c0.6-6.9,5.5-10.9,6.4-11.7l2.2-1.3"/>
			</g>
		</g>
		<g>
			<g>
				<path class="st3" d="M150.7,182.4c0.2-1.5,0.3-3.7-0.1-6.3c-0.3-2.2-1.2-7.5-5.3-11.3c-4.9-4.5-11.2-3.7-12.3-3.5l-2.4,0.7"/>
			</g>
			<g>
				<path class="st3" d="M150.7,182.4c-1.4,0.2-3.5,0.3-5.9-0.2c-2.1-0.4-7-1.3-10.5-5.8c-4.2-5.3-3.3-11.9-3.1-13.1l0.7-2.6"/>
			</g>
		</g>
		<g>
			<g>
				<path class="st3" d="M150.8,214.6c0.2-1.5,0.3-3.7-0.1-6.3c-0.3-2.2-1.2-7.5-5.3-11.3c-4.9-4.5-11.2-3.7-12.3-3.5l-2.4,0.7"/>
			</g>
			<g>
				<path class="st3" d="M150.8,214.6c-1.4,0.2-3.5,0.3-5.9-0.2c-2.1-0.4-7-1.3-10.5-5.8c-4.2-5.3-3.3-11.9-3.1-13.1l0.7-2.6"/>
			</g>
		</g>
		<g>
			<g>
				<path class="st3" d="M151,191.3c-0.2-1.5-0.3-3.7,0.1-6.3c0.3-2.2,1.2-7.5,5.3-11.3c4.9-4.5,11.2-3.7,12.3-3.5l2.4,0.7"/>
			</g>
			<g>
				<path class="st3" d="M151,191.3c1.4,0.2,3.5,0.3,5.9-0.2c2.1-0.4,7-1.3,10.5-5.8c4.2-5.3,3.3-11.9,3.1-13.1l-0.7-2.6"/>
			</g>
		</g>
		<g>
			<g>
				<path class="st3" d="M150.9,223.6c-0.2-1.5-0.3-3.7,0.1-6.3c0.3-2.2,1.2-7.5,5.3-11.3c4.9-4.5,11.2-3.7,12.3-3.5l2.4,0.7"/>
			</g>
			<g>
				<path class="st3" d="M150.9,223.6c1.4,0.2,3.5,0.3,5.9-0.2c2.1-0.4,7-1.3,10.5-5.8c4.2-5.3,3.3-11.9,3.1-13.1l-0.7-2.6"/>
			</g>
		</g>
		<line class="st3" x1="150.6" y1="158.5" x2="150.6" y2="230"/>
	</g>
	<path class="st3" d="M84,258.1c17.5-17.7,37.5-32.4,59.3-43.5"/>
</g>
</svg>
