<?xml version="1.0" encoding="utf-8"?>
<!-- Generator: Adobe Illustrator 22.0.1, SVG Export Plug-In . SVG Version: 6.00 Build 0)  -->
<svg version="1.1" id="Layer_1" xmlns="http://www.w3.org/2000/svg" xmlns:xlink="http://www.w3.org/1999/xlink" x="0px" y="0px"
	 viewBox="0 0 300 300" style="enable-background:new 0 0 300 300;" xml:space="preserve">
<style type="text/css">
	.st0{fill:#79BAB8;}
	.st1{enable-background:new    ;}
	.st2{fill:none;stroke:#000000;stroke-width:2.5;stroke-miterlimit:10;}
</style>
<rect x="11.4" y="19.3" class="st0" width="277.2" height="261.3"/>
<g>
	<g class="st1">
		<path d="M66.7,64.7l6.9-18.3h4.8l6.9,18.3h-4.7l-1.1-3.3h-7l-1.1,3.3H66.7z M73.7,58h4.7L76,51L73.7,58z"/>
		<path d="M92.2,65.1c-1.2,0-2.2-0.3-3.1-0.9c-0.9-0.6-1.6-1.4-2.1-2.5c-0.5-1.1-0.8-2.4-0.8-3.8s0.3-2.7,0.8-3.8
			c0.5-1,1.2-1.9,2.1-2.4c0.9-0.6,1.9-0.8,3.1-0.8c0.7,0,1.5,0.2,2.3,0.6c0.8,0.4,1.4,0.9,1.8,1.7v-6.6h4.2v13c0,0.7,0,1.5,0.1,2.4
			c0.1,0.9,0.2,1.9,0.4,2.9h-4l-0.5-1.8c-0.6,0.8-1.2,1.3-2,1.7C93.7,64.9,92.9,65.1,92.2,65.1z M93.5,61.8c0.8,0,1.5-0.3,2.1-0.9
			c0.6-0.6,0.9-1.6,0.9-3c0-1.4-0.3-2.4-0.9-3C95,54.3,94.3,54,93.5,54c-0.8,0-1.5,0.3-2.1,1c-0.6,0.7-0.9,1.6-0.9,2.8
			c0,1.3,0.3,2.2,0.9,2.9C92,61.5,92.7,61.8,93.5,61.8z"/>
		<path d="M107.2,65.1c-0.9,0-1.6-0.2-2.4-0.5c-0.7-0.3-1.3-0.8-1.7-1.4c-0.4-0.6-0.6-1.3-0.6-2.1c0-1.1,0.4-2,1.2-2.7
			c0.8-0.7,1.8-1.2,3.2-1.5s2.9-0.6,4.7-0.7c0-1-0.2-1.7-0.5-2.1s-0.9-0.6-1.8-0.6c-0.6,0-1.1,0.1-1.5,0.4c-0.4,0.3-0.7,0.7-0.9,1.2
			l-3.5-1.3c0.5-0.9,1.2-1.7,2.3-2.3s2.4-0.9,3.9-0.9c1.9,0,3.4,0.4,4.5,1.3s1.6,2.3,1.6,4.4v3c0,0.6,0,1.2,0.1,1.9
			c0,0.7,0.1,1.3,0.2,1.9c0.1,0.6,0.2,1.1,0.2,1.5h-3.9l-0.5-1.6c-0.5,0.7-1.2,1.2-1.9,1.5C109,64.9,108.1,65.1,107.2,65.1z
			 M108.7,62.2c0.8,0,1.5-0.2,2.1-0.7s0.8-1.3,0.8-2.5v-0.3c-1.4,0.1-2.6,0.3-3.5,0.6s-1.3,0.8-1.3,1.5c0,0.4,0.2,0.8,0.5,1.1
			C107.7,62.1,108.2,62.2,108.7,62.2z"/>
		<path d="M118.3,69.1v-18h3.6l0.5,1.9c0.4-0.7,1.1-1.3,1.8-1.7c0.8-0.4,1.6-0.6,2.3-0.6c1.2,0,2.2,0.3,3.1,0.9
			c0.9,0.6,1.6,1.4,2.1,2.5s0.8,2.3,0.8,3.8s-0.3,2.8-0.8,3.8s-1.2,1.9-2.1,2.5c-0.9,0.6-1.9,0.8-3.1,0.8c-0.7,0-1.5-0.2-2.3-0.6
			c-0.8-0.4-1.4-1-1.8-1.7v6.4H118.3z M125.3,61.8c0.8,0,1.5-0.3,2.1-1c0.6-0.7,0.9-1.6,0.9-2.9c0-1.2-0.3-2.2-0.9-2.9
			c-0.6-0.7-1.3-1-2.1-1c-0.8,0-1.5,0.3-2.1,0.9c-0.6,0.6-0.9,1.6-0.9,3c0,1.4,0.3,2.4,0.9,3C123.8,61.5,124.5,61.8,125.3,61.8z"/>
		<path d="M140.4,64.7c-1.1,0-2-0.1-2.7-0.3c-0.7-0.2-1.1-0.6-1.4-1.1c-0.3-0.6-0.4-1.4-0.4-2.4v-6.6h-2.2v-3.2h2.2v-3.4h4.2v3.4h3
			v3.2h-3v5.5c0,0.6,0.1,1.1,0.4,1.2s0.7,0.3,1.4,0.3h1.2v3.4H140.4z"/>
		<path d="M149,65.1c-0.9,0-1.6-0.2-2.4-0.5c-0.7-0.3-1.3-0.8-1.7-1.4c-0.4-0.6-0.6-1.3-0.6-2.1c0-1.1,0.4-2,1.2-2.7
			c0.8-0.7,1.8-1.2,3.2-1.5s2.9-0.6,4.7-0.7c0-1-0.2-1.7-0.5-2.1s-0.9-0.6-1.8-0.6c-0.6,0-1.1,0.1-1.5,0.4c-0.4,0.3-0.7,0.7-0.9,1.2
			l-3.5-1.3c0.5-0.9,1.2-1.7,2.3-2.3s2.4-0.9,3.9-0.9c1.9,0,3.4,0.4,4.5,1.3s1.6,2.3,1.6,4.4v3c0,0.6,0,1.2,0.1,1.9
			c0,0.7,0.1,1.3,0.2,1.9s0.2,1.1,0.2,1.5h-3.9l-0.5-1.6c-0.5,0.7-1.2,1.2-1.9,1.5C150.9,64.9,150,65.1,149,65.1z M150.6,62.2
			c0.8,0,1.5-0.2,2.1-0.7s0.8-1.3,0.8-2.5v-0.3c-1.4,0.1-2.6,0.3-3.5,0.6s-1.3,0.8-1.3,1.5c0,0.4,0.2,0.8,0.5,1.1
			C149.6,62.1,150,62.2,150.6,62.2z"/>
		<path d="M165.9,64.7c-1.1,0-2-0.1-2.7-0.3c-0.7-0.2-1.1-0.6-1.4-1.1c-0.3-0.6-0.4-1.4-0.4-2.4v-6.6h-2.2v-3.2h2.2v-3.4h4.2v3.4h3
			v3.2h-3v5.5c0,0.6,0.1,1.1,0.4,1.2c0.2,0.2,0.7,0.3,1.4,0.3h1.2v3.4H165.9z"/>
		<path d="M172.5,64.7V54.3h-2.6v-3.2h6.8v13.6H172.5z M174.6,48.9c-0.7,0-1.3-0.2-1.7-0.7c-0.5-0.5-0.7-1.1-0.7-1.7
			c0-0.7,0.2-1.3,0.7-1.8c0.5-0.5,1.1-0.7,1.7-0.7c0.7,0,1.3,0.2,1.8,0.7c0.5,0.5,0.7,1.1,0.7,1.8c0,0.7-0.2,1.3-0.7,1.7
			C175.8,48.6,175.3,48.9,174.6,48.9z"/>
		<path d="M185.7,65.1c-1.3,0-2.4-0.3-3.5-0.8c-1.1-0.5-2-1.3-2.7-2.4s-1-2.4-1-4c0-1.6,0.3-3,1-4c0.7-1,1.6-1.8,2.7-2.3
			c1.1-0.5,2.3-0.8,3.5-0.8c1.2,0,2.4,0.3,3.5,0.8c1.1,0.5,2,1.3,2.7,2.3c0.7,1.1,1,2.4,1,4c0,1.6-0.3,3-1,4s-1.6,1.9-2.7,2.4
			C188.1,64.8,187,65.1,185.7,65.1z M185.7,61.8c0.8,0,1.5-0.3,2.1-0.9c0.6-0.6,0.8-1.6,0.8-3c0-1.4-0.3-2.5-0.9-3s-1.3-0.9-2.1-0.9
			c-0.8,0-1.5,0.3-2.1,0.9s-0.9,1.6-0.9,3c0,1.4,0.3,2.4,0.8,3S184.9,61.8,185.7,61.8z"/>
		<path d="M194.9,64.7V51.1h3.6l0.5,1.8c0.3-0.5,0.8-1,1.5-1.5c0.7-0.5,1.6-0.7,2.6-0.7c1.8,0,3,0.5,3.6,1.5c0.6,1,1,2.4,1,4.2v8.3
			h-4.2v-7.2c0-0.6,0-1.2-0.1-1.8c-0.1-0.5-0.3-1-0.5-1.3c-0.3-0.3-0.8-0.5-1.4-0.5c-0.9,0-1.5,0.3-1.9,0.9
			c-0.4,0.6-0.6,1.6-0.6,2.8v7H194.9z"/>
		<path d="M225.3,65.1c-1.3,0-2.4-0.3-3.5-0.8c-1-0.5-1.8-1.2-2.3-2.1c-0.6-0.9-0.8-1.8-0.8-2.7c0-1,0.3-2,1-2.9
			c0.7-1,1.8-1.8,3.3-2.4c-0.6-0.7-1-1.5-1.3-2.2s-0.4-1.4-0.4-2c0-0.9,0.3-1.7,0.8-2.4c0.5-0.7,1.2-1.2,2-1.6
			c0.9-0.4,1.8-0.6,2.9-0.6c0.9,0,1.7,0.2,2.5,0.6c0.8,0.4,1.4,1,2,1.7c0.5,0.7,0.8,1.5,0.8,2.4c0,0.8-0.3,1.6-0.8,2.5
			c-0.5,0.9-1.4,1.7-2.7,2.4l2.6,3c0.3-0.5,0.7-1.2,0.9-1.8c0.3-0.7,0.5-1.4,0.6-2.2h3.5c-0.2,1.4-0.6,2.6-1.1,3.8s-1.1,2.1-1.6,2.9
			l3.4,4h-4.8l-1.3-1.5c-1,0.6-2,1.1-3,1.4S226.1,65.1,225.3,65.1z M225.8,61.7c0.4,0,0.9-0.1,1.4-0.2c0.5-0.2,1-0.4,1.5-0.7
			l-3.5-3.9c-0.8,0.3-1.4,0.7-1.7,1.2c-0.4,0.5-0.5,0.9-0.5,1.4c0,0.6,0.3,1.2,0.8,1.6S225,61.7,225.8,61.7z M226.8,52.8
			c0.7-0.4,1.2-0.8,1.5-1.2s0.5-0.9,0.5-1.3c0-0.5-0.2-0.9-0.5-1.2c-0.4-0.3-0.8-0.5-1.4-0.5c-0.5,0-0.9,0.1-1.2,0.4
			c-0.3,0.3-0.5,0.6-0.5,1.1c0,0.3,0.1,0.8,0.4,1.2C225.7,51.7,226.2,52.2,226.8,52.8z"/>
	</g>
	<g class="st1">
		<path d="M107,97.6v-3.4h2.6V82.7H107v-3.4h9.4v3.4h-2.5v11.5h2.5v3.4H107z"/>
		<path d="M119.3,97.6V84h3.6l0.5,1.8c0.3-0.5,0.8-1,1.5-1.5c0.7-0.5,1.6-0.7,2.6-0.7c1.1,0,1.9,0.2,2.6,0.6c0.6,0.4,1.1,1,1.4,1.7
			c0.5-0.7,1.2-1.3,2-1.7c0.8-0.4,1.7-0.6,2.6-0.6c1.7,0,2.9,0.5,3.6,1.5c0.7,1,1,2.4,1,4.2v8.3h-4.2v-7.2c0-0.6,0-1.2-0.1-1.8
			c-0.1-0.5-0.3-1-0.5-1.3c-0.3-0.3-0.8-0.5-1.5-0.5c-0.8,0-1.5,0.3-1.8,0.9c-0.4,0.6-0.6,1.5-0.6,2.7v7.2H128v-7.2
			c0-0.6,0-1.2-0.1-1.8s-0.2-1-0.5-1.3c-0.3-0.3-0.8-0.5-1.4-0.5c-0.9,0-1.5,0.3-1.9,0.9c-0.4,0.6-0.6,1.5-0.6,2.7v7.1H119.3z"/>
		<path d="M143.6,102V84h3.6l0.5,1.9c0.4-0.7,1.1-1.3,1.8-1.7c0.8-0.4,1.6-0.6,2.3-0.6c1.2,0,2.2,0.3,3.1,0.9
			c0.9,0.6,1.6,1.4,2.1,2.5c0.5,1.1,0.8,2.3,0.8,3.8s-0.3,2.8-0.8,3.8c-0.5,1.1-1.2,1.9-2.1,2.5c-0.9,0.6-1.9,0.8-3.1,0.8
			c-0.7,0-1.5-0.2-2.3-0.6c-0.8-0.4-1.4-1-1.8-1.7v6.4H143.6z M150.6,94.7c0.8,0,1.5-0.3,2.1-1c0.6-0.7,0.9-1.6,0.9-2.9
			c0-1.2-0.3-2.2-0.9-2.9c-0.6-0.7-1.3-1-2.1-1c-0.8,0-1.5,0.3-2.1,0.9c-0.6,0.6-0.9,1.6-0.9,3c0,1.4,0.3,2.4,0.9,3
			C149,94.4,149.8,94.7,150.6,94.7z"/>
		<path d="M163.9,98c-0.9,0-1.6-0.2-2.4-0.5c-0.7-0.3-1.3-0.8-1.7-1.4c-0.4-0.6-0.6-1.3-0.6-2.1c0-1.1,0.4-2,1.2-2.7
			s1.8-1.2,3.2-1.5s2.9-0.6,4.7-0.7c0-1-0.2-1.7-0.5-2.1s-0.9-0.6-1.8-0.6c-0.6,0-1.1,0.1-1.5,0.4c-0.4,0.3-0.7,0.7-0.9,1.2
			l-3.5-1.3c0.5-0.9,1.2-1.7,2.3-2.3s2.4-0.9,3.9-0.9c1.9,0,3.4,0.4,4.5,1.3s1.6,2.3,1.6,4.4v3c0,0.6,0,1.2,0.1,1.9
			c0,0.7,0.1,1.3,0.2,1.9c0.1,0.6,0.2,1.1,0.2,1.5h-3.9l-0.5-1.6c-0.5,0.7-1.2,1.2-1.9,1.5C165.7,97.8,164.9,98,163.9,98z
			 M165.4,95.1c0.8,0,1.5-0.2,2.1-0.7s0.8-1.3,0.8-2.5v-0.3c-1.4,0.1-2.6,0.3-3.5,0.6c-0.9,0.3-1.3,0.8-1.3,1.5
			c0,0.4,0.2,0.8,0.5,1.1C164.4,95,164.9,95.1,165.4,95.1z"/>
		<path d="M181.3,98c-1.5,0-2.8-0.3-3.8-0.9c-1-0.6-1.8-1.4-2.4-2.5c-0.5-1.1-0.8-2.3-0.8-3.8s0.3-2.7,0.9-3.7
			c0.6-1.1,1.4-1.9,2.5-2.5c1.1-0.6,2.3-0.9,3.6-0.9c0.8,0,1.6,0.1,2.3,0.3c0.8,0.2,1.5,0.6,2.2,1.1c0.7,0.5,1.2,1.2,1.6,2.1
			l-3.5,1.3c-0.2-0.6-0.5-1-1-1.2c-0.4-0.2-0.9-0.4-1.4-0.4c-0.5,0-1,0.1-1.4,0.4c-0.5,0.2-0.8,0.7-1.1,1.2
			c-0.3,0.6-0.4,1.3-0.4,2.3c0,1,0.1,1.8,0.4,2.3s0.7,1,1.1,1.2c0.4,0.2,0.9,0.4,1.4,0.4c0.6,0,1.1-0.1,1.5-0.3
			c0.4-0.2,0.7-0.5,1-0.9l3.4,1.2c-0.5,0.8-1,1.5-1.7,2c-0.7,0.5-1.4,0.8-2.2,1C182.8,97.9,182,98,181.3,98z"/>
		<path d="M195,97.6c-1.1,0-2-0.1-2.7-0.3c-0.7-0.2-1.1-0.6-1.4-1.1c-0.3-0.6-0.4-1.4-0.4-2.4v-6.6h-2.2V84h2.2v-3.4h4.2V84h3v3.2
			h-3v5.5c0,0.6,0.1,1.1,0.4,1.2c0.2,0.2,0.7,0.3,1.4,0.3h1.2v3.4H195z"/>
	</g>
</g>
<g>
	<path class="st2" d="M168.6,202.6c6.1-2.2,12-3.7,16.6-4.7c8.4-1.8,15.5-2.7,17.3-2.9c7.8-0.9,14.7-1.2,19.9-1.3"/>
	<path class="st2" d="M112.6,257.9c12.7-12,25-20.2,34.6-25.7c17.5-10.1,32.3-14.7,36.1-15.8c16.3-4.9,30.7-6.5,41.6-6.9"/>
	<path class="st2" d="M142,257.9c9.3-8.6,18.4-14.5,25.5-18.4c12.9-7.2,23.8-10.5,26.6-11.3c12-3.5,22.7-4.7,30.7-5"/>
	<path class="st2" d="M174.7,257.9c5.7-4.3,11.1-7.2,15.4-9.2c7.8-3.6,14.4-5.3,16.1-5.7c7.3-1.8,13.7-2.3,18.6-2.5"/>
	<path class="st2" d="M82.8,178.6c15.4,1.7,33.2,4.9,52.6,10.8c13.2,4,25.2,8.7,35.7,13.5"/>
	<path class="st2" d="M82.8,194.9c9,0.9,19.4,2.8,30.8,6.1c7.7,2.3,14.7,4.9,20.9,7.6"/>
	<path class="st2" d="M84,209.4c7.4,1,16,2.9,25.4,6.4c6.4,2.4,12.1,5.2,17.2,8"/>
	<path class="st2" d="M84,225.8c4.6,0.6,9.8,1.8,15.6,4.1c3.9,1.5,7.5,3.3,10.6,5.1"/>
	<g>
		<g>
			<g>
				<path class="st2" d="M199.8,136.2c0.9-0.8,2.3-2,3.5-3.9c1.1-1.6,3.5-5.3,3.1-10.2c-0.5-5.9-4.7-9.4-5.5-10L199,111"/>
			</g>
			<g>
				<path class="st2" d="M199.8,136.2c-0.9-0.8-2.3-2-3.5-3.9c-1.1-1.6-3.5-5.3-3.1-10.2c0.5-5.9,4.7-9.4,5.5-10l1.9-1.1"/>
			</g>
		</g>
		<g>
			<g>
				<path class="st2" d="M198.9,155.4c0.2-1.3,0.3-3.1-0.1-5.3c-0.3-1.9-1-6.4-4.5-9.6c-4.2-3.8-9.5-3.2-10.5-3l-2.1,0.6"/>
			</g>
			<g>
				<path class="st2" d="M198.9,155.4c-1.2,0.1-3,0.2-5-0.2c-1.8-0.3-6-1.1-9-5c-3.5-4.5-2.8-10.2-2.7-11.2l0.6-2.2"/>
			</g>
		</g>
		<g>
			<g>
				<path class="st2" d="M198.9,182.9c0.2-1.3,0.3-3.1-0.1-5.3c-0.3-1.9-1-6.4-4.5-9.6c-4.2-3.8-9.5-3.2-10.5-3l-2.1,0.6"/>
			</g>
			<g>
				<path class="st2" d="M198.9,182.9c-1.2,0.1-3,0.2-5-0.2c-1.8-0.3-6-1.1-9-5c-3.5-4.5-2.8-10.2-2.7-11.2l0.6-2.2"/>
			</g>
		</g>
		<g>
			<g>
				<path class="st2" d="M199.1,163c-0.2-1.3-0.3-3.1,0.1-5.3c0.3-1.9,1-6.4,4.5-9.6c4.2-3.8,9.5-3.2,10.5-3l2.1,0.6"/>
			</g>
			<g>
				<path class="st2" d="M199.1,163c1.2,0.1,3,0.2,5-0.2c1.8-0.3,6-1.1,9-5c3.5-4.5,2.8-10.2,2.7-11.2l-0.6-2.2"/>
			</g>
		</g>
		<g>
			<g>
				<path class="st2" d="M199,190.6c-0.2-1.3-0.3-3.1,0.1-5.3c0.3-1.9,1-6.4,4.5-9.6c4.2-3.8,9.5-3.2,10.5-3l2.1,0.6"/>
			</g>
			<g>
				<path class="st2" d="M199,190.6c1.2,0.1,3,0.2,5-0.2c1.8-0.3,6-1.1,9-5c3.5-4.5,2.8-10.2,2.7-11.2l-0.6-2.2"/>
			</g>
		</g>
		<line class="st2" x1="198.8" y1="135" x2="198.8" y2="196.1"/>
	</g>
	<g>
		<g>
			<g>
				<path class="st2" d="M106.5,138c0.7-0.6,1.6-1.5,2.5-2.8c0.8-1.2,2.6-3.8,2.3-7.4c-0.3-4.3-3.4-6.8-4-7.2l-1.4-0.8"/>
			</g>
			<g>
				<path class="st2" d="M106.5,138c-0.7-0.6-1.6-1.5-2.5-2.8c-0.8-1.2-2.6-3.8-2.3-7.4c0.3-4.3,3.4-6.8,4-7.2l1.4-0.8"/>
			</g>
		</g>
		<g>
			<g>
				<path class="st2" d="M105.9,151.9c0.1-0.9,0.2-2.3-0.1-3.9c-0.2-1.4-0.7-4.6-3.3-7c-3.1-2.8-6.9-2.3-7.6-2.2l-1.5,0.4"/>
			</g>
			<g>
				<path class="st2" d="M105.9,151.9c-0.9,0.1-2.1,0.2-3.7-0.1c-1.3-0.2-4.4-0.8-6.5-3.6c-2.6-3.3-2.1-7.4-2-8.1l0.4-1.6"/>
			</g>
		</g>
		<g>
			<g>
				<path class="st2" d="M105.9,171.9c0.1-0.9,0.2-2.3-0.1-3.9c-0.2-1.4-0.7-4.6-3.3-7c-3.1-2.8-6.9-2.3-7.6-2.2l-1.5,0.4"/>
			</g>
			<g>
				<path class="st2" d="M105.9,171.9c-0.9,0.1-2.1,0.2-3.7-0.1c-1.3-0.2-4.4-0.8-6.5-3.6c-2.6-3.3-2.1-7.4-2-8.1l0.4-1.6"/>
			</g>
		</g>
		<g>
			<g>
				<path class="st2" d="M106,157.5c-0.1-0.9-0.2-2.3,0.1-3.9c0.2-1.4,0.7-4.6,3.3-7c3.1-2.8,6.9-2.3,7.6-2.2l1.5,0.4"/>
			</g>
			<g>
				<path class="st2" d="M106,157.5c0.9,0.1,2.1,0.2,3.7-0.1c1.3-0.2,4.4-0.8,6.5-3.6c2.6-3.3,2.1-7.4,2-8.1l-0.4-1.6"/>
			</g>
		</g>
		<g>
			<g>
				<path class="st2" d="M106,177.5c-0.1-0.9-0.2-2.3,0.1-3.9c0.2-1.4,0.7-4.6,3.3-7c3.1-2.8,6.9-2.3,7.6-2.2l1.5,0.4"/>
			</g>
			<g>
				<path class="st2" d="M106,177.4c0.9,0.1,2.1,0.2,3.7-0.1c1.3-0.2,4.4-0.8,6.5-3.6c2.6-3.3,2.1-7.4,2-8.1l-0.4-1.6"/>
			</g>
		</g>
		<line class="st2" x1="105.8" y1="137.1" x2="105.8" y2="181.4"/>
	</g>
	<g>
		<g>
			<g>
				<path class="st2" d="M151.8,160c1.1-0.9,2.6-2.4,4.1-4.5c1.2-1.9,4.1-6.2,3.7-12c-0.6-6.9-5.5-10.9-6.4-11.7l-2.2-1.3"/>
			</g>
			<g>
				<path class="st2" d="M151.8,160c-1.1-0.9-2.6-2.4-4.1-4.5c-1.2-1.9-4.1-6.2-3.7-12c0.6-6.9,5.5-10.9,6.4-11.7l2.2-1.3"/>
			</g>
		</g>
		<g>
			<g>
				<path class="st2" d="M150.7,182.4c0.2-1.5,0.3-3.7-0.1-6.3c-0.3-2.2-1.2-7.5-5.3-11.3c-4.9-4.5-11.2-3.7-12.3-3.5l-2.4,0.7"/>
			</g>
			<g>
				<path class="st2" d="M150.7,182.4c-1.4,0.2-3.5,0.3-5.9-0.2c-2.1-0.4-7-1.3-10.5-5.8c-4.2-5.3-3.3-11.9-3.1-13.1l0.7-2.6"/>
			</g>
		</g>
		<g>
			<g>
				<path class="st2" d="M150.8,214.6c0.2-1.5,0.3-3.7-0.1-6.3c-0.3-2.2-1.2-7.5-5.3-11.3c-4.9-4.5-11.2-3.7-12.3-3.5l-2.4,0.7"/>
			</g>
			<g>
				<path class="st2" d="M150.8,214.6c-1.4,0.2-3.5,0.3-5.9-0.2c-2.1-0.4-7-1.3-10.5-5.8c-4.2-5.3-3.3-11.9-3.1-13.1l0.7-2.6"/>
			</g>
		</g>
		<g>
			<g>
				<path class="st2" d="M151,191.3c-0.2-1.5-0.3-3.7,0.1-6.3c0.3-2.2,1.2-7.5,5.3-11.3c4.9-4.5,11.2-3.7,12.3-3.5l2.4,0.7"/>
			</g>
			<g>
				<path class="st2" d="M151,191.3c1.4,0.2,3.5,0.3,5.9-0.2c2.1-0.4,7-1.3,10.5-5.8c4.2-5.3,3.3-11.9,3.1-13.1l-0.7-2.6"/>
			</g>
		</g>
		<g>
			<g>
				<path class="st2" d="M150.9,223.6c-0.2-1.5-0.3-3.7,0.1-6.3c0.3-2.2,1.2-7.5,5.3-11.3c4.9-4.5,11.2-3.7,12.3-3.5l2.4,0.7"/>
			</g>
			<g>
				<path class="st2" d="M150.9,223.6c1.4,0.2,3.5,0.3,5.9-0.2c2.1-0.4,7-1.3,10.5-5.8c4.2-5.3,3.3-11.9,3.1-13.1l-0.7-2.6"/>
			</g>
		</g>
		<line class="st2" x1="150.6" y1="158.5" x2="150.6" y2="230"/>
	</g>
	<path class="st2" d="M84,258.1c17.5-17.7,37.5-32.4,59.3-43.5"/>
</g>
</svg>
