<?xml version="1.0" encoding="utf-8"?>
<!-- Generator: Adobe Illustrator 22.0.1, SVG Export Plug-In . SVG Version: 6.00 Build 0)  -->
<svg version="1.1" id="Layer_1" xmlns="http://www.w3.org/2000/svg" xmlns:xlink="http://www.w3.org/1999/xlink" x="0px" y="0px"
	 viewBox="0 0 300 300" style="enable-background:new 0 0 300 300;" xml:space="preserve">
<style type="text/css">
	.st0{fill:#F4C690;}
	.st1{enable-background:new    ;}
	.st2{fill:none;stroke:#000000;stroke-width:3;stroke-miterlimit:10;}
</style>
<rect x="11.4" y="15.9" class="st0" width="277.2" height="268.2"/>
<g>
	<g class="st1">
		<path d="M34.8,56.9c-1.9,0-3.5-0.4-4.9-1.2c-1.4-0.8-2.5-1.9-3.3-3.3s-1.2-3.1-1.2-5c0-1.9,0.4-3.6,1.2-5s1.9-2.5,3.3-3.3
			c1.4-0.8,3.1-1.2,4.9-1.2c1.9,0,3.5,0.4,5,1.2c1.4,0.8,2.5,1.9,3.4,3.3c0.8,1.4,1.2,3.1,1.2,5c0,1.9-0.4,3.6-1.2,5
			c-0.8,1.4-1.9,2.5-3.4,3.3C38.3,56.5,36.7,56.9,34.8,56.9z M34.8,53.4c0.9,0,1.7-0.2,2.5-0.7c0.7-0.4,1.3-1.1,1.8-2
			c0.4-0.9,0.7-2,0.7-3.3c0-1.3-0.2-2.4-0.7-3.3s-1-1.5-1.8-2c-0.7-0.4-1.6-0.7-2.5-0.7c-0.9,0-1.7,0.2-2.4,0.7
			c-0.7,0.4-1.3,1.1-1.8,2c-0.4,0.9-0.7,2-0.7,3.3c0,1.3,0.2,2.4,0.7,3.3c0.4,0.9,1,1.5,1.8,2C33.1,53.1,33.9,53.4,34.8,53.4z"/>
		<path d="M52.9,56.9c-1.5,0-2.8-0.3-3.8-0.9c-1-0.6-1.8-1.4-2.4-2.5c-0.5-1.1-0.8-2.3-0.8-3.8s0.3-2.7,0.9-3.7
			c0.6-1.1,1.4-1.9,2.5-2.5c1.1-0.6,2.3-0.9,3.6-0.9c0.8,0,1.6,0.1,2.3,0.3c0.8,0.2,1.5,0.6,2.2,1.1c0.7,0.5,1.2,1.2,1.6,2.1
			l-3.5,1.3c-0.2-0.6-0.5-1-1-1.2c-0.4-0.2-0.9-0.4-1.4-0.4c-0.5,0-1,0.1-1.4,0.4c-0.5,0.2-0.8,0.7-1.1,1.2
			c-0.3,0.6-0.4,1.3-0.4,2.3c0,1,0.1,1.8,0.4,2.3c0.3,0.6,0.7,1,1.1,1.2c0.4,0.2,0.9,0.4,1.4,0.4c0.6,0,1.1-0.1,1.5-0.3
			c0.4-0.2,0.7-0.5,1-0.9l3.4,1.2c-0.5,0.8-1,1.5-1.7,2c-0.7,0.5-1.4,0.8-2.2,1C54.4,56.8,53.6,56.9,52.9,56.9z"/>
		<path d="M67.6,56.9c-1.5,0-2.8-0.3-3.9-0.9c-1.1-0.6-2-1.4-2.6-2.5c-0.6-1.1-0.9-2.4-0.9-3.9c0-1.4,0.3-2.7,1-3.8
			c0.7-1.1,1.6-1.9,2.7-2.5c1.1-0.6,2.3-0.9,3.6-0.9c1.5,0,2.8,0.4,3.8,1.1s1.9,1.7,2.4,2.9c0.5,1.2,0.8,2.7,0.7,4.3H64.4
			c0.1,1,0.4,1.7,1.1,2.1c0.6,0.5,1.3,0.7,2.1,0.7c0.6,0,1.2-0.1,1.7-0.3s0.8-0.4,1.1-0.7l3.3,1.2c-0.7,1-1.6,1.8-2.7,2.3
			S68.8,56.9,67.6,56.9z M64.4,48.4h6.2c0-0.9-0.3-1.5-0.9-2c-0.6-0.4-1.3-0.7-2.1-0.7c-0.8,0-1.5,0.2-2.1,0.6
			C64.9,46.8,64.5,47.4,64.4,48.4z"/>
		<path d="M80.4,56.9c-0.9,0-1.6-0.2-2.4-0.5c-0.7-0.3-1.3-0.8-1.7-1.4c-0.4-0.6-0.6-1.3-0.6-2.1c0-1.1,0.4-2,1.2-2.7
			c0.8-0.7,1.8-1.2,3.2-1.5s2.9-0.6,4.7-0.7c0-1-0.2-1.7-0.5-2.1s-0.9-0.6-1.8-0.6c-0.6,0-1.1,0.1-1.5,0.4c-0.4,0.3-0.7,0.7-0.9,1.2
			l-3.5-1.3c0.5-0.9,1.2-1.7,2.3-2.3s2.4-0.9,3.9-0.9c1.9,0,3.4,0.4,4.5,1.3s1.6,2.3,1.6,4.4v3c0,0.6,0,1.2,0.1,1.9
			c0,0.7,0.1,1.3,0.2,1.9c0.1,0.6,0.2,1.1,0.2,1.5h-3.9l-0.5-1.6c-0.5,0.7-1.2,1.2-1.9,1.5C82.2,56.8,81.3,56.9,80.4,56.9z
			 M81.9,54.1c0.8,0,1.5-0.2,2.1-0.7s0.8-1.3,0.8-2.5v-0.3c-1.4,0.1-2.6,0.3-3.5,0.6S80,51.9,80,52.6c0,0.4,0.2,0.8,0.5,1.1
			C80.9,53.9,81.4,54.1,81.9,54.1z"/>
		<path d="M91.6,56.6V43h3.6l0.5,1.8c0.3-0.5,0.8-1,1.5-1.5c0.7-0.5,1.6-0.7,2.6-0.7c1.8,0,3,0.5,3.6,1.5c0.6,1,1,2.4,1,4.2v8.3
			h-4.2v-7.2c0-0.6,0-1.2-0.1-1.8c-0.1-0.5-0.3-1-0.5-1.3c-0.3-0.3-0.8-0.5-1.4-0.5c-0.9,0-1.5,0.3-1.9,0.9
			c-0.4,0.6-0.6,1.6-0.6,2.8v7H91.6z"/>
		<path d="M106.5,51.5V48h8.9v3.5H106.5z"/>
		<path d="M116.2,56.6l6.9-18.3h4.8l6.9,18.3h-4.7l-1.1-3.3h-7l-1.1,3.3H116.2z M123.2,49.8h4.7l-2.4-7L123.2,49.8z"/>
		<path d="M140.9,56.6c-1.1,0-2-0.1-2.7-0.3c-0.7-0.2-1.1-0.6-1.4-1.1c-0.3-0.6-0.4-1.4-0.4-2.4v-6.6h-2.2V43h2.2v-3.4h4.2V43h3v3.2
			h-3v5.5c0,0.6,0.1,1.1,0.4,1.2s0.7,0.3,1.4,0.3h1.2v3.4H140.9z"/>
		<path d="M145.6,56.6V43h3.6l0.5,1.8c0.3-0.5,0.8-1,1.5-1.5c0.7-0.5,1.6-0.7,2.6-0.7c1.1,0,1.9,0.2,2.6,0.6c0.6,0.4,1.1,1,1.4,1.7
			c0.5-0.7,1.2-1.3,2-1.7c0.8-0.4,1.7-0.6,2.6-0.6c1.7,0,2.9,0.5,3.6,1.5c0.7,1,1,2.4,1,4.2v8.3H163v-7.2c0-0.6,0-1.2-0.1-1.8
			s-0.3-1-0.5-1.3c-0.3-0.3-0.8-0.5-1.5-0.5c-0.8,0-1.5,0.3-1.8,0.9c-0.4,0.6-0.6,1.5-0.6,2.7v7.2h-4.2v-7.2c0-0.6,0-1.2-0.1-1.8
			c-0.1-0.5-0.2-1-0.5-1.3c-0.3-0.3-0.8-0.5-1.4-0.5c-0.9,0-1.5,0.3-1.9,0.9c-0.4,0.6-0.6,1.5-0.6,2.7v7.1H145.6z"/>
		<path d="M176.2,56.9c-1.3,0-2.4-0.3-3.5-0.8c-1.1-0.5-2-1.3-2.7-2.4s-1-2.4-1-4c0-1.6,0.3-3,1-4c0.7-1,1.6-1.8,2.7-2.3
			c1.1-0.5,2.3-0.8,3.5-0.8c1.2,0,2.4,0.3,3.5,0.8c1.1,0.5,2,1.3,2.7,2.3c0.7,1.1,1,2.4,1,4c0,1.6-0.3,3-1,4s-1.6,1.9-2.7,2.4
			C178.6,56.7,177.4,56.9,176.2,56.9z M176.2,53.7c0.8,0,1.5-0.3,2.1-0.9c0.6-0.6,0.8-1.6,0.8-3c0-1.4-0.3-2.5-0.9-3
			c-0.6-0.6-1.3-0.9-2.1-0.9c-0.8,0-1.5,0.3-2.1,0.9s-0.9,1.6-0.9,3c0,1.4,0.3,2.4,0.8,3S175.3,53.7,176.2,53.7z"/>
		<path d="M191.2,56.9c-1.6,0-3-0.3-4.1-0.9c-1.2-0.6-2-1.4-2.5-2.6l3.5-1.3c0.2,0.6,0.6,1,1.2,1.3s1.3,0.4,2,0.4
			c0.7,0,1.3-0.1,1.8-0.3s0.8-0.5,0.8-0.9c0-0.3-0.2-0.5-0.5-0.7s-0.9-0.4-1.6-0.5l-2.4-0.4c-1.3-0.2-2.4-0.7-3.2-1.3
			c-0.8-0.7-1.2-1.6-1.2-2.7c0-0.9,0.3-1.7,0.9-2.4s1.3-1.1,2.3-1.4c0.9-0.3,2-0.5,3.1-0.5c1.3,0,2.5,0.2,3.6,0.7
			c1.1,0.5,1.9,1.2,2.4,2.3l-3.5,1.3c-0.1-0.5-0.4-0.8-0.9-1c-0.5-0.2-1-0.3-1.6-0.3c-1.5,0-2.2,0.4-2.2,1.1c0,0.3,0.1,0.5,0.4,0.7
			c0.3,0.2,0.7,0.3,1.3,0.4l2.5,0.5c1.6,0.3,2.9,0.7,3.6,1.3c0.8,0.6,1.2,1.4,1.2,2.5c0,1.1-0.3,1.9-0.9,2.7
			c-0.6,0.7-1.4,1.2-2.4,1.6C193.6,56.7,192.4,56.9,191.2,56.9z"/>
		<path d="M200,61V43h3.6l0.5,1.9c0.4-0.7,1.1-1.3,1.8-1.7c0.8-0.4,1.6-0.6,2.3-0.6c1.2,0,2.2,0.3,3.1,0.9c0.9,0.6,1.6,1.4,2.1,2.5
			c0.5,1.1,0.8,2.3,0.8,3.8s-0.3,2.8-0.8,3.8c-0.5,1.1-1.2,1.9-2.1,2.5c-0.9,0.6-1.9,0.8-3.1,0.8c-0.7,0-1.5-0.2-2.3-0.6
			c-0.8-0.4-1.4-1-1.8-1.7V61H200z M207,53.7c0.8,0,1.5-0.3,2.1-1c0.6-0.7,0.9-1.6,0.9-2.9c0-1.2-0.3-2.2-0.9-2.9
			c-0.6-0.7-1.3-1-2.1-1c-0.8,0-1.5,0.3-2.1,0.9c-0.6,0.6-0.9,1.6-0.9,3c0,1.4,0.3,2.4,0.9,3C205.4,53.4,206.1,53.7,207,53.7z"/>
		<path d="M216.3,56.6V38.3h4.2v6.5c0.3-0.5,0.8-1,1.5-1.5c0.7-0.5,1.6-0.7,2.6-0.7c1.8,0,3,0.5,3.6,1.5c0.6,1,1,2.4,1,4.2v8.3h-4.2
			v-7.2c0-0.6,0-1.2-0.1-1.8s-0.3-1-0.5-1.3c-0.3-0.3-0.8-0.5-1.4-0.5c-0.9,0-1.5,0.3-1.9,0.9c-0.4,0.6-0.6,1.6-0.6,2.8v7H216.3z"/>
		<path d="M238.5,56.9c-1.5,0-2.8-0.3-3.9-0.9s-2-1.4-2.6-2.5c-0.6-1.1-0.9-2.4-0.9-3.9c0-1.4,0.3-2.7,1-3.8
			c0.7-1.1,1.6-1.9,2.7-2.5c1.1-0.6,2.3-0.9,3.6-0.9c1.5,0,2.8,0.4,3.8,1.1s1.9,1.7,2.4,2.9c0.5,1.2,0.8,2.7,0.7,4.3h-10.1
			c0.1,1,0.4,1.7,1.1,2.1c0.6,0.5,1.3,0.7,2.1,0.7c0.6,0,1.2-0.1,1.7-0.3c0.5-0.2,0.8-0.4,1.1-0.7l3.3,1.2c-0.7,1-1.6,1.8-2.7,2.3
			S239.6,56.9,238.5,56.9z M235.2,48.4h6.2c0-0.9-0.3-1.5-0.9-2c-0.6-0.4-1.3-0.7-2.1-0.7c-0.8,0-1.5,0.2-2.1,0.6
			C235.7,46.8,235.4,47.4,235.2,48.4z"/>
		<path d="M247.3,56.6V43h3.3l0.7,2.5c0.4-1.1,1-1.9,1.7-2.3c0.7-0.4,1.6-0.6,2.7-0.6v4.2c-0.2,0-0.4-0.1-0.6-0.1
			c-0.2,0-0.3,0-0.5,0c-1,0-1.8,0.2-2.3,0.7c-0.5,0.5-0.8,1.3-0.8,2.3v6.8H247.3z"/>
		<path d="M264.2,56.9c-1.5,0-2.8-0.3-3.9-0.9s-2-1.4-2.6-2.5c-0.6-1.1-0.9-2.4-0.9-3.9c0-1.4,0.3-2.7,1-3.8
			c0.7-1.1,1.6-1.9,2.7-2.5c1.1-0.6,2.3-0.9,3.6-0.9c1.5,0,2.8,0.4,3.8,1.1s1.9,1.7,2.4,2.9c0.5,1.2,0.8,2.7,0.7,4.3h-10.1
			c0.1,1,0.4,1.7,1.1,2.1c0.6,0.5,1.3,0.7,2.1,0.7c0.6,0,1.2-0.1,1.7-0.3c0.5-0.2,0.8-0.4,1.1-0.7l3.3,1.2c-0.7,1-1.6,1.8-2.7,2.3
			S265.3,56.9,264.2,56.9z M260.9,48.4h6.2c0-0.9-0.3-1.5-0.9-2c-0.6-0.4-1.3-0.7-2.1-0.7c-0.8,0-1.5,0.2-2.1,0.6
			C261.4,46.8,261.1,47.4,260.9,48.4z"/>
	</g>
	<g class="st1">
		<path d="M84.4,89.5V71.2h7c1.6,0,3,0.2,4.3,0.5s2.2,0.9,3,1.7s1.1,2,1.1,3.5c0,0.7-0.1,1.4-0.4,2.1c-0.3,0.7-0.7,1.3-1.3,1.9
			c-0.6,0.6-1.5,1-2.7,1.3l5.3,7.4h-5l-5-6.9h-1.9v6.9H84.4z M88.7,79h2.8c1,0,1.9-0.1,2.6-0.4s1-0.8,1-1.7c0-0.9-0.3-1.4-1-1.7
			s-1.5-0.4-2.6-0.4h-2.8V79z"/>
		<path d="M109.2,89.8c-1.5,0-2.8-0.3-3.9-0.9c-1.1-0.6-2-1.4-2.6-2.5c-0.6-1.1-0.9-2.4-0.9-3.9c0-1.4,0.3-2.7,1-3.8
			c0.7-1.1,1.6-1.9,2.7-2.5c1.1-0.6,2.3-0.9,3.6-0.9c1.5,0,2.8,0.4,3.8,1.1s1.9,1.7,2.4,2.9c0.5,1.2,0.8,2.7,0.7,4.3h-10.1
			c0.1,1,0.4,1.7,1.1,2.1c0.6,0.5,1.3,0.7,2.1,0.7c0.6,0,1.2-0.1,1.7-0.3s0.8-0.4,1.1-0.7l3.3,1.2c-0.7,1-1.6,1.8-2.7,2.3
			S110.3,89.8,109.2,89.8z M105.9,81.3h6.2c0-0.9-0.3-1.5-0.9-2c-0.6-0.4-1.3-0.7-2.1-0.7c-0.8,0-1.5,0.2-2.1,0.6
			C106.4,79.7,106,80.3,105.9,81.3z"/>
		<path d="M121.9,89.8c-0.9,0-1.6-0.2-2.4-0.5c-0.7-0.3-1.3-0.8-1.7-1.4c-0.4-0.6-0.6-1.3-0.6-2.1c0-1.1,0.4-2,1.2-2.7
			c0.8-0.7,1.8-1.2,3.2-1.5s2.9-0.6,4.7-0.7c0-1-0.2-1.7-0.5-2.1s-0.9-0.6-1.8-0.6c-0.6,0-1.1,0.1-1.5,0.4c-0.4,0.3-0.7,0.7-0.9,1.2
			l-3.5-1.3c0.5-0.9,1.2-1.7,2.3-2.3s2.4-0.9,3.9-0.9c1.9,0,3.4,0.4,4.5,1.3s1.6,2.3,1.6,4.4v3c0,0.6,0,1.2,0.1,1.9
			c0,0.7,0.1,1.3,0.2,1.9c0.1,0.6,0.2,1.1,0.2,1.5H127l-0.5-1.6c-0.5,0.7-1.2,1.2-1.9,1.5C123.8,89.7,122.9,89.8,121.9,89.8z
			 M123.5,87c0.8,0,1.5-0.2,2.1-0.7s0.8-1.3,0.8-2.5v-0.3c-1.4,0.1-2.6,0.3-3.5,0.6s-1.3,0.8-1.3,1.5c0,0.4,0.2,0.8,0.5,1.1
			C122.4,86.8,122.9,87,123.5,87z"/>
		<path d="M133.1,89.5V75.9h3.6l0.5,1.8c0.3-0.5,0.8-1,1.5-1.5c0.7-0.5,1.6-0.7,2.6-0.7c1.8,0,3,0.5,3.6,1.5c0.6,1,1,2.4,1,4.2v8.3
			h-4.2v-7.2c0-0.6,0-1.2-0.1-1.8c-0.1-0.5-0.3-1-0.5-1.3c-0.3-0.3-0.8-0.5-1.4-0.5c-0.9,0-1.5,0.3-1.9,0.9
			c-0.4,0.6-0.6,1.6-0.6,2.8v7H133.1z"/>
		<path d="M152.7,89.8c-0.9,0-1.6-0.2-2.4-0.5c-0.7-0.3-1.3-0.8-1.7-1.4c-0.4-0.6-0.6-1.3-0.6-2.1c0-1.1,0.4-2,1.2-2.7
			c0.8-0.7,1.8-1.2,3.2-1.5s2.9-0.6,4.7-0.7c0-1-0.2-1.7-0.5-2.1s-0.9-0.6-1.8-0.6c-0.6,0-1.1,0.1-1.5,0.4c-0.4,0.3-0.7,0.7-0.9,1.2
			l-3.5-1.3c0.5-0.9,1.2-1.7,2.3-2.3s2.4-0.9,3.9-0.9c1.9,0,3.4,0.4,4.5,1.3s1.6,2.3,1.6,4.4v3c0,0.6,0,1.2,0.1,1.9
			c0,0.7,0.1,1.3,0.2,1.9c0.1,0.6,0.2,1.1,0.2,1.5h-3.9l-0.5-1.6c-0.5,0.7-1.2,1.2-1.9,1.5C154.6,89.7,153.7,89.8,152.7,89.8z
			 M154.3,87c0.8,0,1.5-0.2,2.1-0.7s0.8-1.3,0.8-2.5v-0.3c-1.4,0.1-2.6,0.3-3.5,0.6c-0.9,0.3-1.3,0.8-1.3,1.5c0,0.4,0.2,0.8,0.5,1.1
			C153.3,86.8,153.7,87,154.3,87z"/>
		<path d="M168.4,89.5c-1.1,0-2-0.1-2.7-0.3c-0.7-0.2-1.1-0.6-1.4-1.1c-0.3-0.6-0.4-1.4-0.4-2.4V71.2h4.2v13.4
			c0,0.6,0.1,1.1,0.4,1.2s0.7,0.3,1.4,0.3h1.2v3.4H168.4z"/>
		<path d="M172.9,93.9v-3h0.8c0.6,0,1.1,0,1.4-0.1c0.3-0.1,0.6-0.2,0.7-0.4c0.2-0.2,0.3-0.5,0.5-1l-5.2-13.5h4.5l2.7,8.5l2.6-8.5
			h4.5l-5.2,13.6c-0.4,1.2-0.9,2-1.3,2.7s-1,1.1-1.7,1.3c-0.7,0.3-1.6,0.4-2.8,0.4H172.9z"/>
		<path d="M192.6,89.8c-1.6,0-3-0.3-4.1-0.9c-1.2-0.6-2-1.4-2.5-2.6l3.5-1.3c0.2,0.6,0.6,1,1.2,1.3s1.3,0.4,2,0.4
			c0.7,0,1.3-0.1,1.8-0.3s0.8-0.5,0.8-0.9c0-0.3-0.2-0.5-0.5-0.7s-0.9-0.4-1.6-0.5l-2.4-0.4c-1.3-0.2-2.4-0.7-3.2-1.3
			c-0.8-0.7-1.2-1.6-1.2-2.7c0-0.9,0.3-1.7,0.9-2.4s1.3-1.1,2.3-1.4c0.9-0.3,2-0.5,3.1-0.5c1.3,0,2.5,0.2,3.6,0.7
			c1.1,0.5,1.9,1.2,2.4,2.3l-3.5,1.3c-0.1-0.5-0.4-0.8-0.9-1c-0.5-0.2-1-0.3-1.6-0.3c-1.5,0-2.2,0.4-2.2,1.1c0,0.3,0.1,0.5,0.4,0.7
			c0.3,0.2,0.7,0.3,1.3,0.4l2.5,0.5c1.6,0.3,2.9,0.7,3.6,1.3c0.8,0.6,1.2,1.4,1.2,2.5c0,1.1-0.3,1.9-0.9,2.7
			c-0.6,0.7-1.4,1.2-2.4,1.6C194.9,89.6,193.8,89.8,192.6,89.8z"/>
		<path d="M202.9,89.5V79.1h-2.6v-3.2h6.8v13.6H202.9z M205,73.7c-0.7,0-1.3-0.2-1.7-0.7c-0.5-0.5-0.7-1.1-0.7-1.7
			c0-0.7,0.2-1.3,0.7-1.8c0.5-0.5,1.1-0.7,1.7-0.7c0.7,0,1.3,0.2,1.8,0.7c0.5,0.5,0.7,1.1,0.7,1.8c0,0.7-0.2,1.3-0.7,1.7
			C206.3,73.4,205.7,73.7,205,73.7z"/>
		<path d="M215.5,89.8c-1.6,0-3-0.3-4.1-0.9c-1.2-0.6-2-1.4-2.5-2.6l3.5-1.3c0.2,0.6,0.6,1,1.2,1.3s1.3,0.4,2,0.4
			c0.7,0,1.3-0.1,1.8-0.3s0.8-0.5,0.8-0.9c0-0.3-0.2-0.5-0.5-0.7s-0.9-0.4-1.6-0.5l-2.4-0.4c-1.3-0.2-2.4-0.7-3.2-1.3
			c-0.8-0.7-1.2-1.6-1.2-2.7c0-0.9,0.3-1.7,0.9-2.4s1.3-1.1,2.3-1.4c0.9-0.3,2-0.5,3.1-0.5c1.3,0,2.5,0.2,3.6,0.7
			c1.1,0.5,1.9,1.2,2.4,2.3l-3.5,1.3c-0.1-0.5-0.4-0.8-0.9-1c-0.5-0.2-1-0.3-1.6-0.3c-1.5,0-2.2,0.4-2.2,1.1c0,0.3,0.1,0.5,0.4,0.7
			c0.3,0.2,0.7,0.3,1.3,0.4l2.5,0.5c1.6,0.3,2.9,0.7,3.6,1.3c0.8,0.6,1.2,1.4,1.2,2.5c0,1.1-0.3,1.9-0.9,2.7
			c-0.6,0.7-1.4,1.2-2.4,1.6C217.8,89.6,216.7,89.8,215.5,89.8z"/>
	</g>
</g>
<g>
	<path class="st2" d="M86.2,211.4c5.7-4.2,11.9-7.1,17.9-6.9c8.7,0.3,11.3,6.9,19.4,6.9c8.2,0,11.2-6.9,19.2-6.9s10.7,6.9,18.8,6.9
		c8.2,0,11.3-6.9,19.5-6.9c8,0,10.3,6.7,18.9,7c4.3,0.2,10.3-1.2,18.6-7.3"/>
	<path class="st2" d="M85.2,255.8c5.7-4.2,11.9-7.1,17.9-6.9c8.7,0.3,11.3,6.9,19.4,6.9c8.2,0,11.2-6.9,19.2-6.9s10.7,6.9,18.8,6.9
		c8.2,0,11.3-6.9,19.5-6.9c8,0,10.3,6.7,18.9,7c4.3,0.2,10.3-1.2,18.6-7.3"/>
	<path class="st2" d="M85.2,233.6c5.7-4.2,11.9-7.1,17.9-6.9c8.7,0.3,11.3,6.9,19.4,6.9c8.2,0,11.2-6.9,19.2-6.9s10.7,6.9,18.8,6.9
		c8.2,0,11.3-6.9,19.5-6.9c8,0,10.3,6.7,18.9,7c4.3,0.2,10.3-1.2,18.6-7.3"/>
	<path class="st2" d="M147.4,134.3c0.5-1.3,1.2-3.1,2.4-5c0.9-1.5,4.5-7.1,11.7-9.9c1.5-0.6,9.1-3.4,17.7,0
		c10.8,4.3,14.1,14.9,14.5,16.3l1.1,5.7c1.3,0.1,3.2,0.3,5.3,1.1c7.3,3,10,10.6,10.4,12.2c2.1,6.6,0.1,12.2-0.6,14.3
		c-0.7,2-1.6,4.4-3.9,6.7c-4,4.1-9.2,4.6-11.1,4.7c-2.3,0.1-4.2-0.3-5.5-0.7l-2.9-1.2c-0.4,0.8-1.1,1.8-2.1,2.9
		c-5.2,5.9-12.6,6.3-13.7,6.3c-1,0-5.6,0.2-10.4-2.5c-1.5-0.8-2.7-1.7-3.5-2.4l-0.7-0.5c-0.8,0.7-1.9,1.6-3.4,2.5
		c-7.6,4.5-15.6,3-17.8,2.6c-5.9-1.2-10.2-4.1-12.5-5.9c-1,0.6-2.5,1.4-4.5,1.8c-6.3,1.5-14-1-18.2-6.8c-2.7-3.7-3.1-7.6-3.1-9
		c-0.1-1.9,0-5.1,1.7-8.5c0.6-1.2,3-5.8,8.5-8.1c4.4-1.8,8.3-1.3,9.8-0.9l1.8,0.5c0.2-1.2,0.6-2.9,1.4-4.8c2.4-5.6,6.8-8.5,8.1-9.3
		c1.4-0.9,4.7-3,9.5-3.3c3.3-0.2,6,0.5,7.6,1L147.4,134.3z"/>
	<path class="st2" d="M96.6,170.4c-1.1,0.1-2.7,0.2-4.7-0.2c-0.9-0.2-6-1.3-9.2-6.3c-0.6-1-2.3-3.7-2.1-7.6c0.2-4.8,3.1-7.9,4.1-8.9
		c4.5-4.4,10.5-3.8,11.3-3.7l1.5,0.2c0.1-0.9,0.4-2.1,0.9-3.6c2.1-5.4,7.5-9.9,13.8-10.7c3.9-0.5,7,0.6,8.9,1.4
		c0.5-1.4,1.4-3.3,2.9-5.3c1.2-1.6,4.7-6.2,10.9-7.9c0.5-0.1,8.3-2.2,15.5,2.5c1.7,1.1,2.9,2.2,3.7,3.1"/>
</g>
</svg>
