<?xml version="1.0" encoding="utf-8"?>
<!-- Generator: Adobe Illustrator 22.0.1, SVG Export Plug-In . SVG Version: 6.00 Build 0)  -->
<svg version="1.1" id="Layer_1" xmlns="http://www.w3.org/2000/svg" xmlns:xlink="http://www.w3.org/1999/xlink" x="0px" y="0px"
	 viewBox="0 0 300 300" style="enable-background:new 0 0 300 300;" xml:space="preserve">
<style type="text/css">
	.st0{fill:#E99668;}
	.st1{enable-background:new    ;}
	.st2{fill:none;stroke:#000000;stroke-width:2.5;stroke-miterlimit:10;}
</style>
<rect x="13.6" y="13.7" class="st0" width="277.2" height="261.3"/>
<g>
	<g class="st1">
		<path d="M74.6,55.9V37.6h7c1.6,0,3,0.2,4.3,0.5c1.3,0.3,2.2,0.9,3,1.8c0.7,0.9,1.1,2.1,1.1,3.7c0,1.6-0.4,2.8-1.1,3.7
			c-0.7,0.9-1.7,1.5-3,1.8c-1.3,0.3-2.7,0.5-4.3,0.5H79v6.4H74.6z M79,46h2.8c0.7,0,1.3-0.1,1.8-0.2c0.5-0.1,1-0.4,1.3-0.7
			c0.3-0.3,0.5-0.8,0.5-1.5c0-0.6-0.2-1.1-0.5-1.5c-0.3-0.3-0.7-0.6-1.3-0.7c-0.5-0.1-1.1-0.2-1.8-0.2H79V46z"/>
		<path d="M92,55.9V42.3h3.3l0.7,2.5c0.4-1.1,1-1.9,1.7-2.3s1.6-0.6,2.7-0.6v4.2c-0.2,0-0.4-0.1-0.6-0.1c-0.2,0-0.3,0-0.5,0
			c-1,0-1.8,0.2-2.3,0.7c-0.5,0.5-0.8,1.3-0.8,2.3v6.8H92z"/>
		<path d="M108.6,56.2c-1.3,0-2.4-0.3-3.5-0.8c-1.1-0.5-2-1.3-2.7-2.4s-1-2.4-1-4c0-1.6,0.3-3,1-4c0.7-1,1.6-1.8,2.7-2.3
			c1.1-0.5,2.3-0.8,3.5-0.8c1.2,0,2.4,0.3,3.5,0.8c1.1,0.5,2,1.3,2.7,2.3c0.7,1.1,1,2.4,1,4c0,1.6-0.3,3-1,4
			c-0.7,1.1-1.6,1.9-2.7,2.4C111,56,109.9,56.2,108.6,56.2z M108.6,53c0.8,0,1.5-0.3,2.1-0.9s0.8-1.6,0.8-3c0-1.4-0.3-2.5-0.9-3
			s-1.3-0.9-2.1-0.9c-0.8,0-1.5,0.3-2.1,0.9s-0.9,1.6-0.9,3c0,1.4,0.3,2.4,0.8,3C107.1,52.7,107.8,53,108.6,53z"/>
		<path d="M116.9,60.3h-2.4V57h1.6c0.7,0,1.2-0.1,1.4-0.2c0.2-0.1,0.4-0.4,0.4-0.9V42.3h4.2v14.2c0,1-0.2,1.8-0.7,2.4
			s-1.1,0.9-1.8,1.1C118.8,60.2,117.9,60.3,116.9,60.3z M120.1,40.1c-0.7,0-1.3-0.2-1.7-0.7c-0.5-0.5-0.7-1.1-0.7-1.7
			c0-0.7,0.2-1.3,0.7-1.8c0.5-0.5,1.1-0.7,1.7-0.7c0.7,0,1.3,0.2,1.7,0.7c0.5,0.5,0.7,1.1,0.7,1.8c0,0.7-0.2,1.3-0.7,1.7
			C121.3,39.8,120.8,40.1,120.1,40.1z"/>
		<path d="M131.7,56.2c-1.5,0-2.8-0.3-3.9-0.9c-1.1-0.6-2-1.4-2.6-2.5c-0.6-1.1-0.9-2.4-0.9-3.9c0-1.4,0.3-2.7,1-3.8
			c0.7-1.1,1.6-1.9,2.7-2.5c1.1-0.6,2.3-0.9,3.6-0.9c1.5,0,2.8,0.4,3.8,1.1s1.9,1.7,2.4,2.9c0.5,1.2,0.8,2.7,0.7,4.3h-10.1
			c0.1,1,0.4,1.7,1.1,2.1c0.6,0.5,1.3,0.7,2.1,0.7c0.6,0,1.2-0.1,1.7-0.3s0.8-0.4,1.1-0.7l3.3,1.2c-0.7,1-1.6,1.8-2.7,2.3
			S132.8,56.2,131.7,56.2z M128.4,47.7h6.2c0-0.9-0.3-1.5-0.9-2c-0.6-0.4-1.3-0.7-2.1-0.7c-0.8,0-1.5,0.2-2.1,0.6
			C128.9,46.1,128.5,46.8,128.4,47.7z"/>
		<path d="M146.7,56.2c-1.5,0-2.8-0.3-3.8-0.9c-1-0.6-1.8-1.4-2.4-2.5c-0.5-1.1-0.8-2.3-0.8-3.8s0.3-2.7,0.9-3.7
			c0.6-1.1,1.4-1.9,2.5-2.5c1.1-0.6,2.3-0.9,3.6-0.9c0.8,0,1.6,0.1,2.3,0.3c0.8,0.2,1.5,0.6,2.2,1.1c0.7,0.5,1.2,1.2,1.6,2.1
			l-3.5,1.3c-0.2-0.6-0.5-1-1-1.2c-0.4-0.2-0.9-0.4-1.4-0.4c-0.5,0-1,0.1-1.4,0.4c-0.5,0.2-0.8,0.7-1.1,1.2
			c-0.3,0.6-0.4,1.3-0.4,2.3c0,1,0.1,1.8,0.4,2.3c0.3,0.6,0.7,1,1.1,1.2c0.4,0.2,0.9,0.4,1.4,0.4c0.6,0,1.1-0.1,1.5-0.3
			c0.4-0.2,0.7-0.5,1-0.9l3.4,1.2c-0.5,0.8-1,1.5-1.7,2c-0.7,0.5-1.4,0.8-2.2,1C148.2,56.1,147.4,56.2,146.7,56.2z"/>
		<path d="M160.4,55.9c-1.1,0-2-0.1-2.7-0.3c-0.7-0.2-1.1-0.6-1.4-1.1c-0.3-0.6-0.4-1.4-0.4-2.4v-6.6h-2.2v-3.2h2.2v-3.4h4.2v3.4h3
			v3.2h-3V51c0,0.6,0.1,1.1,0.4,1.2c0.2,0.2,0.7,0.3,1.4,0.3h1.2v3.4H160.4z"/>
		<path d="M170.9,56.2c-1.6,0-3-0.3-4.1-0.9c-1.2-0.6-2-1.4-2.5-2.6l3.5-1.3c0.2,0.6,0.6,1,1.2,1.3s1.3,0.4,2,0.4
			c0.7,0,1.3-0.1,1.8-0.3s0.8-0.5,0.8-0.9c0-0.3-0.2-0.5-0.5-0.7s-0.9-0.4-1.6-0.5l-2.4-0.4c-1.3-0.2-2.4-0.7-3.2-1.3
			c-0.8-0.7-1.2-1.6-1.2-2.7c0-0.9,0.3-1.7,0.9-2.4s1.3-1.1,2.3-1.4c0.9-0.3,2-0.5,3.1-0.5c1.3,0,2.5,0.2,3.6,0.7
			c1.1,0.5,1.9,1.2,2.4,2.3l-3.5,1.3c-0.1-0.5-0.4-0.8-0.9-1c-0.5-0.2-1-0.3-1.6-0.3c-1.5,0-2.2,0.4-2.2,1.1c0,0.3,0.1,0.5,0.4,0.7
			c0.3,0.2,0.7,0.3,1.3,0.4l2.5,0.5c1.6,0.3,2.9,0.7,3.6,1.3c0.8,0.6,1.2,1.4,1.2,2.5c0,1.1-0.3,1.9-0.9,2.7
			c-0.6,0.7-1.4,1.2-2.4,1.6C173.3,56.1,172.2,56.2,170.9,56.2z"/>
		<path d="M188.3,55.9V37.6h6c1.5,0,2.9,0.2,4.2,0.5c1.3,0.3,2.4,0.8,3.4,1.5c1,0.7,1.7,1.6,2.2,2.8c0.5,1.2,0.8,2.6,0.8,4.4
			c0,1.8-0.3,3.2-0.8,4.4c-0.5,1.2-1.3,2.1-2.2,2.8c-1,0.7-2.1,1.2-3.4,1.5c-1.3,0.3-2.7,0.5-4.2,0.5H188.3z M192.6,52.3h1.8
			c0.8,0,1.5-0.1,2.3-0.2c0.7-0.1,1.4-0.4,1.9-0.8c0.6-0.4,1-0.9,1.4-1.7s0.5-1.7,0.5-2.9c0-1.2-0.2-2.2-0.5-2.9
			c-0.3-0.7-0.8-1.3-1.4-1.7s-1.2-0.6-1.9-0.8c-0.7-0.1-1.5-0.2-2.3-0.2h-1.8V52.3z"/>
		<path d="M210.5,56.2c-0.9,0-1.6-0.2-2.4-0.5c-0.7-0.3-1.3-0.8-1.7-1.4c-0.4-0.6-0.6-1.3-0.6-2.1c0-1.1,0.4-2,1.2-2.7
			c0.8-0.7,1.8-1.2,3.2-1.5s2.9-0.6,4.7-0.7c0-1-0.2-1.7-0.5-2.1s-0.9-0.6-1.8-0.6c-0.6,0-1.1,0.1-1.5,0.4c-0.4,0.3-0.7,0.7-0.9,1.2
			l-3.5-1.3c0.5-0.9,1.2-1.7,2.3-2.3s2.4-0.9,3.9-0.9c1.9,0,3.4,0.4,4.5,1.3s1.6,2.3,1.6,4.4v3c0,0.6,0,1.2,0.1,1.9
			c0,0.7,0.1,1.3,0.2,1.9s0.2,1.1,0.2,1.5h-3.9l-0.5-1.6c-0.5,0.7-1.2,1.2-1.9,1.5C212.3,56.1,211.4,56.2,210.5,56.2z M212,53.4
			c0.8,0,1.5-0.2,2.1-0.7s0.8-1.3,0.8-2.5v-0.3c-1.4,0.1-2.6,0.3-3.5,0.6c-0.9,0.3-1.3,0.8-1.3,1.5c0,0.4,0.2,0.8,0.5,1.1
			C211,53.3,211.4,53.4,212,53.4z"/>
		<path d="M222.1,60.3v-3h0.8c0.6,0,1.1,0,1.4-0.1c0.3-0.1,0.6-0.2,0.7-0.4s0.3-0.5,0.5-1l-5.2-13.5h4.5l2.7,8.5l2.6-8.5h4.5
			l-5.2,13.6c-0.4,1.2-0.9,2-1.3,2.7s-1,1.1-1.7,1.3c-0.7,0.3-1.6,0.4-2.8,0.4H222.1z"/>
	</g>
</g>
<g>
	<path class="st2" d="M105.5,256.2c2.8,0.2,6.2,0.4,9.9,0c2.9-0.2,5.3-0.7,7.5-1.3l2.3-0.8c0.2,0,0.5-0.1,0.8-0.4
		c0.8-0.6,0.8-2.1,0.8-2.8c-0.1-4.2-0.6-6.9-0.6-6.9c-1-5.3-0.8-5.1-1.1-5.9c-0.6-1.9-1.2-3.9-2.9-5.8c-0.2-0.4-1.7-1.8-4-2.9
		c-2.5-1.2-4.8-1.3-6-1.3h-6.8"/>
	<path class="st2" d="M106.2,256.2c-2.8,0.2-6.2,0.4-9.9,0c-2.9-0.2-5.3-0.7-7.5-1.3l-2.3-0.8c-0.2,0-0.5-0.1-0.8-0.4
		c-0.8-0.6-0.8-2.1-0.8-2.8c0.1-4.2,0.6-6.9,0.6-6.9c1-5.3,0.8-5.1,1.1-5.9c0.6-1.9,1.2-3.9,2.9-5.8c0.2-0.4,1.7-1.8,4-2.9
		c2.5-1.2,4.8-1.3,6-1.3h6.8"/>
	<circle class="st2" cx="105.2" cy="214.9" r="13.1"/>
	<path class="st2" d="M158.1,256.2c2.8,0.2,6.2,0.4,9.9,0c2.9-0.2,5.3-0.7,7.5-1.3l2.3-0.8c0.2,0,0.5-0.1,0.8-0.4
		c0.8-0.6,0.8-2.1,0.8-2.8c-0.1-4.2-0.6-6.9-0.6-6.9c-1-5.3-0.8-5.1-1.1-5.9c-0.6-1.9-1.2-3.9-2.9-5.8c-0.2-0.4-1.7-1.8-4-2.9
		c-2.5-1.2-4.8-1.3-6-1.3h-6.8"/>
	<path class="st2" d="M158.9,256.2c-2.8,0.2-6.2,0.4-9.9,0c-2.9-0.2-5.3-0.7-7.5-1.3l-2.3-0.8c-0.2,0-0.5-0.1-0.8-0.4
		c-0.8-0.6-0.8-2.1-0.8-2.8c0.1-4.2,0.6-6.9,0.6-6.9c1-5.3,0.8-5.1,1.1-5.9c0.6-1.9,1.2-3.9,2.9-5.8c0.2-0.4,1.7-1.8,4-2.9
		c2.5-1.2,4.8-1.3,6-1.3h6.8"/>
	<circle class="st2" cx="158" cy="214.9" r="13.1"/>
	<path class="st2" d="M211.1,256.2c2.8,0.2,6.2,0.4,9.9,0c2.9-0.2,5.3-0.7,7.5-1.3l2.3-0.8c0.2,0,0.5-0.1,0.8-0.4
		c0.8-0.6,0.8-2.1,0.8-2.8c-0.1-4.2-0.6-6.9-0.6-6.9c-1-5.3-0.8-5.1-1.1-5.9c-0.6-1.9-1.2-3.9-2.9-5.8c-0.2-0.4-1.7-1.8-4-2.9
		c-2.5-1.2-4.8-1.3-6-1.3h-6.8"/>
	<path class="st2" d="M211.9,256.2c-2.8,0.2-6.2,0.4-9.9,0c-2.9-0.2-5.3-0.7-7.5-1.3l-2.3-0.8c-0.2,0-0.5-0.1-0.8-0.4
		c-0.8-0.6-0.8-2.1-0.8-2.8c0.1-4.2,0.6-6.9,0.6-6.9c1-5.3,0.8-5.1,1.1-5.9c0.6-1.9,1.2-3.9,2.9-5.8c0.2-0.4,1.7-1.8,4-2.9
		c2.5-1.2,4.8-1.3,6-1.3h6.8"/>
	<circle class="st2" cx="211" cy="215" r="13.1"/>
	<line class="st2" x1="105.2" y1="175" x2="211.9" y2="175.3"/>
	<line class="st2" x1="158.6" y1="189" x2="158.6" y2="162.8"/>
	<line class="st2" x1="211.9" y1="173.9" x2="211.9" y2="189"/>
	<line class="st2" x1="105.2" y1="173.5" x2="105.2" y2="189"/>
	<path class="st2" d="M158.7,94.8c-2.3-0.1-7.9,0.1-13.2,3.8c-1.1,0.7-9.6,6.9-9,16.7c0.4,5.7,3.6,9.7,5,11l1.6,1.7
		c0.6,0.4,1.3,0.8,1.9,1.7c1.6,1.9,1.7,4.1,1.8,4.8l0.1,11c0,0.6,0,1.1,0,1.7s0,0.6,0,0.7c0.2,0.8,2.9,0.7,6,0.7c1.1,0,2.8,0,4.8,0"
		/>
	<path class="st2" d="M156.8,94.8c2.3-0.1,7.9,0.1,13.2,3.8c1.1,0.7,9.6,6.9,9,16.7c-0.4,5.7-3.6,9.7-5,11l-1.6,1.7
		c-0.6,0.4-1.3,0.8-1.9,1.7c-1.6,1.9-1.7,4.1-1.8,4.8l-0.1,11c0,0.6,0,1.1,0,1.7s0,0.6,0,0.7c-0.2,0.8-2.9,0.7-6,0.7
		c-1.1,0-2.8,0-4.8,0"/>
	<line class="st2" x1="146.8" y1="137.1" x2="168.6" y2="137.1"/>
	<line class="st2" x1="158.7" y1="73" x2="158.7" y2="85.1"/>
	<line class="st2" x1="187.5" y1="85.1" x2="178.9" y2="93.3"/>
	<line class="st2" x1="199.5" y1="114" x2="186.8" y2="114"/>
	<line class="st2" x1="130.3" y1="86.4" x2="138.9" y2="94.8"/>
	<line class="st2" x1="118.3" y1="115.5" x2="131" y2="115.5"/>
	<polyline class="st2" points="150.5,114 156,119.8 166,109.3 	"/>
	<path class="st2" d="M151.8,148.6c0.7,0.8,2.7,2.8,5.6,3c3.3,0.2,5.6-2.1,6.3-2.8"/>
</g>
</svg>
