<?xml version="1.0" encoding="utf-8"?>
<!-- Generator: Adobe Illustrator 22.0.1, SVG Export Plug-In . SVG Version: 6.00 Build 0)  -->
<svg version="1.1" id="Layer_1" xmlns="http://www.w3.org/2000/svg" xmlns:xlink="http://www.w3.org/1999/xlink" x="0px" y="0px"
	 viewBox="0 0 300 300" style="enable-background:new 0 0 300 300;" xml:space="preserve">
<style type="text/css">
	.st0{fill:#B0C7DC;}
	.st1{enable-background:new    ;}
	.st2{fill:none;stroke:#000000;stroke-width:2.5;stroke-miterlimit:10;}
</style>
<rect x="11.7" y="15.3" class="st0" width="276.5" height="261.3"/>
<g>
	<g class="st1">
		<path d="M102.2,62.9v-3.4h2.6V48h-2.6v-3.4h9.4V48h-2.5v11.5h2.5v3.4H102.2z"/>
		<path d="M114.4,62.9V44.6h7c1.6,0,3,0.2,4.3,0.5c1.3,0.3,2.2,0.9,3,1.8c0.7,0.9,1.1,2.1,1.1,3.7c0,1.6-0.4,2.8-1.1,3.7
			c-0.7,0.9-1.7,1.5-3,1.8c-1.3,0.3-2.7,0.5-4.3,0.5h-2.7v6.4H114.4z M118.8,53h2.8c0.7,0,1.3-0.1,1.8-0.2c0.5-0.1,1-0.4,1.3-0.7
			c0.3-0.3,0.5-0.8,0.5-1.5c0-0.6-0.2-1.1-0.5-1.5c-0.3-0.3-0.7-0.6-1.3-0.7c-0.5-0.1-1.1-0.2-1.8-0.2h-2.8V53z"/>
		<path d="M140.5,63.2c-1.9,0-3.5-0.4-4.9-1.2c-1.4-0.8-2.4-1.9-3.2-3.3c-0.7-1.4-1.1-3.1-1.1-5c0-1.9,0.4-3.6,1.1-5
			s1.8-2.5,3.2-3.3c1.4-0.8,3-1.2,4.9-1.2c1.7,0,3.2,0.4,4.5,1.2c1.3,0.8,2.3,1.8,3,3.1l-3.8,1.4c-0.4-0.7-0.9-1.3-1.6-1.6
			c-0.7-0.3-1.4-0.5-2.2-0.5c-0.8,0-1.6,0.2-2.3,0.7c-0.7,0.5-1.2,1.1-1.6,2c-0.4,0.9-0.6,2-0.6,3.2c0,1.9,0.4,3.4,1.3,4.4
			s2,1.5,3.3,1.5c0.7,0,1.4-0.1,2.2-0.4s1.3-0.8,1.7-1.6l3.8,1.4c-0.7,1.3-1.8,2.3-3.1,3.1C143.8,62.9,142.2,63.2,140.5,63.2z"/>
		<path d="M158.4,63.2c-1.9,0-3.5-0.4-4.9-1.2c-1.4-0.8-2.4-1.9-3.2-3.3c-0.7-1.4-1.1-3.1-1.1-5c0-1.9,0.4-3.6,1.1-5
			s1.8-2.5,3.2-3.3c1.4-0.8,3-1.2,4.9-1.2c1.7,0,3.2,0.4,4.5,1.2c1.3,0.8,2.3,1.8,3,3.1l-3.8,1.4c-0.4-0.7-1-1.3-1.6-1.6
			c-0.7-0.3-1.4-0.5-2.2-0.5c-0.8,0-1.6,0.2-2.3,0.7c-0.7,0.5-1.2,1.1-1.6,2c-0.4,0.9-0.6,2-0.6,3.2c0,1.9,0.4,3.4,1.3,4.4
			s2,1.5,3.3,1.5c0.7,0,1.4-0.1,2.2-0.4c0.7-0.3,1.3-0.8,1.7-1.6l3.8,1.4c-0.7,1.3-1.8,2.3-3.1,3.1
			C161.7,62.9,160.1,63.2,158.4,63.2z"/>
		<path d="M177.1,62.9v-3.4h2.6V48h-2.6v-3.4h9.4V48H184v11.5h2.5v3.4H177.1z"/>
		<path d="M191.4,54.3c-0.7,0-1.4-0.3-1.9-0.8c-0.5-0.5-0.8-1.1-0.8-1.9c0-0.7,0.3-1.4,0.8-1.9c0.5-0.5,1.2-0.8,1.9-0.8
			s1.4,0.3,1.9,0.8s0.8,1.2,0.8,1.9c0,0.7-0.3,1.4-0.8,1.9C192.7,54,192.1,54.3,191.4,54.3z M191.4,63.2c-0.7,0-1.4-0.3-1.9-0.8
			c-0.5-0.5-0.8-1.2-0.8-1.9c0-0.7,0.3-1.4,0.8-1.9c0.5-0.5,1.2-0.8,1.9-0.8s1.4,0.3,1.9,0.8s0.8,1.1,0.8,1.9c0,0.7-0.3,1.4-0.8,1.9
			S192.1,63.2,191.4,63.2z"/>
	</g>
	<g class="st1">
		<path d="M55.4,95.8V77.5h7c1.6,0,3,0.2,4.3,0.5c1.3,0.3,2.2,0.9,3,1.8c0.7,0.9,1.1,2.1,1.1,3.7c0,1.6-0.4,2.8-1.1,3.7
			c-0.7,0.9-1.7,1.5-3,1.8c-1.3,0.3-2.7,0.5-4.3,0.5h-2.7v6.4H55.4z M59.7,85.9h2.8c0.7,0,1.3-0.1,1.8-0.2c0.5-0.1,1-0.4,1.3-0.7
			c0.3-0.3,0.5-0.8,0.5-1.5c0-0.6-0.2-1.1-0.5-1.5c-0.3-0.3-0.7-0.6-1.3-0.7c-0.5-0.1-1.1-0.2-1.8-0.2h-2.8V85.9z"/>
		<path d="M72.7,95.8V77.5h4.2V84c0.3-0.5,0.8-1,1.5-1.5c0.7-0.5,1.6-0.7,2.6-0.7c1.8,0,3,0.5,3.6,1.5c0.6,1,1,2.4,1,4.2v8.3h-4.2
			v-7.2c0-0.6,0-1.2-0.1-1.8c-0.1-0.5-0.3-1-0.5-1.3c-0.3-0.3-0.8-0.5-1.4-0.5c-0.9,0-1.5,0.3-1.9,0.9c-0.4,0.6-0.6,1.6-0.6,2.8v7
			H72.7z"/>
		<path d="M88.8,100.2v-3h0.8c0.6,0,1.1,0,1.4-0.1c0.3-0.1,0.6-0.2,0.7-0.4c0.2-0.2,0.3-0.5,0.5-1L87,82.2h4.5l2.7,8.5l2.6-8.5h4.5
			L96,95.8c-0.4,1.2-0.9,2-1.3,2.7c-0.4,0.6-1,1.1-1.7,1.3c-0.7,0.3-1.6,0.4-2.8,0.4H88.8z"/>
		<path d="M108.4,96.1c-1.6,0-3-0.3-4.1-0.9c-1.2-0.6-2-1.4-2.5-2.6l3.5-1.3c0.2,0.6,0.6,1,1.2,1.3s1.3,0.4,2,0.4
			c0.7,0,1.3-0.1,1.8-0.3s0.8-0.5,0.8-0.9c0-0.3-0.2-0.5-0.5-0.7s-0.9-0.4-1.6-0.5l-2.4-0.4c-1.3-0.2-2.4-0.7-3.2-1.3
			s-1.2-1.6-1.2-2.7c0-0.9,0.3-1.7,0.9-2.4s1.3-1.1,2.3-1.4c0.9-0.3,2-0.5,3.1-0.5c1.3,0,2.5,0.2,3.6,0.7c1.1,0.5,1.9,1.2,2.4,2.3
			l-3.5,1.3c-0.1-0.5-0.4-0.8-0.9-1c-0.5-0.2-1-0.3-1.6-0.3c-1.5,0-2.2,0.4-2.2,1.1c0,0.3,0.1,0.5,0.4,0.7c0.3,0.2,0.7,0.3,1.3,0.4
			l2.5,0.5c1.6,0.3,2.9,0.7,3.6,1.3c0.8,0.6,1.2,1.4,1.2,2.5c0,1.1-0.3,1.9-0.9,2.7c-0.6,0.7-1.4,1.2-2.4,1.6
			C110.8,96,109.6,96.1,108.4,96.1z"/>
		<path d="M118.7,95.8V85.4h-2.6v-3.2h6.8v13.6H118.7z M120.8,80c-0.7,0-1.3-0.2-1.7-0.7c-0.5-0.5-0.7-1.1-0.7-1.7
			c0-0.7,0.2-1.3,0.7-1.8c0.5-0.5,1.1-0.7,1.7-0.7c0.7,0,1.3,0.2,1.8,0.7c0.5,0.5,0.7,1.1,0.7,1.8c0,0.7-0.2,1.3-0.7,1.7
			C122.1,79.7,121.5,80,120.8,80z"/>
		<path d="M131.7,96.1c-1.5,0-2.8-0.3-3.8-0.9c-1-0.6-1.8-1.4-2.4-2.5c-0.5-1.1-0.8-2.3-0.8-3.8s0.3-2.7,0.9-3.7
			c0.6-1.1,1.4-1.9,2.5-2.5c1.1-0.6,2.3-0.9,3.6-0.9c0.8,0,1.6,0.1,2.3,0.3c0.8,0.2,1.5,0.6,2.2,1.1c0.7,0.5,1.2,1.2,1.6,2.1
			l-3.5,1.3c-0.2-0.6-0.5-1-1-1.2c-0.4-0.2-0.9-0.4-1.4-0.4c-0.5,0-1,0.1-1.4,0.4c-0.5,0.2-0.8,0.7-1.1,1.2
			c-0.3,0.6-0.4,1.3-0.4,2.3c0,1,0.1,1.8,0.4,2.3c0.3,0.6,0.7,1,1.1,1.2c0.4,0.2,0.9,0.4,1.4,0.4c0.6,0,1.1-0.1,1.5-0.3
			c0.4-0.2,0.7-0.5,1-0.9l3.4,1.2c-0.5,0.8-1,1.5-1.7,2c-0.7,0.5-1.4,0.8-2.2,1C133.2,96,132.5,96.1,131.7,96.1z"/>
		<path d="M143.7,96.1c-0.9,0-1.6-0.2-2.4-0.5c-0.7-0.3-1.3-0.8-1.7-1.4c-0.4-0.6-0.6-1.3-0.6-2.1c0-1.1,0.4-2,1.2-2.7
			c0.8-0.7,1.8-1.2,3.2-1.5s2.9-0.6,4.7-0.7c0-1-0.2-1.7-0.5-2.1s-0.9-0.6-1.8-0.6c-0.6,0-1.1,0.1-1.5,0.4c-0.4,0.3-0.7,0.7-0.9,1.2
			l-3.5-1.3c0.5-0.9,1.2-1.7,2.3-2.3s2.4-0.9,3.9-0.9c1.9,0,3.4,0.4,4.5,1.3s1.6,2.3,1.6,4.4v3c0,0.6,0,1.2,0.1,1.9
			c0,0.7,0.1,1.3,0.2,1.9c0.1,0.6,0.2,1.1,0.2,1.5h-3.9l-0.5-1.6c-0.5,0.7-1.2,1.2-1.9,1.5C145.5,96,144.7,96.1,143.7,96.1z
			 M145.2,93.3c0.8,0,1.5-0.2,2.1-0.7s0.8-1.3,0.8-2.5v-0.3c-1.4,0.1-2.6,0.3-3.5,0.6s-1.3,0.8-1.3,1.5c0,0.4,0.2,0.8,0.5,1.1
			C144.2,93.2,144.7,93.3,145.2,93.3z"/>
		<path d="M159.4,95.8c-1.1,0-2-0.1-2.7-0.3c-0.7-0.2-1.1-0.6-1.4-1.1c-0.3-0.6-0.4-1.4-0.4-2.4V77.5h4.2v13.4
			c0,0.6,0.1,1.1,0.4,1.2s0.7,0.3,1.4,0.3h1.2v3.4H159.4z"/>
		<path d="M172.1,95.8V77.5h8c1.3,0,2.5,0.1,3.6,0.4s1.9,0.7,2.5,1.4c0.6,0.7,0.9,1.7,0.9,2.9c0,0.8-0.2,1.6-0.6,2.2
			c-0.4,0.6-0.9,1.2-1.6,1.6c0.9,0.3,1.6,0.8,2.1,1.4c0.5,0.7,0.8,1.5,0.8,2.7c0,1.4-0.3,2.5-0.9,3.3c-0.6,0.8-1.5,1.4-2.6,1.8
			c-1.1,0.4-2.4,0.6-3.9,0.6H172.1z M176.4,84.8h3.8c0.7,0,1.3-0.2,1.7-0.5s0.6-0.8,0.6-1.4c0-0.6-0.2-1-0.6-1.4s-1-0.5-1.7-0.5
			h-3.8V84.8z M176.4,92.2h4c0.9,0,1.6-0.2,2.1-0.6c0.5-0.4,0.7-0.9,0.7-1.5c0-0.6-0.2-1.1-0.7-1.5c-0.5-0.4-1.2-0.5-2.1-0.5h-4
			V92.2z"/>
		<path d="M193.3,96.1c-0.9,0-1.6-0.2-2.4-0.5c-0.7-0.3-1.3-0.8-1.7-1.4c-0.4-0.6-0.6-1.3-0.6-2.1c0-1.1,0.4-2,1.2-2.7
			s1.8-1.2,3.2-1.5s2.9-0.6,4.7-0.7c0-1-0.2-1.7-0.5-2.1s-0.9-0.6-1.8-0.6c-0.6,0-1.1,0.1-1.5,0.4c-0.4,0.3-0.7,0.7-0.9,1.2
			l-3.5-1.3c0.5-0.9,1.2-1.7,2.3-2.3s2.4-0.9,3.9-0.9c1.9,0,3.4,0.4,4.5,1.3s1.6,2.3,1.6,4.4v3c0,0.6,0,1.2,0.1,1.9
			c0,0.7,0.1,1.3,0.2,1.9c0.1,0.6,0.2,1.1,0.2,1.5h-3.9l-0.5-1.6c-0.5,0.7-1.2,1.2-1.9,1.5C195.2,96,194.3,96.1,193.3,96.1z
			 M194.9,93.3c0.8,0,1.5-0.2,2.1-0.7s0.8-1.3,0.8-2.5v-0.3c-1.4,0.1-2.6,0.3-3.5,0.6c-0.9,0.3-1.3,0.8-1.3,1.5
			c0,0.4,0.2,0.8,0.5,1.1C193.9,93.2,194.3,93.3,194.9,93.3z"/>
		<path d="M210.4,96.1c-1.6,0-3-0.3-4.1-0.9c-1.2-0.6-2-1.4-2.5-2.6l3.5-1.3c0.2,0.6,0.6,1,1.2,1.3s1.3,0.4,2,0.4
			c0.7,0,1.3-0.1,1.8-0.3s0.8-0.5,0.8-0.9c0-0.3-0.2-0.5-0.5-0.7s-0.9-0.4-1.6-0.5l-2.4-0.4c-1.3-0.2-2.4-0.7-3.2-1.3
			s-1.2-1.6-1.2-2.7c0-0.9,0.3-1.7,0.9-2.4c0.6-0.6,1.3-1.1,2.3-1.4c0.9-0.3,2-0.5,3.1-0.5c1.3,0,2.5,0.2,3.6,0.7
			c1.1,0.5,1.9,1.2,2.4,2.3l-3.5,1.3c-0.1-0.5-0.4-0.8-0.9-1c-0.5-0.2-1-0.3-1.6-0.3c-1.5,0-2.2,0.4-2.2,1.1c0,0.3,0.1,0.5,0.4,0.7
			c0.3,0.2,0.7,0.3,1.3,0.4l2.5,0.5c1.6,0.3,2.9,0.7,3.6,1.3c0.8,0.6,1.2,1.4,1.2,2.5c0,1.1-0.3,1.9-0.9,2.7
			c-0.6,0.7-1.4,1.2-2.4,1.6C212.7,96,211.6,96.1,210.4,96.1z"/>
		<path d="M220.7,95.8V85.4h-2.6v-3.2h6.8v13.6H220.7z M222.8,80c-0.7,0-1.3-0.2-1.7-0.7c-0.5-0.5-0.7-1.1-0.7-1.7
			c0-0.7,0.2-1.3,0.7-1.8c0.5-0.5,1.1-0.7,1.7-0.7c0.7,0,1.3,0.2,1.8,0.7c0.5,0.5,0.7,1.1,0.7,1.8c0,0.7-0.2,1.3-0.7,1.7
			C224.1,79.7,223.5,80,222.8,80z"/>
		<path d="M233.3,96.1c-1.6,0-3-0.3-4.1-0.9c-1.2-0.6-2-1.4-2.5-2.6l3.5-1.3c0.2,0.6,0.6,1,1.2,1.3s1.3,0.4,2,0.4
			c0.7,0,1.3-0.1,1.8-0.3s0.8-0.5,0.8-0.9c0-0.3-0.2-0.5-0.5-0.7s-0.9-0.4-1.6-0.5l-2.4-0.4c-1.3-0.2-2.4-0.7-3.2-1.3
			c-0.8-0.7-1.2-1.6-1.2-2.7c0-0.9,0.3-1.7,0.9-2.4s1.3-1.1,2.3-1.4c0.9-0.3,2-0.5,3.1-0.5c1.3,0,2.5,0.2,3.6,0.7
			c1.1,0.5,1.9,1.2,2.4,2.3l-3.5,1.3c-0.1-0.5-0.4-0.8-0.9-1c-0.5-0.2-1-0.3-1.6-0.3c-1.5,0-2.2,0.4-2.2,1.1c0,0.3,0.1,0.5,0.4,0.7
			c0.3,0.2,0.7,0.3,1.3,0.4l2.5,0.5c1.6,0.3,2.9,0.7,3.6,1.3c0.8,0.6,1.2,1.4,1.2,2.5c0,1.1-0.3,1.9-0.9,2.7
			c-0.6,0.7-1.4,1.2-2.4,1.6C235.6,96,234.5,96.1,233.3,96.1z"/>
	</g>
</g>
<g>
	<path class="st2" d="M85,128.7l0.4,120.6l0.1,4.2c0.1,0.4,0.3,0.9,0.6,1.3c1.2,1.7,3.3,1.8,3.7,1.8h4.5"/>
	<g>
		<path class="st2" d="M153,256.6c9.2,0,18.4,0,27.6-0.1c6.7,0,12.8,0.2,11.6-8.8"/>
		<path class="st2" d="M192.3,248c0-4.7,0-9.4,0-14.2"/>
		<line class="st2" x1="153" y1="256.6" x2="89.7" y2="256.6"/>
	</g>
	<g>
		<path class="st2" d="M192.4,157.3c0-8.6,0-17.2-0.1-25.8c0-6.3,0.2-12-8.8-10.9"/>
		<path class="st2" d="M183.8,120.7c-4.7,0-9.4,0-14.2,0"/>
	</g>
	<g>
		<path class="st2" d="M124.4,120.5c-9.2,0-18.4,0-27.6,0.1c-6.7,0-12.8-0.2-11.6,8.8"/>
		<path class="st2" d="M85.2,129.1c0,4.7,0,9.4,0,14.2"/>
		<line class="st2" x1="124.4" y1="120.5" x2="187.7" y2="120.5"/>
	</g>
	<path class="st2" d="M96.6,139.5l0.3,98.5v3.4c0.1,0.3,0.2,0.7,0.5,1.1c1,1.4,2.7,1.5,3,1.5h3.6"/>
	<g>
		<path class="st2" d="M152.1,243.9c7.5,0,15,0,22.6-0.1c5.5,0,10.5,0.2,9.5-7.2"/>
		<path class="st2" d="M184.2,236.9c0-1.5,0-3.1,0-4.6"/>
		<line class="st2" x1="152.1" y1="243.9" x2="100.5" y2="243.9"/>
	</g>
	<g>
		<path class="st2" d="M184.3,158.4c0-6,0-11.9-0.1-17.9c0-4.3,0.2-8.3-7.2-7.5"/>
		<path class="st2" d="M177.3,132.9c-3.9,0-7.7,0-11.6,0"/>
	</g>
	<g>
		<path class="st2" d="M128.8,132.8c-7.5,0-15,0-22.6,0.1c-5.5,0-10.5-0.2-9.5,7.2"/>
		<path class="st2" d="M96.7,139.8c0,3.9,0,7.7,0,11.6"/>
		<line class="st2" x1="128.8" y1="132.8" x2="180.5" y2="132.8"/>
	</g>
	<rect x="140.2" y="157.3" class="st2" width="80.4" height="75"/>
	<polyline class="st2" points="109.3,219.9 116.4,227.3 126.7,208.2 	"/>
	<polyline class="st2" points="109.3,190.8 116.4,198.2 126.7,179.1 	"/>
	<polyline class="st2" points="109.3,162.4 116.4,169.9 126.7,150.7 	"/>
	<g>
		<path class="st2" d="M150.4,141.6c-8.6,0-17.2,0-25.8-0.1c-6.3,0-12,0.2-10.9-8.2"/>
		<path class="st2" d="M113.7,133.6c0-4.4,0-8.8,0-13.1"/>
	</g>
	<g>
		<path class="st2" d="M128.8,141.7c8.6,0,17.2,0,25.8-0.1c6.3,0,12,0.2,10.9-8.2"/>
		<path class="st2" d="M165.5,133.8c0-4.4,0-8.8,0-13.1"/>
	</g>
	<path class="st2" d="M173.3,170.9c0.5,0.2,3.5,1.7,4.3,4.9c0.6,2.4-0.3,4.4-0.6,5.1c-1.1,2.5-2.5,2.3-3.7,4.7
		c-0.4,0.8-0.4,1.2-0.8,6.5c-0.4,5.1-0.4,5.7-0.8,6.9c-0.3,0.8-1.1,2.9-3,4.7c-2.8,2.5-6.2,2.9-7.7,3c-1.3,0.1-2.5,0.1-3.3,0"/>
	<path class="st2" d="M190.6,171.5c-0.3,0.1-3.7,1.4-4.7,4.9c-0.1,0.2-0.9,3.6,1,5.7c1.3,1.5,2.5,0.7,5.7,2.2c3,1.4,3.1,2.7,5.3,3.5
		c1.4,0.5,3.6,0.7,6.9-0.6"/>
	<path class="st2" d="M181.5,220.1c0-1.8-0.1-4.4-0.8-7.5c-0.7-3.2-1.3-3.7-1.3-5.7c0-0.7-0.1-5.8,3.4-8.7c2.9-2.3,6.3-1.8,7.4-1.6
		c4.7,0.7,7.7,4.4,9.5,6.7c1.5,1.9,2.5,3.7,3.1,4.9"/>
	<circle class="st2" cx="180.7" cy="195.3" r="25.7"/>
</g>
</svg>
