<?xml version="1.0" encoding="utf-8"?>
<!-- Generator: Adobe Illustrator 22.0.1, SVG Export Plug-In . SVG Version: 6.00 Build 0)  -->
<svg version="1.1" id="Layer_1" xmlns="http://www.w3.org/2000/svg" xmlns:xlink="http://www.w3.org/1999/xlink" x="0px" y="0px"
	 viewBox="0 0 300 300" style="enable-background:new 0 0 300 300;" xml:space="preserve">
<style type="text/css">
	.st0{fill:#B0C7DC;}
	.st1{enable-background:new    ;}
	.st2{fill:none;stroke:#231F20;stroke-width:2.5;stroke-miterlimit:10;}
	.st3{fill:none;stroke:#231F20;stroke-width:3;stroke-miterlimit:10;}
</style>
<rect x="11.4" y="18.5" class="st0" width="277.2" height="261.3"/>
<g>
	<g class="st1">
		<path d="M64.9,64v-3.2h2.5v-11h-2.5v-3.2h9v3.2h-2.4v11h2.4V64H64.9z"/>
		<path d="M76.5,64V46.5h6.7c1.5,0,2.9,0.2,4.1,0.5c1.2,0.3,2.1,0.9,2.8,1.7c0.7,0.8,1,2,1,3.5c0,1.5-0.3,2.7-1,3.5
			c-0.7,0.8-1.6,1.4-2.8,1.7c-1.2,0.3-2.5,0.5-4.1,0.5h-2.6V64H76.5z M80.6,54.5h2.7c0.6,0,1.2-0.1,1.7-0.2c0.5-0.1,0.9-0.3,1.2-0.7
			c0.3-0.3,0.5-0.8,0.5-1.4c0-0.6-0.2-1.1-0.5-1.4c-0.3-0.3-0.7-0.5-1.2-0.7S84,50,83.4,50h-2.7V54.5z"/>
		<path d="M101.4,64.3c-1.8,0-3.4-0.4-4.7-1.1c-1.3-0.7-2.3-1.8-3-3.1c-0.7-1.4-1-3-1-4.8c0-1.8,0.4-3.4,1.1-4.8
			c0.7-1.4,1.7-2.4,3.1-3.1c1.3-0.7,2.9-1.1,4.7-1.1c1.7,0,3.1,0.4,4.3,1.1s2.2,1.7,2.8,3l-3.7,1.3c-0.4-0.7-0.9-1.2-1.6-1.5
			c-0.7-0.3-1.4-0.5-2.1-0.5c-0.8,0-1.5,0.2-2.2,0.7c-0.7,0.4-1.2,1.1-1.6,1.9s-0.6,1.9-0.6,3c0,1.8,0.4,3.2,1.3,4.2
			s1.9,1.5,3.1,1.5c0.7,0,1.3-0.1,2.1-0.4s1.3-0.8,1.7-1.5l3.6,1.3c-0.7,1.2-1.7,2.2-3,2.9C104.5,63.9,103,64.3,101.4,64.3z"/>
		<path d="M118.5,64.3c-1.8,0-3.4-0.4-4.7-1.1c-1.3-0.7-2.3-1.8-3-3.1c-0.7-1.4-1-3-1-4.8c0-1.8,0.4-3.4,1.1-4.8
			c0.7-1.4,1.7-2.4,3.1-3.1c1.3-0.7,2.9-1.1,4.7-1.1c1.7,0,3.1,0.4,4.3,1.1s2.2,1.7,2.8,3l-3.7,1.3c-0.4-0.7-0.9-1.2-1.6-1.5
			c-0.7-0.3-1.4-0.5-2.1-0.5c-0.8,0-1.5,0.2-2.2,0.7c-0.7,0.4-1.2,1.1-1.6,1.9s-0.6,1.9-0.6,3c0,1.8,0.4,3.2,1.3,4.2
			s1.9,1.5,3.1,1.5c0.7,0,1.3-0.1,2.1-0.4s1.3-0.8,1.7-1.5l3.6,1.3c-0.7,1.2-1.7,2.2-3,2.9C121.6,63.9,120.1,64.3,118.5,64.3z"/>
		<path d="M136.3,64v-3.2h2.5v-11h-2.5v-3.2h9v3.2h-2.4v11h2.4V64H136.3z"/>
		<path d="M148.3,64v-3.2h2.5v-11h-2.5v-3.2h9v3.2h-2.4v11h2.4V64H148.3z"/>
		<path d="M174.1,64.3c-1.2,0-2.3-0.3-3.3-0.8c-1-0.5-1.7-1.2-2.2-2c-0.5-0.8-0.8-1.7-0.8-2.6c0-0.9,0.3-1.9,1-2.8
			c0.7-0.9,1.7-1.7,3.2-2.3c-0.6-0.7-1-1.4-1.2-2.1c-0.3-0.7-0.4-1.3-0.4-1.9c0-0.9,0.2-1.7,0.7-2.3c0.5-0.7,1.1-1.2,1.9-1.6
			s1.7-0.6,2.8-0.6c0.9,0,1.7,0.2,2.4,0.6c0.8,0.4,1.4,1,1.9,1.7s0.7,1.5,0.7,2.3c0,0.8-0.3,1.5-0.8,2.4s-1.4,1.6-2.5,2.3l2.5,2.8
			c0.3-0.5,0.6-1.1,0.9-1.7s0.5-1.3,0.6-2.1h3.3c-0.2,1.3-0.6,2.5-1,3.6c-0.5,1.1-1,2-1.6,2.8l3.3,3.8h-4.6l-1.2-1.4
			c-1,0.6-2,1-2.9,1.3S174.9,64.3,174.1,64.3z M174.6,61.1c0.4,0,0.8-0.1,1.3-0.2c0.5-0.1,1-0.4,1.5-0.7l-3.3-3.8
			c-0.8,0.3-1.3,0.7-1.7,1.1c-0.3,0.4-0.5,0.9-0.5,1.3c0,0.6,0.3,1.1,0.8,1.6C173.2,60.8,173.8,61.1,174.6,61.1z M175.5,52.6
			c0.7-0.3,1.1-0.7,1.4-1.2c0.3-0.4,0.4-0.8,0.4-1.2c0-0.5-0.2-0.9-0.5-1.2c-0.3-0.3-0.8-0.5-1.3-0.5c-0.5,0-0.8,0.1-1.2,0.4
			s-0.5,0.6-0.5,1.1c0,0.3,0.1,0.7,0.4,1.2S174.9,52.1,175.5,52.6z"/>
		<path d="M195.3,64v-3.2h2.5v-11h-2.5v-3.2h9v3.2h-2.4v11h2.4V64H195.3z"/>
		<path d="M207.3,64v-3.2h2.5v-11h-2.5v-3.2h9v3.2h-2.4v11h2.4V64H207.3z"/>
		<path d="M219.3,64v-3.2h2.5v-11h-2.5v-3.2h9v3.2h-2.4v11h2.4V64H219.3z"/>
		<path d="M233,55.7c-0.7,0-1.3-0.2-1.8-0.7s-0.8-1.1-0.8-1.8c0-0.7,0.3-1.3,0.8-1.8c0.5-0.5,1.1-0.7,1.8-0.7s1.3,0.2,1.8,0.7
			c0.5,0.5,0.7,1.1,0.7,1.8c0,0.7-0.2,1.3-0.7,1.8S233.7,55.7,233,55.7z M233,64.3c-0.7,0-1.3-0.3-1.8-0.8c-0.5-0.5-0.8-1.1-0.8-1.8
			c0-0.7,0.3-1.3,0.8-1.8c0.5-0.5,1.1-0.7,1.8-0.7s1.3,0.2,1.8,0.7c0.5,0.5,0.7,1.1,0.7,1.8c0,0.7-0.2,1.3-0.7,1.8
			C234.3,64,233.7,64.3,233,64.3z"/>
	</g>
	<g class="st1">
		<path d="M27.2,95.7c-1.9,0-3.5-0.4-4.8-1.2c-1.3-0.8-2.2-1.9-2.8-3.3l3.8-1.4c0.2,0.8,0.7,1.5,1.4,1.9s1.5,0.6,2.4,0.6
			c0.5,0,1-0.1,1.5-0.2s0.9-0.3,1.2-0.6c0.3-0.3,0.5-0.6,0.5-1.1c0-0.6-0.3-1.1-0.9-1.4c-0.6-0.3-1.4-0.6-2.3-0.8L25,87.9
			c-0.9-0.2-1.8-0.5-2.6-0.9c-0.8-0.4-1.5-0.9-1.9-1.6C20,84.8,19.7,84,19.7,83c0-0.9,0.2-1.8,0.7-2.4s1-1.2,1.7-1.7
			c0.7-0.4,1.5-0.8,2.4-1c0.9-0.2,1.7-0.3,2.6-0.3c0.9,0,1.9,0.1,2.7,0.4c0.9,0.3,1.7,0.7,2.4,1.2c0.7,0.5,1.2,1.3,1.6,2.2l-3.7,1.4
			c-0.2-0.6-0.6-1-1.2-1.4c-0.6-0.3-1.3-0.5-2.1-0.5c-0.8,0-1.5,0.1-2,0.4c-0.5,0.3-0.8,0.7-0.8,1.2c0,0.4,0.2,0.8,0.5,1.1
			c0.4,0.3,0.8,0.5,1.4,0.7l2.4,0.5c0.7,0.1,1.4,0.3,2.2,0.5c0.7,0.2,1.4,0.5,2,0.9c0.6,0.4,1.1,0.8,1.5,1.4s0.6,1.3,0.6,2.2
			c0,0.9-0.2,1.7-0.6,2.5c-0.4,0.7-1,1.3-1.7,1.8c-0.7,0.5-1.5,0.9-2.4,1.1C29,95.6,28.1,95.7,27.2,95.7z"/>
		<path d="M42.7,95.7c-1.2,0-2.3-0.2-3.4-0.7c-1-0.5-1.9-1.2-2.5-2.3c-0.6-1-1-2.3-1-3.9c0-1.6,0.3-2.9,1-3.9c0.6-1,1.5-1.7,2.5-2.2
			c1-0.5,2.2-0.7,3.4-0.7c1.2,0,2.3,0.2,3.3,0.7s1.9,1.2,2.5,2.2c0.6,1,1,2.3,1,3.9c0,1.6-0.3,2.8-1,3.9c-0.6,1-1.5,1.8-2.5,2.3
			C45,95.5,43.9,95.7,42.7,95.7z M42.7,92.6c0.8,0,1.5-0.3,2-0.9s0.8-1.5,0.8-2.9c0-1.4-0.3-2.3-0.8-2.9c-0.5-0.5-1.2-0.8-2-0.8
			c-0.8,0-1.5,0.3-2,0.8c-0.5,0.5-0.8,1.5-0.8,2.9c0,1.4,0.3,2.3,0.8,2.9C41.2,92.3,41.9,92.6,42.7,92.6z"/>
		<path d="M57.4,95.7c-1.4,0-2.6-0.3-3.6-0.9c-1-0.6-1.7-1.4-2.2-2.4s-0.8-2.2-0.8-3.6c0-1.4,0.3-2.5,0.8-3.6c0.6-1,1.3-1.8,2.3-2.4
			c1-0.6,2.2-0.8,3.5-0.8c0.7,0,1.5,0.1,2.2,0.3c0.7,0.2,1.4,0.6,2.1,1.1c0.6,0.5,1.2,1.2,1.6,2L60,86.7c-0.2-0.6-0.5-0.9-0.9-1.2
			c-0.4-0.2-0.9-0.3-1.4-0.3c-0.5,0-0.9,0.1-1.4,0.4s-0.8,0.6-1.1,1.2c-0.3,0.5-0.4,1.3-0.4,2.2c0,0.9,0.1,1.7,0.4,2.2
			s0.6,0.9,1.1,1.2s0.9,0.4,1.3,0.4c0.6,0,1-0.1,1.4-0.3c0.4-0.2,0.7-0.5,0.9-0.9l3.2,1.2c-0.4,0.8-1,1.4-1.6,1.9
			c-0.6,0.5-1.3,0.8-2.1,1C58.8,95.6,58.1,95.7,57.4,95.7z"/>
		<path d="M66.8,95.4v-9.9h-2.5v-3h6.5v13H66.8z M68.8,80.3c-0.6,0-1.2-0.2-1.7-0.7s-0.7-1-0.7-1.7c0-0.7,0.2-1.2,0.7-1.7
			s1-0.7,1.7-0.7c0.7,0,1.2,0.2,1.7,0.7c0.5,0.5,0.7,1,0.7,1.7c0,0.6-0.2,1.2-0.7,1.7C70.1,80,69.5,80.3,68.8,80.3z"/>
		<path d="M79.5,95.7c-1.2,0-2.3-0.2-3.4-0.7c-1-0.5-1.9-1.2-2.5-2.3c-0.6-1-1-2.3-1-3.9c0-1.6,0.3-2.9,1-3.9c0.6-1,1.5-1.7,2.5-2.2
			c1-0.5,2.2-0.7,3.4-0.7c1.2,0,2.3,0.2,3.3,0.7s1.9,1.2,2.5,2.2c0.6,1,1,2.3,1,3.9c0,1.6-0.3,2.8-1,3.9c-0.6,1-1.5,1.8-2.5,2.3
			C81.8,95.5,80.7,95.7,79.5,95.7z M79.5,92.6c0.8,0,1.5-0.3,2-0.9s0.8-1.5,0.8-2.9c0-1.4-0.3-2.3-0.8-2.9c-0.5-0.5-1.2-0.8-2-0.8
			c-0.8,0-1.5,0.3-2,0.8c-0.5,0.5-0.8,1.5-0.8,2.9c0,1.4,0.3,2.3,0.8,2.9C78,92.3,78.7,92.6,79.5,92.6z"/>
		<path d="M94.7,95.7c-1.4,0-2.6-0.3-3.7-0.8s-1.9-1.3-2.5-2.4c-0.6-1-0.9-2.3-0.9-3.7c0-1.4,0.3-2.6,1-3.6c0.6-1,1.5-1.8,2.5-2.4
			c1.1-0.6,2.2-0.8,3.5-0.8c1.4,0,2.7,0.3,3.7,1c1,0.7,1.8,1.6,2.3,2.8s0.7,2.5,0.7,4.1h-9.6c0.1,0.9,0.4,1.6,1,2
			c0.6,0.5,1.3,0.7,2,0.7c0.6,0,1.1-0.1,1.6-0.3c0.4-0.2,0.8-0.4,1-0.7l3.2,1.2c-0.7,1-1.5,1.7-2.5,2.2S95.8,95.7,94.7,95.7z
			 M91.6,87.5h5.9c0-0.8-0.3-1.5-0.9-1.9c-0.6-0.4-1.2-0.6-2-0.6c-0.7,0-1.4,0.2-2,0.6C92.1,86,91.7,86.7,91.6,87.5z"/>
		<path d="M109,95.7c-1.4,0-2.6-0.3-3.6-0.9c-1-0.6-1.7-1.4-2.2-2.4s-0.8-2.2-0.8-3.6c0-1.4,0.3-2.5,0.8-3.6c0.6-1,1.3-1.8,2.3-2.4
			c1-0.6,2.2-0.8,3.5-0.8c0.7,0,1.5,0.1,2.2,0.3c0.7,0.2,1.4,0.6,2.1,1.1c0.6,0.5,1.2,1.2,1.6,2l-3.3,1.2c-0.2-0.6-0.5-0.9-0.9-1.2
			c-0.4-0.2-0.9-0.3-1.4-0.3c-0.5,0-0.9,0.1-1.4,0.4s-0.8,0.6-1.1,1.2c-0.3,0.5-0.4,1.3-0.4,2.2c0,0.9,0.1,1.7,0.4,2.2
			s0.6,0.9,1.1,1.2s0.9,0.4,1.3,0.4c0.6,0,1-0.1,1.4-0.3c0.4-0.2,0.7-0.5,0.9-0.9l3.2,1.2c-0.4,0.8-1,1.4-1.6,1.9
			c-0.6,0.5-1.3,0.8-2.1,1C110.4,95.6,109.7,95.7,109,95.7z"/>
		<path d="M122.9,95.7c-1.2,0-2.3-0.2-3.4-0.7c-1-0.5-1.9-1.2-2.5-2.3c-0.6-1-1-2.3-1-3.9c0-1.6,0.3-2.9,1-3.9
			c0.6-1,1.5-1.7,2.5-2.2c1-0.5,2.2-0.7,3.4-0.7c1.2,0,2.3,0.2,3.3,0.7s1.9,1.2,2.5,2.2c0.6,1,1,2.3,1,3.9c0,1.6-0.3,2.8-1,3.9
			c-0.6,1-1.5,1.8-2.5,2.3C125.2,95.5,124.1,95.7,122.9,95.7z M122.9,92.6c0.8,0,1.5-0.3,2-0.9s0.8-1.5,0.8-2.9
			c0-1.4-0.3-2.3-0.8-2.9c-0.5-0.5-1.2-0.8-2-0.8c-0.8,0-1.5,0.3-2,0.8c-0.5,0.5-0.8,1.5-0.8,2.9c0,1.4,0.3,2.3,0.8,2.9
			C121.4,92.3,122.1,92.6,122.9,92.6z"/>
		<path d="M131.7,95.4v-13h3.5l0.5,1.7c0.3-0.5,0.8-1,1.5-1.4c0.7-0.5,1.5-0.7,2.5-0.7c1.7,0,2.8,0.5,3.4,1.4s0.9,2.3,0.9,4v7.9h-4
			v-6.9c0-0.6,0-1.2-0.1-1.7c-0.1-0.5-0.2-0.9-0.5-1.2c-0.3-0.3-0.7-0.5-1.4-0.5c-0.8,0-1.4,0.3-1.8,0.9s-0.6,1.5-0.6,2.7v6.7H131.7
			z"/>
		<path d="M152.6,95.7c-1.2,0-2.3-0.2-3.4-0.7c-1-0.5-1.9-1.2-2.5-2.3c-0.6-1-1-2.3-1-3.9c0-1.6,0.3-2.9,1-3.9
			c0.6-1,1.5-1.7,2.5-2.2s2.2-0.7,3.4-0.7c1.2,0,2.3,0.2,3.3,0.7s1.9,1.2,2.5,2.2c0.6,1,1,2.3,1,3.9c0,1.6-0.3,2.8-1,3.9
			c-0.6,1-1.5,1.8-2.5,2.3C154.9,95.5,153.8,95.7,152.6,95.7z M152.6,92.6c0.8,0,1.5-0.3,2-0.9c0.5-0.6,0.8-1.5,0.8-2.9
			c0-1.4-0.3-2.3-0.8-2.9c-0.5-0.5-1.2-0.8-2-0.8c-0.8,0-1.5,0.3-2,0.8c-0.5,0.5-0.8,1.5-0.8,2.9c0,1.4,0.3,2.3,0.8,2.9
			C151.1,92.3,151.8,92.6,152.6,92.6z"/>
		<path d="M161.4,95.4v-13h3.5l0.5,1.7c0.3-0.5,0.8-1,1.5-1.4s1.5-0.7,2.5-0.7c1,0,1.9,0.2,2.5,0.5s1.1,0.9,1.4,1.6
			c0.5-0.7,1.1-1.3,1.9-1.6s1.6-0.5,2.5-0.5c1.7,0,2.8,0.5,3.4,1.4s0.9,2.3,0.9,4v7.9h-4v-6.9c0-0.6,0-1.2-0.1-1.7
			c-0.1-0.5-0.2-0.9-0.5-1.2c-0.3-0.3-0.7-0.5-1.4-0.5c-0.8,0-1.4,0.3-1.8,0.9s-0.5,1.4-0.5,2.5v6.9h-4v-6.9c0-0.6,0-1.2-0.1-1.7
			c-0.1-0.5-0.2-0.9-0.5-1.2s-0.7-0.5-1.3-0.5c-0.8,0-1.4,0.3-1.8,0.9s-0.6,1.5-0.6,2.6v6.8H161.4z"/>
		<path d="M185.9,95.4v-9.9h-2.5v-3h6.5v13H185.9z M188,80.3c-0.6,0-1.2-0.2-1.7-0.7s-0.7-1-0.7-1.7c0-0.7,0.2-1.2,0.7-1.7
			s1-0.7,1.7-0.7c0.7,0,1.2,0.2,1.7,0.7s0.7,1,0.7,1.7c0,0.6-0.2,1.2-0.7,1.7S188.6,80.3,188,80.3z"/>
		<path d="M198.4,95.7c-1.4,0-2.6-0.3-3.6-0.9c-1-0.6-1.7-1.4-2.2-2.4c-0.5-1-0.8-2.2-0.8-3.6c0-1.4,0.3-2.5,0.8-3.6
			c0.6-1,1.3-1.8,2.3-2.4c1-0.6,2.2-0.8,3.5-0.8c0.7,0,1.5,0.1,2.2,0.3c0.7,0.2,1.4,0.6,2.1,1.1c0.6,0.5,1.2,1.2,1.6,2l-3.3,1.2
			c-0.2-0.6-0.5-0.9-0.9-1.2c-0.4-0.2-0.9-0.3-1.4-0.3c-0.5,0-0.9,0.1-1.4,0.4c-0.4,0.2-0.8,0.6-1.1,1.2c-0.3,0.5-0.4,1.3-0.4,2.2
			c0,0.9,0.1,1.7,0.4,2.2c0.3,0.5,0.6,0.9,1.1,1.2c0.4,0.2,0.9,0.4,1.3,0.4c0.6,0,1-0.1,1.4-0.3s0.7-0.5,0.9-0.9l3.2,1.2
			c-0.4,0.8-1,1.4-1.6,1.9c-0.6,0.5-1.3,0.8-2.1,1S199.1,95.7,198.4,95.7z"/>
		<path d="M214.2,95.4V77.9h7.6c1.3,0,2.4,0.1,3.4,0.4c1,0.3,1.8,0.7,2.4,1.4c0.6,0.7,0.9,1.6,0.9,2.8c0,0.8-0.2,1.5-0.5,2.1
			c-0.4,0.6-0.9,1.1-1.5,1.5c0.8,0.3,1.5,0.7,2,1.4c0.5,0.6,0.8,1.5,0.8,2.5c0,1.3-0.3,2.4-0.9,3.1c-0.6,0.8-1.4,1.4-2.5,1.7
			s-2.3,0.5-3.7,0.5H214.2z M218.3,84.8h3.6c0.7,0,1.2-0.2,1.6-0.5c0.4-0.3,0.6-0.8,0.6-1.3c0-0.6-0.2-1-0.6-1.3
			c-0.4-0.3-0.9-0.5-1.6-0.5h-3.6V84.8z M218.3,92h3.8c0.9,0,1.6-0.2,2-0.5c0.4-0.4,0.7-0.8,0.7-1.5s-0.2-1.1-0.7-1.4
			c-0.4-0.3-1.1-0.5-2-0.5h-3.8V92z"/>
		<path d="M234.5,95.7c-0.8,0-1.6-0.2-2.2-0.5c-0.7-0.3-1.2-0.8-1.6-1.3c-0.4-0.6-0.6-1.2-0.6-2c0-1.1,0.4-1.9,1.1-2.5
			c0.7-0.6,1.8-1.1,3-1.4c1.3-0.3,2.8-0.5,4.4-0.7c0-0.9-0.1-1.6-0.4-2s-0.9-0.6-1.7-0.6c-0.5,0-1,0.1-1.4,0.4
			c-0.4,0.3-0.7,0.6-0.8,1.2l-3.3-1.2c0.4-0.9,1.2-1.6,2.2-2.2c1-0.6,2.3-0.9,3.8-0.9c1.8,0,3.3,0.4,4.3,1.2c1,0.8,1.5,2.2,1.5,4.2
			v2.9c0,0.6,0,1.2,0.1,1.8c0,0.6,0.1,1.3,0.2,1.8s0.1,1.1,0.2,1.4h-3.7l-0.5-1.6c-0.5,0.7-1.1,1.2-1.8,1.5
			C236.3,95.6,235.4,95.7,234.5,95.7z M236,93c0.8,0,1.4-0.2,2-0.6c0.5-0.4,0.8-1.2,0.8-2.4v-0.3c-1.4,0.1-2.5,0.3-3.3,0.6
			s-1.3,0.7-1.3,1.4c0,0.4,0.2,0.8,0.5,1C235,92.9,235.4,93,236,93z"/>
		<path d="M250.8,95.7c-1.5,0-2.8-0.3-3.9-0.8c-1.1-0.6-1.9-1.4-2.4-2.5l3.4-1.2c0.2,0.5,0.6,0.9,1.1,1.2c0.5,0.3,1.2,0.4,1.9,0.4
			c0.6,0,1.2-0.1,1.7-0.3c0.5-0.2,0.7-0.5,0.7-0.9c0-0.3-0.1-0.5-0.4-0.7c-0.3-0.2-0.8-0.3-1.6-0.5L249,90c-1.3-0.2-2.3-0.6-3.1-1.3
			c-0.8-0.6-1.2-1.5-1.2-2.6c0-0.9,0.3-1.7,0.8-2.3s1.3-1.1,2.2-1.4c0.9-0.3,1.9-0.5,3-0.5c1.2,0,2.4,0.2,3.4,0.7
			c1.1,0.4,1.8,1.2,2.3,2.2l-3.3,1.2c-0.1-0.5-0.4-0.8-0.9-1c-0.5-0.2-1-0.2-1.6-0.2c-1.4,0-2.1,0.3-2.1,1c0,0.3,0.1,0.5,0.4,0.6
			c0.2,0.2,0.7,0.3,1.2,0.4l2.4,0.4c1.6,0.3,2.7,0.7,3.5,1.2c0.7,0.5,1.1,1.4,1.1,2.4c0,1-0.3,1.9-0.9,2.5c-0.6,0.7-1.3,1.2-2.3,1.5
			C253,95.5,251.9,95.7,250.8,95.7z"/>
		<path d="M260.6,95.4v-9.9h-2.5v-3h6.5v13H260.6z M262.6,80.3c-0.6,0-1.2-0.2-1.7-0.7s-0.7-1-0.7-1.7c0-0.7,0.2-1.2,0.7-1.7
			s1-0.7,1.7-0.7c0.7,0,1.2,0.2,1.7,0.7s0.7,1,0.7,1.7c0,0.6-0.2,1.2-0.7,1.7S263.3,80.3,262.6,80.3z"/>
		<path d="M272.7,95.7c-1.5,0-2.8-0.3-3.9-0.8c-1.1-0.6-1.9-1.4-2.4-2.5l3.4-1.2c0.2,0.5,0.6,0.9,1.1,1.2c0.5,0.3,1.2,0.4,1.9,0.4
			c0.6,0,1.2-0.1,1.7-0.3c0.5-0.2,0.7-0.5,0.7-0.9c0-0.3-0.1-0.5-0.4-0.7c-0.3-0.2-0.8-0.3-1.6-0.5l-2.3-0.4
			c-1.3-0.2-2.3-0.6-3.1-1.3c-0.8-0.6-1.2-1.5-1.2-2.6c0-0.9,0.3-1.7,0.8-2.3s1.3-1.1,2.2-1.4c0.9-0.3,1.9-0.5,3-0.5
			c1.2,0,2.4,0.2,3.4,0.7c1.1,0.4,1.8,1.2,2.3,2.2l-3.3,1.2c-0.1-0.5-0.4-0.8-0.9-1c-0.5-0.2-1-0.2-1.6-0.2c-1.4,0-2.1,0.3-2.1,1
			c0,0.3,0.1,0.5,0.4,0.6c0.2,0.2,0.7,0.3,1.2,0.4l2.4,0.4c1.6,0.3,2.7,0.7,3.5,1.2c0.7,0.5,1.1,1.4,1.1,2.4c0,1-0.3,1.9-0.9,2.5
			c-0.6,0.7-1.3,1.2-2.3,1.5C274.9,95.5,273.8,95.7,272.7,95.7z"/>
	</g>
</g>
<circle class="st2" cx="164.4" cy="219.2" r="17.6"/>
<line class="st2" x1="90.4" y1="201.6" x2="120.4" y2="201.6"/>
<line class="st2" x1="90.4" y1="254.6" x2="90.4" y2="200.4"/>
<line class="st2" x1="120.4" y1="236.7" x2="151.5" y2="236.7"/>
<line class="st2" x1="151.5" y1="254.3" x2="151.5" y2="235.6"/>
<line class="st2" x1="120.4" y1="200.5" x2="120.4" y2="237.9"/>
<line class="st2" x1="164.4" y1="219.2" x2="164.4" y2="254.3"/>
<line class="st2" x1="83.3" y1="254.3" x2="224.3" y2="254.3"/>
<path class="st2" d="M174.6,147h26.1h4.2c0.4,0.1,0.9,0.1,1.5,0c3-0.5,4.5-4.2,4.6-4.6c0.2-0.6,1.6-4.6-1-7.8
	c-1.5-1.9-4-2.9-6.3-2.7c-1.3,0.1-2.4,0.6-3,1c0.1-1,0.2-2.5-0.3-4.2c-1.7-5.5-7.9-7.3-8.8-7.6c-1.3-0.4-6.2-1.7-10.4,1.4
	c-3.7,2.7-4.4,6.9-4.5,7.8c-0.7-0.3-1.7-0.7-3.1-0.6c-4.4,0.2-6.7,5.2-6.8,5.5c-0.3,0.6-1.8,4.2,0,7.8c1.2,2.3,3.1,3.4,3.8,3.7
	L174.6,147z"/>
<rect x="187.4" y="183.6" class="st2" width="27.8" height="70.7"/>
<circle class="st2" cx="113.3" cy="144" r="10.2"/>
<line class="st2" x1="113.3" y1="128.8" x2="113.3" y2="119.9"/>
<line class="st2" x1="113.3" y1="168" x2="113.3" y2="159.1"/>
<line class="st2" x1="137.4" y1="144" x2="128.4" y2="144"/>
<line class="st2" x1="129.8" y1="127.5" x2="123.5" y2="133.8"/>
<line class="st2" x1="130.2" y1="160.5" x2="123.9" y2="154.2"/>
<line class="st2" x1="89.2" y1="144" x2="98.1" y2="144"/>
<line class="st2" x1="96.7" y1="127.5" x2="103.1" y2="133.8"/>
<line class="st2" x1="96.3" y1="160.5" x2="102.6" y2="154.2"/>
<g>
	<path class="st3" d="M93.6,173.2c2,1.4,3.7,3.2,3.4,5c-0.2,1.4-2.1,2.4-3,3.6c-2.1,3,4.8,4.9,2.4,7.9c-1.2,1.5-3.4,2.5-2.8,4.2"/>
</g>
<g>
	<path class="st3" d="M109.8,173.2c2,1.4,3.7,3.2,3.4,5c-0.2,1.4-2.1,2.4-3,3.6c-2.1,3,4.8,4.9,2.4,7.9c-1.2,1.5-3.4,2.5-2.8,4.2"/>
</g>
<g>
	<path class="st3" d="M191.9,157.3c2,1.4,3.7,3.2,3.4,5c-0.2,1.4-2.1,2.4-3,3.6c-2.1,3,4.8,4.9,2.4,7.9c-1.2,1.5-3.4,2.5-2.8,4.2"/>
</g>
<g>
	<path class="st3" d="M208.1,157.3c2,1.4,3.7,3.2,3.4,5c-0.2,1.4-2.1,2.4-3,3.6c-2.1,3,4.8,4.9,2.4,7.9c-1.2,1.5-3.4,2.5-2.8,4.2"/>
</g>
<g>
	<path class="st3" d="M144.8,183.6c2,1.4,3.7,3.2,3.4,5c-0.2,1.4-2.1,2.4-3,3.6c-2.1,3,4.8,4.9,2.4,7.9c-1.2,1.5-3.4,2.5-2.8,4.2"/>
</g>
<g>
	<path class="st3" d="M176.8,179.6c2,1.4,3.7,3.2,3.4,5c-0.2,1.4-2.1,2.4-3,3.6c-2.1,3,4.8,4.9,2.4,7.9c-1.2,1.5-3.4,2.5-2.8,4.2"/>
</g>
<g>
	<path class="st3" d="M162.7,173.2c2,1.4,3.7,3.2,3.4,5c-0.2,1.4-2.1,2.4-3,3.6c-2.1,3,4.8,4.9,2.4,7.9c-1.2,1.5-3.4,2.5-2.8,4.2"/>
</g>
<g>
	<path class="st3" d="M129.4,208.6c2,1.4,3.7,3.2,3.4,5c-0.2,1.4-2.1,2.4-3,3.6c-2.1,3,4.8,4.9,2.4,7.9c-1.2,1.5-3.4,2.5-2.8,4.2"/>
</g>
<line class="st3" x1="98.9" y1="208.6" x2="112.5" y2="208.6"/>
<line class="st3" x1="98.9" y1="218.1" x2="112.5" y2="218.1"/>
<line class="st3" x1="98.9" y1="226.7" x2="112.5" y2="226.7"/>
<line class="st3" x1="98.9" y1="236.2" x2="112.5" y2="236.2"/>
<line class="st3" x1="194.4" y1="190" x2="208.1" y2="190"/>
<line class="st3" x1="194.4" y1="199.4" x2="208.1" y2="199.4"/>
<line class="st3" x1="194.4" y1="208.1" x2="208.1" y2="208.1"/>
<line class="st3" x1="194.4" y1="217.6" x2="208.1" y2="217.6"/>
<line class="st3" x1="98.6" y1="245.3" x2="112.2" y2="245.3"/>
<line class="st3" x1="119.6" y1="245.3" x2="123" y2="245.3"/>
<line class="st3" x1="194.4" y1="227.2" x2="208.1" y2="227.2"/>
<line class="st3" x1="194.4" y1="235.8" x2="208.1" y2="235.8"/>
<line class="st3" x1="194.4" y1="245.3" x2="208.1" y2="245.3"/>
<line class="st3" x1="126.7" y1="245.3" x2="130.1" y2="245.3"/>
<line class="st3" x1="133.8" y1="245.3" x2="137.2" y2="245.3"/>
<line class="st3" x1="141.2" y1="245.3" x2="144.6" y2="245.3"/>
</svg>
